<?xml version="1.0" encoding="utf-8"?>
<!-- Generator: Adobe Illustrator 17.0.2, SVG Export Plug-In . SVG Version: 6.00 Build 0)  -->
<!DOCTYPE svg PUBLIC "-//W3C//DTD SVG 1.1//EN" "http://www.w3.org/Graphics/SVG/1.1/DTD/svg11.dtd">
<svg version="1.1" id="Layer_1" xmlns="http://www.w3.org/2000/svg" xmlns:xlink="http://www.w3.org/1999/xlink" x="0px" y="0px"
	 width="6px" height="10px" viewBox="0 0 6 10" enable-background="new 0 0 6 10" xml:space="preserve">
<g>
	<g>
		<path fill="#B9975B" d="M1.318,2.387c-0.258,0-0.52-0.115-0.717-0.312c-0.178-0.18-0.293-0.439-0.293-0.717
			c0-0.277,0.115-0.539,0.293-0.717c0.377-0.377,1.06-0.377,1.438,0c0.193,0.178,0.309,0.455,0.309,0.717S2.233,1.894,2.055,2.074
			C1.857,2.271,1.6,2.387,1.318,2.387z"/>
	</g>
	<g>
		<path fill="#B9975B" d="M2.248,3.871C1.857,3.447,1.893,2.81,2.299,2.418l0,0C2.723,2.041,3.358,2.074,3.75,2.482l0,0
			c0.375,0.406,0.359,1.061-0.064,1.436l0,0C3.488,4.096,3.246,4.195,3,4.195l0,0C2.723,4.195,2.445,4.08,2.248,3.871z"/>
	</g>
	<g>
		<path fill="#B9975B" d="M4.664,6.004c-0.262,0-0.539-0.111-0.717-0.309c-0.182-0.178-0.293-0.44-0.293-0.701
			c0-0.275,0.111-0.537,0.293-0.732c0.375-0.375,1.076-0.375,1.449,0.016c0.182,0.18,0.295,0.441,0.295,0.717
			c0,0.262-0.113,0.523-0.295,0.717C5.201,5.892,4.941,6.004,4.664,6.004z"/>
	</g>
	<g>
		<path fill="#B9975B" d="M2.299,7.556C1.893,7.164,1.857,6.527,2.248,6.103l0,0c0.377-0.408,1.029-0.439,1.438-0.047l0,0
			C4.109,6.428,4.125,7.082,3.75,7.488l0,0C3.555,7.719,3.277,7.816,3,7.816l0,0C2.756,7.816,2.51,7.734,2.299,7.556z"/>
	</g>
	<g>
		<path fill="#B9975B" d="M1.318,9.642c-0.277,0-0.535-0.115-0.717-0.309c-0.178-0.18-0.293-0.439-0.293-0.717
			c0-0.277,0.1-0.539,0.293-0.721c0.377-0.373,1.076-0.373,1.453,0c0.178,0.197,0.293,0.459,0.293,0.721
			c0,0.277-0.115,0.537-0.293,0.717C1.857,9.527,1.6,9.642,1.318,9.642z"/>
	</g>
</g>
<g>
</g>
<g>
</g>
<g>
</g>
<g>
</g>
<g>
</g>
<g>
</g>
</svg>
