<?xml version="1.0" encoding="utf-8"?>
<!-- Generator: Adobe Illustrator 17.0.2, SVG Export Plug-In . SVG Version: 6.00 Build 0)  -->
<!DOCTYPE svg PUBLIC "-//W3C//DTD SVG 1.1//EN" "http://www.w3.org/Graphics/SVG/1.1/DTD/svg11.dtd">
<svg version="1.1" id="Layer_1" xmlns="http://www.w3.org/2000/svg" xmlns:xlink="http://www.w3.org/1999/xlink" x="0px" y="0px"
	 width="10px" height="6px" viewBox="0 0 10 6" enable-background="new 0 0 10 6" xml:space="preserve">
<g>
	<g>
		<path fill="#B9975B" d="M7.615,1.318c0-0.258,0.115-0.52,0.312-0.717c0.178-0.178,0.439-0.293,0.717-0.293
			c0.277,0,0.537,0.115,0.717,0.293c0.375,0.377,0.375,1.061,0,1.438c-0.18,0.193-0.457,0.309-0.717,0.309
			c-0.262,0-0.539-0.115-0.717-0.293C7.731,1.857,7.615,1.6,7.615,1.318z"/>
	</g>
	<g>
		<path fill="#B9975B" d="M6.131,2.248c0.424-0.391,1.06-0.355,1.453,0.051l0,0C7.959,2.723,7.928,3.358,7.52,3.75l0,0
			C7.111,4.125,6.459,4.109,6.082,3.686l0,0C5.904,3.488,5.805,3.246,5.805,3l0,0C5.805,2.723,5.92,2.445,6.131,2.248z"/>
	</g>
	<g>
		<path fill="#B9975B" d="M3.996,4.664c0-0.262,0.111-0.539,0.309-0.717c0.18-0.182,0.439-0.293,0.701-0.293
			c0.277,0,0.539,0.111,0.732,0.293c0.377,0.375,0.377,1.076-0.016,1.449C5.545,5.578,5.283,5.691,5.006,5.691
			c-0.262,0-0.522-0.113-0.717-0.295C4.107,5.201,3.996,4.941,3.996,4.664z"/>
	</g>
	<g>
		<path fill="#B9975B" d="M2.445,2.299c0.391-0.406,1.029-0.441,1.453-0.051l0,0c0.406,0.377,0.439,1.029,0.047,1.438l0,0
			C3.572,4.109,2.92,4.125,2.512,3.75l0,0C2.283,3.555,2.184,3.277,2.184,3l0,0C2.184,2.756,2.266,2.51,2.445,2.299z"/>
	</g>
	<g>
		<path fill="#B9975B" d="M0.357,1.318c0-0.277,0.115-0.535,0.311-0.717c0.178-0.178,0.439-0.293,0.717-0.293
			c0.277,0,0.537,0.1,0.719,0.293c0.373,0.377,0.373,1.076,0,1.453C1.906,2.233,1.645,2.348,1.385,2.348
			c-0.277,0-0.539-0.115-0.717-0.293C0.473,1.857,0.357,1.6,0.357,1.318z"/>
	</g>
</g>
<g>
</g>
<g>
</g>
<g>
</g>
<g>
</g>
<g>
</g>
<g>
</g>
</svg>
