<?xml version="1.0" encoding="utf-8"?>
<!-- Generator: Adobe Illustrator 16.0.4, SVG Export Plug-In . SVG Version: 6.00 Build 0)  -->
<!DOCTYPE svg PUBLIC "-//W3C//DTD SVG 1.1//EN" "http://www.w3.org/Graphics/SVG/1.1/DTD/svg11.dtd">
<svg version="1.1" id="Layer_1" xmlns="http://www.w3.org/2000/svg" xmlns:xlink="http://www.w3.org/1999/xlink" x="0px" y="0px"
	 width="285px" height="285px" viewBox="0 0 285 285" enable-background="new 0 0 285 285" xml:space="preserve">
<g>
	<g>
		<path fill="#00B388" d="M143.783,284.982l-2.85,0.018l-0.048-7.626L140.836,285l-2.85-0.018l0.097-15.24l2.798,0.018l2.805-0.018
			 M132.702,284.774l-2.843-0.198l1.06-15.204l2.843,0.198L132.702,284.774z M149.068,284.774l-1.06-15.204l2.842-0.198l1.06,15.204
			L149.068,284.774z M124.69,284.079l-2.829-0.342l1.826-15.13l2.83,0.341L124.69,284.079z M157.079,284.078l-1.826-15.13
			l2.829-0.341l1.826,15.13L157.079,284.078z M165.132,282.925l-2.773-14.985l2.802-0.518l2.773,14.985L165.132,282.925z
			 M116.638,282.925l-2.803-0.518l2.773-14.985l2.803,0.518L116.638,282.925z M173.104,281.312l-3.706-14.781l2.764-0.693
			l3.705,14.781L173.104,281.312z M108.667,281.312l-2.765-0.693l3.705-14.781l2.765,0.693L108.667,281.312z M180.868,279.245
			l-4.436-14.581l2.727-0.828l4.436,14.58L180.868,279.245z M100.901,279.245l-2.727-0.829l4.437-14.58l2.727,0.828L100.901,279.245
			z M188.594,276.722l-5.329-14.279l2.67-0.996l5.328,14.279L188.594,276.722z M93.176,276.722l-2.67-0.996l5.328-14.279l2.67,0.996
			L93.176,276.722z M196.156,273.756l-6.193-13.925l2.604-1.158l6.193,13.925L196.156,273.756z M85.612,273.756l-2.604-1.158
			l6.194-13.925l2.604,1.158L85.612,273.756z M203.441,270.383l-6.864-13.606l2.545-1.283l6.864,13.607L203.441,270.383z
			 M78.328,270.383l-2.544-1.282l6.865-13.607l2.544,1.283L78.328,270.383z M71.163,266.568l-2.462-1.435l7.677-13.166l2.461,1.435
			L71.163,266.568z M210.607,266.568l-7.677-13.166l2.462-1.435l7.676,13.166L210.607,266.568z M64.23,262.349l-2.371-1.581
			l8.456-12.68l2.371,1.581L64.23,262.349z M217.539,262.348l-8.455-12.679l2.371-1.581l8.455,12.68L217.539,262.348z
			 M224.216,257.74l-9.2-12.15l2.272-1.721l9.2,12.15L224.216,257.74z M57.553,257.74l-2.271-1.721l9.2-12.15l2.272,1.721
			L57.553,257.74z M230.535,252.801l-9.771-11.697l2.188-1.827l9.771,11.696L230.535,252.801z M51.235,252.801l-2.187-1.828
			l9.771-11.696l2.187,1.827L51.235,252.801z M236.64,247.461l-10.451-11.094l2.075-1.954l10.451,11.094L236.64,247.461z
			 M45.13,247.461l-2.075-1.954l10.451-11.094l2.075,1.954L45.13,247.461z M242.43,241.781l-11.093-10.45l1.954-2.074l11.094,10.449
			L242.43,241.781z M39.34,241.781l-1.954-2.075l11.093-10.449l1.954,2.074L39.34,241.781z M247.886,235.781l-11.696-9.771
			l1.828-2.188l11.695,9.771L247.886,235.781z M33.884,235.781l-1.827-2.188l11.696-9.771l1.827,2.188L33.884,235.781z
			 M252.991,229.476l-12.259-9.054l1.693-2.292l12.259,9.054L252.991,229.476z M28.778,229.476l-1.693-2.292l12.259-9.054
			l1.693,2.292L28.778,229.476z M24.108,222.954l-1.582-2.37l12.68-8.457l1.582,2.371L24.108,222.954z M257.661,222.954
			l-12.68-8.456l1.582-2.371l12.68,8.457L257.661,222.954z M262.015,216.106l-13.165-7.677l1.437-2.462l13.165,7.677
			L262.015,216.106z M19.753,216.106l-1.435-2.462l13.166-7.677l1.435,2.462L19.753,216.106z M265.97,209.018l-13.606-6.866
			l1.284-2.545l13.606,6.865L265.97,209.018z M15.799,209.018l-1.284-2.546l13.606-6.865l1.284,2.545L15.799,209.018z
			 M269.512,201.707l-14-6.021l1.127-2.618l14,6.022L269.512,201.707z M12.258,201.707l-1.126-2.617l14-6.022l1.126,2.618
			L12.258,201.707z M272.574,194.284l-14.278-5.328l0.995-2.67l14.279,5.328L272.574,194.284z M9.196,194.284l-0.996-2.67
			l14.278-5.328l0.997,2.67L9.196,194.284z M275.252,186.61l-14.581-4.435l0.829-2.727l14.581,4.435L275.252,186.61z M6.519,186.61
			l-0.83-2.727l14.581-4.435l0.829,2.727L6.519,186.61z M277.481,178.792l-14.828-3.521l0.658-2.772l14.828,3.521L277.481,178.792z
			 M4.288,178.792l-0.658-2.772l14.829-3.521l0.658,2.772L4.288,178.792z M279.219,170.945l-14.986-2.774l0.52-2.802l14.985,2.773
			L279.219,170.945z M2.551,170.945l-0.519-2.803l14.986-2.773l0.519,2.802L2.551,170.945z M280.534,162.916l-15.131-1.826
			l0.341-2.829l15.131,1.826L280.534,162.916z M1.236,162.916l-0.341-2.829l15.13-1.826l0.342,2.829L1.236,162.916z
			 M281.361,154.919l-15.203-1.062l0.198-2.843l15.203,1.062L281.361,154.919z M0.409,154.919l-0.199-2.843l15.203-1.062
			l0.199,2.843L0.409,154.919z M281.754,146.79l-15.24-0.097l0.018-2.851l15.24,0.098L281.754,146.79z M0.017,146.79l-0.018-2.85
			l15.24-0.098l0.018,2.851L0.017,146.79z M266.445,139.423l-0.127-2.847l15.226-0.676l0.126,2.847L266.445,139.423z
			 M15.325,139.423l-15.226-0.676l0.126-2.847l15.226,0.676L15.325,139.423z M265.989,132.264l-0.307-2.834l15.152-1.636
			l0.307,2.833L265.989,132.264z M15.781,132.264l-15.153-1.637l0.306-2.833l15.152,1.636L15.781,132.264z M265.094,125.046
			l-0.448-2.814l15.051-2.396l0.447,2.814L265.094,125.046z M16.676,125.046l-15.05-2.396l0.448-2.814l15.051,2.396L16.676,125.046z
			 M263.817,117.981l-0.624-2.78l14.871-3.336l0.623,2.781L263.817,117.981z M17.953,117.981l-14.87-3.335l0.624-2.781l14.87,3.336
			L17.953,117.981z M19.632,110.999l-14.634-4.254l0.795-2.736l14.634,4.253L19.632,110.999z M262.138,110.999l-0.795-2.737
			l14.634-4.253l0.795,2.736L262.138,110.999z M260.007,104.041l-0.93-2.694l14.405-4.976l0.93,2.694L260.007,104.041z
			 M21.763,104.041L7.357,99.065l0.93-2.694l14.406,4.976L21.763,104.041z M24.244,97.294l-14.073-5.851l1.094-2.631l14.073,5.851
			L24.244,97.294z M257.525,97.294l-1.094-2.631l14.072-5.851l1.094,2.631L257.525,97.294z M254.659,90.7l-1.254-2.56l13.689-6.699
			l1.253,2.56L254.659,90.7z M27.111,90.7l-13.69-6.699l1.252-2.56l13.69,6.699L27.111,90.7z M251.355,84.205l-1.375-2.496
			l13.348-7.355l1.375,2.496L251.355,84.205z M30.414,84.205L17.066,76.85l1.375-2.496l13.347,7.355L30.414,84.205z M247.742,77.983
			l-1.524-2.408l12.88-8.149l1.524,2.408L247.742,77.983z M34.027,77.983l-12.878-8.149l1.524-2.408l12.878,8.149L34.027,77.983z
			 M243.777,71.975l-1.665-2.313l12.367-8.906l1.665,2.313L243.777,71.975z M37.992,71.975l-12.367-8.906l1.666-2.313l12.367,8.906
			L37.992,71.975z M239.476,66.201l-1.802-2.209l11.813-9.629l1.801,2.208L239.476,66.201z M42.294,66.201l-11.812-9.63l1.801-2.208
			l11.812,9.629L42.294,66.201z M234.851,60.68l-1.929-2.098l11.217-10.317l1.929,2.098L234.851,60.68z M46.918,60.68L35.702,50.363
			l1.93-2.098l11.216,10.317L46.918,60.68z M51.929,55.38L41.217,44.541l2.027-2.003l10.712,10.839L51.929,55.38z M229.841,55.38
			l-2.027-2.003l10.712-10.839l2.027,2.003L229.841,55.38z M224.613,50.427l-2.143-1.879l10.047-11.46l2.143,1.879L224.613,50.427z
			 M57.156,50.427l-10.046-11.46l2.143-1.879l10.046,11.46L57.156,50.427z M219.114,45.778l-2.252-1.747l9.346-12.04l2.251,1.748
			L219.114,45.778z M62.656,45.778l-9.345-12.039l2.251-1.748l9.345,12.04L62.656,45.778z M68.41,41.451l-8.608-12.578l2.353-1.61
			l8.607,12.578L68.41,41.451z M213.359,41.451l-2.352-1.61l8.607-12.578l2.352,1.61L213.359,41.451z M74.487,37.427L66.495,24.45
			l2.427-1.494l7.993,12.977L74.487,37.427z M207.283,37.427l-2.428-1.494l7.991-12.977l2.428,1.494L207.283,37.427z M80.698,33.792
			l-7.194-13.435l2.512-1.345l7.194,13.435L80.698,33.792z M201.072,33.792l-2.513-1.345l7.193-13.435l2.513,1.345L201.072,33.792z
			 M87.103,30.52l-6.363-13.848l2.589-1.189l6.364,13.848L87.103,30.52z M194.667,30.52l-2.59-1.19l6.363-13.848l2.589,1.189
			L194.667,30.52z M188.088,27.621l-2.658-1.029l5.503-14.212l2.658,1.029L188.088,27.621z M93.682,27.621l-5.503-14.212
			l2.658-1.029l5.503,14.212L93.682,27.621z M181.261,25.095l-2.706-0.897l4.796-14.466l2.706,0.896L181.261,25.095z M100.51,25.095
			l-4.796-14.467l2.705-0.896l4.796,14.466L100.51,25.095z M107.375,22.98l-3.889-14.736l2.756-0.727l3.889,14.736L107.375,22.98z
			 M174.395,22.98l-2.755-0.727l3.889-14.736l2.756,0.727L174.395,22.98z M114.346,21.262l-2.962-14.95l2.796-0.554l2.962,14.95
			L114.346,21.262z M167.423,21.262l-2.795-0.554l2.962-14.95l2.795,0.554L167.423,21.262z M121.501,19.954l-2.207-15.08
			l2.819-0.413l2.207,15.08L121.501,19.954z M160.27,19.953l-2.82-0.412l2.206-15.08l2.82,0.412L160.27,19.953z M153.15,19.05
			l-2.839-0.234l1.252-15.188l2.84,0.234L153.15,19.05z M128.619,19.05l-1.252-15.188l2.84-0.234l1.252,15.188L128.619,19.05z
			 M145.896,18.567l-2.849-0.09l0.482-15.234l2.849,0.09L145.896,18.567z M135.874,18.567l-0.482-15.233l2.849-0.09l0.482,15.234
			L135.874,18.567z"/>
	</g>
</g>
</svg>
