<?xml version="1.0" encoding="utf-8"?>
<!-- Generator: Adobe Illustrator 17.0.2, SVG Export Plug-In . SVG Version: 6.00 Build 0)  -->
<!DOCTYPE svg PUBLIC "-//W3C//DTD SVG 1.1//EN" "http://www.w3.org/Graphics/SVG/1.1/DTD/svg11.dtd">
<svg version="1.1" id="Layer_1" xmlns="http://www.w3.org/2000/svg" xmlns:xlink="http://www.w3.org/1999/xlink" x="0px" y="0px"
	 width="91.19px" height="95.025px" viewBox="0 0 91.19 95.025" enable-background="new 0 0 91.19 95.025" xml:space="preserve">
<g>
	<circle fill="#EFEFEF" cx="68.966" cy="72.801" r="21.225"/>
	<g>
		<circle fill="#00263E" cx="64.834" cy="84.313" r="2.98"/>
		<circle fill="#00263E" cx="64.834" cy="60.075" r="2.981"/>
		<circle fill="#00263E" cx="70.834" cy="66.313" r="2.981"/>
		<circle fill="#00263E" cx="70.834" cy="78.313" r="2.98"/>
		<circle fill="#00263E" cx="76.628" cy="72.196" r="2.981"/>
	</g>
</g>
<circle fill="#EFEFEF" cx="68.966" cy="21.225" r="21.225"/>
<g>
	<circle fill="#00A9E0" cx="64.834" cy="32.737" r="2.98"/>
	<circle fill="#00A9E0" cx="64.834" cy="8.499" r="2.981"/>
	<circle fill="#00A9E0" cx="70.834" cy="14.737" r="2.981"/>
	<circle fill="#00A9E0" cx="70.834" cy="26.737" r="2.98"/>
	<circle fill="#00A9E0" cx="76.628" cy="20.62" r="2.981"/>
</g>
<g>
	<circle fill="#EFEFEF" cx="21.37" cy="72.801" r="21.225"/>
	<g>
		<circle fill="#00263E" cx="25.502" cy="61.289" r="2.98"/>
		<circle fill="#00263E" cx="25.502" cy="85.528" r="2.981"/>
		<circle fill="#00263E" cx="19.502" cy="79.289" r="2.981"/>
		<circle fill="#00263E" cx="19.502" cy="67.289" r="2.98"/>
		<circle fill="#00263E" cx="13.707" cy="73.407" r="2.981"/>
	</g>
</g>
<g>
	<circle fill="#EFEFEF" cx="21.37" cy="21.225" r="21.225"/>
	<g>
		<circle fill="#00A9E0" cx="25.502" cy="9.713" r="2.98"/>
		<circle fill="#00A9E0" cx="25.502" cy="33.952" r="2.981"/>
		<circle fill="#00A9E0" cx="19.502" cy="27.713" r="2.981"/>
		<circle fill="#00A9E0" cx="19.502" cy="15.713" r="2.98"/>
		<circle fill="#00A9E0" cx="13.707" cy="21.831" r="2.981"/>
	</g>
</g>
</svg>
