<?xml version="1.0" encoding="utf-8"?>
<!-- Generator: Adobe Illustrator 16.0.4, SVG Export Plug-In . SVG Version: 6.00 Build 0)  -->
<!DOCTYPE svg PUBLIC "-//W3C//DTD SVG 1.1//EN" "http://www.w3.org/Graphics/SVG/1.1/DTD/svg11.dtd">
<svg version="1.1" id="Layer_1" xmlns="http://www.w3.org/2000/svg" xmlns:xlink="http://www.w3.org/1999/xlink" x="0px" y="0px"
	 width="1140.545px" height="37.666px" viewBox="0 0 1140.545 37.666" enable-background="new 0 0 1140.545 37.666"
	 xml:space="preserve">
<g>
	<path fill="#B9975B" d="M1134.45,33.996c0-0.82,0.67-1.5,1.5-1.5l0,0c0.818,0,1.5,0.68,1.5,1.5l0,0c0,0.83-0.682,1.5-1.5,1.5l0,0
		C1135.12,35.496,1134.45,34.826,1134.45,33.996z M1128.42,33.996c0-0.82,0.67-1.5,1.5-1.5l0,0c0.83,0,1.5,0.68,1.5,1.5l0,0
		c0,0.83-0.67,1.5-1.5,1.5l0,0C1129.09,35.496,1128.42,34.826,1128.42,33.996z M1122.399,33.996c0-0.82,0.67-1.5,1.5-1.5l0,0
		c0.829,0,1.5,0.68,1.5,1.5l0,0c0,0.83-0.671,1.5-1.5,1.5l0,0C1123.069,35.496,1122.399,34.826,1122.399,33.996z M1116.38,33.996
		c0-0.82,0.67-1.5,1.5-1.5l0,0c0.83,0,1.5,0.68,1.5,1.5l0,0c0,0.83-0.67,1.5-1.5,1.5l0,0
		C1117.05,35.496,1116.38,34.826,1116.38,33.996z M1110.359,33.996c0-0.82,0.681-1.5,1.511-1.5l0,0c0.819,0,1.5,0.68,1.5,1.5l0,0
		c0,0.83-0.681,1.5-1.5,1.5l0,0C1111.04,35.496,1110.359,34.826,1110.359,33.996z M1104.35,33.996c0-0.82,0.67-1.5,1.5-1.5l0,0
		c0.83,0,1.5,0.68,1.5,1.5l0,0c0,0.83-0.67,1.5-1.5,1.5l0,0C1105.02,35.496,1104.35,34.826,1104.35,33.996z M1098.33,33.996
		c0-0.82,0.68-1.5,1.51-1.5l0,0c0.82,0,1.5,0.68,1.5,1.5l0,0c0,0.83-0.68,1.5-1.5,1.5l0,0
		C1099.01,35.496,1098.33,34.826,1098.33,33.996z M1092.319,33.996c0-0.82,0.671-1.5,1.5-1.5l0,0c0.829,0,1.5,0.68,1.5,1.5l0,0
		c0,0.83-0.671,1.5-1.5,1.5l0,0C1092.99,35.496,1092.319,34.826,1092.319,33.996z M1086.311,33.996c0-0.82,0.67-1.5,1.5-1.5l0,0
		c0.829,0,1.5,0.68,1.5,1.5l0,0c0,0.83-0.671,1.5-1.5,1.5l0,0C1086.979,35.496,1086.311,34.826,1086.311,33.996z M1080.29,33.996
		c0-0.82,0.68-1.5,1.5-1.5l0,0c0.83,0,1.51,0.68,1.51,1.5l0,0c0,0.83-0.68,1.5-1.51,1.5l0,0
		C1080.97,35.496,1080.29,34.826,1080.29,33.996z M1074.28,33.996c0-0.82,0.67-1.5,1.5-1.5l0,0c0.829,0,1.5,0.68,1.5,1.5l0,0
		c0,0.83-0.671,1.5-1.5,1.5l0,0C1074.95,35.496,1074.28,34.826,1074.28,33.996z M1068.26,33.996c0-0.82,0.681-1.5,1.5-1.5l0,0
		c0.83,0,1.51,0.68,1.51,1.5l0,0c0,0.83-0.68,1.5-1.51,1.5l0,0C1068.939,35.496,1068.26,34.826,1068.26,33.996z M1062.25,33.996
		c0-0.82,0.67-1.5,1.5-1.5l0,0c0.83,0,1.5,0.68,1.5,1.5l0,0c0,0.83-0.67,1.5-1.5,1.5l0,0
		C1062.92,35.496,1062.25,34.826,1062.25,33.996z M1056.24,33.996c0-0.82,0.67-1.5,1.5-1.5l0,0c0.829,0,1.5,0.68,1.5,1.5l0,0
		c0,0.83-0.671,1.5-1.5,1.5l0,0C1056.91,35.496,1056.24,34.826,1056.24,33.996z M1050.22,33.996c0-0.82,0.67-1.5,1.5-1.5l0,0
		c0.83,0,1.5,0.68,1.5,1.5l0,0c0,0.83-0.67,1.5-1.5,1.5l0,0C1050.89,35.496,1050.22,34.826,1050.22,33.996z M1044.21,33.996
		c0-0.82,0.67-1.5,1.5-1.5l0,0c0.83,0,1.5,0.68,1.5,1.5l0,0c0,0.83-0.67,1.5-1.5,1.5l0,0
		C1044.88,35.496,1044.21,34.826,1044.21,33.996z M1038.189,33.996c0-0.82,0.67-1.5,1.5-1.5l0,0c0.829,0,1.5,0.68,1.5,1.5l0,0
		c0,0.83-0.671,1.5-1.5,1.5l0,0C1038.859,35.496,1038.189,34.826,1038.189,33.996z M1032.17,33.996c0-0.82,0.67-1.5,1.5-1.5l0,0
		c0.83,0,1.5,0.68,1.5,1.5l0,0c0,0.83-0.67,1.5-1.5,1.5l0,0C1032.84,35.496,1032.17,34.826,1032.17,33.996z M1026.149,33.996
		c0-0.82,0.67-1.5,1.5-1.5l0,0c0.829,0,1.5,0.68,1.5,1.5l0,0c0,0.83-0.671,1.5-1.5,1.5l0,0
		C1026.819,35.496,1026.149,34.826,1026.149,33.996z M1020.149,33.836c0.029-0.83,0.739-1.47,1.569-1.43l0,0
		c0.82,0.04,1.46,0.739,1.42,1.569l0,0c-0.04,0.83-0.739,1.471-1.569,1.431l0,0C1020.74,35.366,1020.1,34.666,1020.149,33.836z
		 M1015.49,34.906c-0.82-0.091-1.41-0.841-1.32-1.66l0,0c0.1-0.82,0.84-1.41,1.67-1.32l0,0c0.82,0.091,1.41,0.841,1.311,1.66l0,0
		c-0.08,0.771-0.73,1.33-1.48,1.33l0,0C1015.61,34.916,1015.55,34.916,1015.49,34.906z M1009.47,34.036
		c-0.819-0.141-1.359-0.92-1.22-1.73l0,0c0.14-0.82,0.91-1.369,1.73-1.22l0,0c0.819,0.14,1.369,0.91,1.22,1.729l0,0
		c-0.12,0.73-0.761,1.24-1.47,1.24l0,0C1009.64,34.056,1009.56,34.056,1009.47,34.036z M1003.51,32.847
		c-0.81-0.181-1.31-0.98-1.13-1.791l0,0c0.18-0.81,0.98-1.32,1.79-1.13l0,0c0.811,0.181,1.32,0.98,1.13,1.79l0,0
		c-0.149,0.7-0.77,1.17-1.46,1.17l0,0C1003.73,32.886,1003.62,32.876,1003.51,32.847z M997.62,31.376L997.62,31.376
		c-0.8-0.22-1.271-1.04-1.05-1.84l0,0c0.22-0.801,1.04-1.27,1.84-1.051l0,0c0.8,0.221,1.27,1.041,1.05,1.841l0,0
		c-0.18,0.67-0.79,1.1-1.45,1.1l0,0C997.88,31.426,997.75,31.416,997.62,31.376z M991.8,29.656c-0.79-0.25-1.22-1.101-0.97-1.89l0,0
		c0.25-0.791,1.1-1.221,1.88-0.971l0,0c0.79,0.25,1.23,1.09,0.98,1.891l0,0c-0.21,0.629-0.801,1.039-1.431,1.039l0,0
		C992.11,29.726,991.95,29.706,991.8,29.656z M986.07,27.696c-0.78-0.28-1.19-1.141-0.9-1.92l0,0c0.28-0.78,1.14-1.18,1.92-0.9l0,0
		l0,0l0,0c0.78,0.28,1.18,1.15,0.9,1.93l0,0c-0.221,0.601-0.8,0.98-1.41,0.98l0,0C986.41,27.786,986.24,27.756,986.07,27.696z
		 M980.41,25.526c-0.76-0.311-1.13-1.19-0.82-1.95l0,0c0.311-0.771,1.19-1.14,1.95-0.83l0,0c0.77,0.31,1.14,1.19,0.83,1.96l0,0
		c-0.24,0.58-0.8,0.93-1.39,0.93l0,0C980.79,25.636,980.6,25.606,980.41,25.526z M974.85,23.146L974.85,23.146
		c-0.76-0.34-1.1-1.229-0.76-1.989l0,0c0.34-0.75,1.23-1.091,1.99-0.75l0,0c0.75,0.34,1.09,1.229,0.75,1.979l0,0
		c-0.25,0.561-0.8,0.891-1.37,0.891l0,0C975.25,23.276,975.04,23.235,974.85,23.146z M969.37,20.546c-0.74-0.37-1.04-1.27-0.68-2.01
		l0,0c0.369-0.74,1.27-1.04,2.02-0.67l0,0c0.74,0.37,1.04,1.27,0.67,2.01l0,0c-0.26,0.52-0.79,0.83-1.34,0.83l0,0
		C969.81,20.706,969.58,20.656,969.37,20.546z M964,17.736c-0.73-0.4-0.99-1.31-0.59-2.04l0,0c0.399-0.73,1.31-0.99,2.04-0.59l0,0
		c0.72,0.4,0.989,1.31,0.59,2.04l0,0c-0.28,0.49-0.79,0.77-1.32,0.77l0,0C964.48,17.916,964.23,17.856,964,17.736z M958.75,14.686
		c-0.71-0.44-0.93-1.36-0.5-2.07l0,0c0.44-0.7,1.36-0.93,2.07-0.49l0,0c0.699,0.43,0.92,1.36,0.489,2.06l0,0
		c-0.279,0.46-0.779,0.72-1.279,0.72l0,0C959.26,14.906,958.99,14.836,958.75,14.686z M953.61,11.936c-0.75-0.35-1.08-1.25-0.73-2
		l0,0c0.351-0.75,1.25-1.08,2-0.73l0,0c0,0,0,0,0,0.01l0,0c0.75,0.35,1.07,1.24,0.72,1.99l0,0c-0.25,0.55-0.79,0.87-1.359,0.87l0,0
		C954.03,12.076,953.82,12.026,953.61,11.936z M948.18,9.696c-0.779-0.29-1.18-1.15-0.899-1.93l0,0c0.29-0.77,1.149-1.17,1.93-0.89
		l0,0c0.78,0.28,1.18,1.15,0.89,1.92l0,0c-0.22,0.61-0.8,0.99-1.409,0.99l0,0C948.52,9.786,948.35,9.756,948.18,9.696z
		 M942.56,7.856c-0.79-0.23-1.25-1.06-1.02-1.86l0,0c0.24-0.8,1.07-1.25,1.87-1.02l0,0c0.79,0.23,1.25,1.07,1.01,1.86l0,0
		c-0.189,0.66-0.79,1.08-1.43,1.08l0,0C942.85,7.916,942.7,7.896,942.56,7.856z M936.83,6.346c-0.811-0.19-1.3-1-1.11-1.81l0,0
		c0.19-0.8,1-1.3,1.8-1.11l0,0c0.811,0.19,1.311,1,1.12,1.81l0,0c-0.17,0.68-0.779,1.15-1.46,1.15l0,0
		C937.06,6.386,936.95,6.376,936.83,6.346z M931.02,5.106L931.02,5.106c-0.81-0.16-1.35-0.94-1.189-1.76l0,0
		c0.15-0.81,0.939-1.35,1.75-1.19l0,0c0.82,0.16,1.35,0.94,1.2,1.76l0,0c-0.141,0.72-0.771,1.21-1.48,1.21l0,0
		C931.21,5.126,931.12,5.126,931.02,5.106z M925.16,4.106c-0.82-0.12-1.391-0.89-1.26-1.71l0,0c0.119-0.81,0.88-1.38,1.699-1.26l0,0
		c0.82,0.13,1.381,0.89,1.261,1.71l0,0c-0.11,0.74-0.75,1.28-1.48,1.28l0,0C925.31,4.126,925.23,4.116,925.16,4.106z M919.26,3.346
		c-0.819-0.09-1.42-0.82-1.34-1.65l0,0c0.09-0.82,0.83-1.42,1.65-1.33l0,0c0.83,0.09,1.42,0.82,1.34,1.65l0,0
		c-0.08,0.77-0.73,1.34-1.49,1.34l0,0C919.36,3.356,919.31,3.356,919.26,3.346z M911.91,1.666c0-0.83,0.67-1.5,1.5-1.5l0,0
		c0.83,0,1.5,0.67,1.5,1.5l0,0c0,0.83-0.67,1.5-1.5,1.5l0,0C912.58,3.166,911.91,2.496,911.91,1.666z M905.91,1.666
		c0-0.83,0.67-1.5,1.5-1.5l0,0c0.83,0,1.5,0.67,1.5,1.5l0,0c0,0.83-0.67,1.5-1.5,1.5l0,0C906.58,3.166,905.91,2.496,905.91,1.666z
		 M899.91,1.666c0-0.83,0.68-1.5,1.5-1.5l0,0c0.83,0,1.5,0.67,1.5,1.5l0,0c0,0.83-0.67,1.5-1.5,1.5l0,0
		C900.59,3.166,899.91,2.496,899.91,1.666z M893.91,1.666c0-0.83,0.68-1.5,1.5-1.5l0,0c0.83,0,1.5,0.67,1.5,1.5l0,0
		c0,0.83-0.67,1.5-1.5,1.5l0,0C894.59,3.166,893.91,2.496,893.91,1.666z M887.91,1.666c0-0.83,0.67-1.5,1.51-1.5l0,0
		c0.82,0,1.49,0.67,1.49,1.5l0,0c0,0.83-0.67,1.5-1.49,1.5l0,0C888.58,3.166,887.91,2.496,887.91,1.666z M881.91,1.666
		c0-0.83,0.68-1.5,1.5-1.5l0,0c0.83,0,1.5,0.67,1.5,1.5l0,0c0,0.83-0.67,1.5-1.5,1.5l0,0C882.59,3.166,881.91,2.496,881.91,1.666z
		 M875.91,1.666c0-0.83,0.68-1.5,1.5-1.5l0,0c0.83,0,1.5,0.67,1.5,1.5l0,0c0,0.83-0.67,1.5-1.5,1.5l0,0
		C876.59,3.166,875.91,2.496,875.91,1.666z M869.91,1.666c0-0.83,0.67-1.5,1.5-1.5l0,0c0.83,0,1.5,0.67,1.5,1.5l0,0
		c0,0.83-0.67,1.5-1.5,1.5l0,0C870.58,3.166,869.91,2.496,869.91,1.666z M863.91,1.666c0-0.83,0.67-1.5,1.5-1.5l0,0
		c0.83,0,1.5,0.67,1.5,1.5l0,0c0,0.83-0.67,1.5-1.5,1.5l0,0C864.58,3.166,863.91,2.496,863.91,1.666z M857.91,1.666
		c0-0.83,0.68-1.5,1.5-1.5l0,0c0.83,0,1.5,0.67,1.5,1.5l0,0c0,0.83-0.67,1.5-1.5,1.5l0,0C858.59,3.166,857.91,2.496,857.91,1.666z
		 M851.91,1.666c0-0.83,0.68-1.5,1.5-1.5l0,0c0.83,0,1.5,0.67,1.5,1.5l0,0c0,0.83-0.67,1.5-1.5,1.5l0,0
		C852.59,3.166,851.91,2.496,851.91,1.666z M845.91,1.666c0-0.83,0.67-1.5,1.51-1.5l0,0c0.82,0,1.49,0.67,1.49,1.5l0,0
		c0,0.83-0.67,1.5-1.49,1.5l0,0C846.58,3.166,845.91,2.496,845.91,1.666z M839.91,1.666c0-0.83,0.68-1.5,1.5-1.5l0,0
		c0.83,0,1.5,0.67,1.5,1.5l0,0c0,0.83-0.67,1.5-1.5,1.5l0,0C840.59,3.166,839.91,2.496,839.91,1.666z M833.91,1.666
		c0-0.83,0.68-1.5,1.5-1.5l0,0c0.83,0,1.5,0.67,1.5,1.5l0,0c0,0.83-0.67,1.5-1.5,1.5l0,0C834.59,3.166,833.91,2.496,833.91,1.666z
		 M827.91,1.666c0-0.83,0.67-1.5,1.5-1.5l0,0c0.83,0,1.51,0.67,1.51,1.5l0,0c0,0.83-0.68,1.5-1.51,1.5l0,0
		C828.58,3.166,827.91,2.496,827.91,1.666z M821.92,1.666c0-0.83,0.67-1.5,1.49-1.5l0,0c0.83,0,1.5,0.67,1.5,1.5l0,0
		c0,0.83-0.67,1.5-1.5,1.5l0,0C822.59,3.166,821.92,2.496,821.92,1.666z M815.91,1.666c0-0.83,0.68-1.5,1.5-1.5l0,0
		c0.83,0,1.5,0.67,1.5,1.5l0,0c0,0.83-0.67,1.5-1.5,1.5l0,0C816.59,3.166,815.91,2.496,815.91,1.666z M809.91,1.666
		c0-0.83,0.68-1.5,1.5-1.5l0,0c0.83,0,1.51,0.67,1.51,1.5l0,0c0,0.83-0.68,1.5-1.51,1.5l0,0C810.59,3.166,809.91,2.496,809.91,1.666
		z M803.92,1.666c0-0.83,0.66-1.5,1.5-1.5l0,0c0.82,0,1.49,0.67,1.49,1.5l0,0c0,0.83-0.67,1.5-1.49,1.5l0,0
		C804.58,3.166,803.92,2.496,803.92,1.666z M797.91,1.666c0-0.83,0.68-1.5,1.5-1.5l0,0c0.83,0,1.5,0.67,1.5,1.5l0,0
		c0,0.83-0.67,1.5-1.5,1.5l0,0C798.59,3.166,797.91,2.496,797.91,1.666z M791.91,1.666c0-0.83,0.68-1.5,1.5-1.5l0,0
		c0.83,0,1.5,0.67,1.5,1.5l0,0c0,0.83-0.67,1.5-1.5,1.5l0,0C792.59,3.166,791.91,2.496,791.91,1.666z M785.91,1.666
		c0-0.83,0.67-1.5,1.51-1.5l0,0c0.82,0,1.5,0.67,1.5,1.5l0,0c0,0.83-0.68,1.5-1.5,1.5l0,0C786.58,3.166,785.91,2.496,785.91,1.666z
		 M779.92,1.666c0-0.83,0.67-1.5,1.49-1.5l0,0c0.83,0,1.5,0.67,1.5,1.5l0,0c0,0.83-0.67,1.5-1.5,1.5l0,0
		C780.59,3.166,779.92,2.496,779.92,1.666z M773.91,1.666c0-0.83,0.68-1.5,1.5-1.5l0,0c0.83,0,1.5,0.67,1.5,1.5l0,0
		c0,0.83-0.67,1.5-1.5,1.5l0,0C774.59,3.166,773.91,2.496,773.91,1.666z M767.91,1.666c0-0.83,0.68-1.5,1.5-1.5l0,0
		c0.83,0,1.51,0.67,1.51,1.5l0,0c0,0.83-0.68,1.5-1.51,1.5l0,0C768.59,3.166,767.91,2.496,767.91,1.666z M761.92,1.666
		c0-0.83,0.66-1.5,1.5-1.5l0,0c0.82,0,1.49,0.67,1.49,1.5l0,0c0,0.83-0.67,1.5-1.49,1.5l0,0C762.58,3.166,761.92,2.496,761.92,1.666
		z M755.91,1.666c0-0.83,0.68-1.5,1.5-1.5l0,0c0.83,0,1.5,0.67,1.5,1.5l0,0c0,0.83-0.67,1.5-1.5,1.5l0,0
		C756.59,3.166,755.91,2.496,755.91,1.666z M749.91,1.666c0-0.83,0.68-1.5,1.5-1.5l0,0c0.83,0,1.5,0.67,1.5,1.5l0,0
		c0,0.83-0.67,1.5-1.5,1.5l0,0C750.59,3.166,749.91,2.496,749.91,1.666z M743.91,1.666c0-0.83,0.67-1.5,1.51-1.5l0,0
		c0.82,0,1.5,0.67,1.5,1.5l0,0c0,0.83-0.68,1.5-1.5,1.5l0,0C744.58,3.166,743.91,2.496,743.91,1.666z M737.92,1.666
		c0-0.83,0.67-1.5,1.49-1.5l0,0c0.83,0,1.5,0.67,1.5,1.5l0,0c0,0.83-0.67,1.5-1.5,1.5l0,0C738.59,3.166,737.92,2.496,737.92,1.666z
		 M731.91,1.666c0-0.83,0.68-1.5,1.5-1.5l0,0c0.83,0,1.5,0.67,1.5,1.5l0,0c0,0.83-0.67,1.5-1.5,1.5l0,0
		C732.59,3.166,731.91,2.496,731.91,1.666z M725.91,1.666c0-0.83,0.68-1.5,1.5-1.5l0,0c0.83,0,1.51,0.67,1.51,1.5l0,0
		c0,0.83-0.68,1.5-1.51,1.5l0,0C726.59,3.166,725.91,2.496,725.91,1.666z M719.91,1.666c0-0.83,0.67-1.5,1.51-1.5l0,0
		c0.82,0,1.49,0.67,1.49,1.5l0,0c0,0.83-0.67,1.5-1.49,1.5l0,0C720.58,3.166,719.91,2.496,719.91,1.666z M713.91,1.666
		c0-0.83,0.68-1.5,1.5-1.5l0,0c0.83,0,1.5,0.67,1.5,1.5l0,0c0,0.83-0.67,1.5-1.5,1.5l0,0C714.59,3.166,713.91,2.496,713.91,1.666z
		 M707.91,1.666c0-0.83,0.68-1.5,1.5-1.5l0,0c0.83,0,1.51,0.67,1.51,1.5l0,0c0,0.83-0.68,1.5-1.51,1.5l0,0
		C708.59,3.166,707.91,2.496,707.91,1.666z M701.92,1.666c0-0.83,0.66-1.5,1.5-1.5l0,0c0.82,0,1.5,0.67,1.5,1.5l0,0
		c0,0.83-0.68,1.5-1.5,1.5l0,0C702.58,3.166,701.92,2.496,701.92,1.666z M695.92,1.666c0-0.83,0.67-1.5,1.49-1.5l0,0
		c0.83,0,1.5,0.67,1.5,1.5l0,0c0,0.83-0.67,1.5-1.5,1.5l0,0C696.59,3.166,695.92,2.496,695.92,1.666z M689.91,1.666
		c0-0.83,0.68-1.5,1.5-1.5l0,0c0.83,0,1.5,0.67,1.5,1.5l0,0c0,0.83-0.67,1.5-1.5,1.5l0,0C690.59,3.166,689.91,2.496,689.91,1.666z
		 M683.91,1.666c0-0.83,0.68-1.5,1.51-1.5l0,0c0.82,0,1.5,0.67,1.5,1.5l0,0c0,0.83-0.68,1.5-1.5,1.5l0,0
		C684.59,3.166,683.91,2.496,683.91,1.666z M677.92,1.666c0-0.83,0.67-1.5,1.5-1.5l0,0c0.82,0,1.49,0.67,1.49,1.5l0,0
		c0,0.83-0.67,1.5-1.49,1.5l0,0C678.59,3.166,677.92,2.496,677.92,1.666z M671.92,1.666c0-0.83,0.67-1.5,1.49-1.5l0,0
		c0.83,0,1.5,0.67,1.5,1.5l0,0c0,0.83-0.67,1.5-1.5,1.5l0,0C672.59,3.166,671.92,2.496,671.92,1.666z M665.91,1.666
		c0-0.83,0.68-1.5,1.5-1.5l0,0c0.83,0,1.51,0.67,1.51,1.5l0,0c0,0.83-0.68,1.5-1.51,1.5l0,0C666.59,3.166,665.91,2.496,665.91,1.666
		z M659.92,1.666c0-0.83,0.67-1.5,1.5-1.5l0,0c0.82,0,1.5,0.67,1.5,1.5l0,0c0,0.83-0.68,1.5-1.5,1.5l0,0
		C660.59,3.166,659.92,2.496,659.92,1.666z M653.92,1.666c0-0.83,0.67-1.5,1.49-1.5l0,0c0.83,0,1.5,0.67,1.5,1.5l0,0
		c0,0.83-0.67,1.5-1.5,1.5l0,0C654.59,3.166,653.92,2.496,653.92,1.666z M647.91,1.666c0-0.83,0.68-1.5,1.5-1.5l0,0
		c0.83,0,1.5,0.67,1.5,1.5l0,0c0,0.83-0.67,1.5-1.5,1.5l0,0C648.59,3.166,647.91,2.496,647.91,1.666z M641.91,1.666
		c0-0.83,0.68-1.5,1.51-1.5l0,0c0.82,0,1.5,0.67,1.5,1.5l0,0c0,0.83-0.68,1.5-1.5,1.5l0,0C642.59,3.166,641.91,2.496,641.91,1.666z
		 M635.92,1.666c0-0.83,0.67-1.5,1.5-1.5l0,0c0.82,0,1.49,0.67,1.49,1.5l0,0c0,0.83-0.67,1.5-1.49,1.5l0,0
		C636.59,3.166,635.92,2.496,635.92,1.666z M629.92,1.666c0-0.83,0.67-1.5,1.49-1.5l0,0c0.83,0,1.5,0.67,1.5,1.5l0,0
		c0,0.83-0.67,1.5-1.5,1.5l0,0C630.59,3.166,629.92,2.496,629.92,1.666z M623.91,1.666c0-0.83,0.68-1.5,1.5-1.5l0,0
		c0.83,0,1.51,0.67,1.51,1.5l0,0c0,0.83-0.68,1.5-1.51,1.5l0,0C624.59,3.166,623.91,2.496,623.91,1.666z M617.92,1.666
		c0-0.83,0.67-1.5,1.5-1.5l0,0c0.82,0,1.5,0.67,1.5,1.5l0,0c0,0.83-0.68,1.5-1.5,1.5l0,0C618.59,3.166,617.92,2.496,617.92,1.666z
		 M611.92,1.666c0-0.83,0.67-1.5,1.5-1.5l0,0c0.82,0,1.49,0.67,1.49,1.5l0,0c0,0.83-0.67,1.5-1.49,1.5l0,0
		C612.59,3.166,611.92,2.496,611.92,1.666z M605.91,1.666c0-0.83,0.68-1.5,1.5-1.5l0,0c0.83,0,1.5,0.67,1.5,1.5l0,0
		c0,0.83-0.67,1.5-1.5,1.5l0,0C606.59,3.166,605.91,2.496,605.91,1.666z M599.92,1.666c0-0.83,0.67-1.5,1.5-1.5l0,0
		c0.82,0,1.5,0.67,1.5,1.5l0,0c0,0.83-0.68,1.5-1.5,1.5l0,0C600.59,3.166,599.92,2.496,599.92,1.666z M593.92,1.666
		c0-0.83,0.67-1.5,1.5-1.5l0,0c0.82,0,1.49,0.67,1.49,1.5l0,0c0,0.83-0.67,1.5-1.49,1.5l0,0C594.59,3.166,593.92,2.496,593.92,1.666
		z M587.92,1.666c0-0.83,0.67-1.5,1.49-1.5l0,0c0.83,0,1.51,0.67,1.51,1.5l0,0c0,0.83-0.68,1.5-1.51,1.5l0,0
		C588.59,3.166,587.92,2.496,587.92,1.666z M581.91,1.666c0-0.83,0.68-1.5,1.51-1.5l0,0c0.82,0,1.5,0.67,1.5,1.5l0,0
		c0,0.83-0.68,1.5-1.5,1.5l0,0C582.59,3.166,581.91,2.496,581.91,1.666z M575.92,1.666c0-0.83,0.67-1.5,1.5-1.5l0,0
		c0.82,0,1.5,0.67,1.5,1.5l0,0c0,0.83-0.68,1.5-1.5,1.5l0,0C576.59,3.166,575.92,2.496,575.92,1.666z M569.92,1.666
		c0-0.83,0.67-1.5,1.5-1.5l0,0c0.82,0,1.49,0.67,1.49,1.5l0,0c0,0.83-0.67,1.5-1.49,1.5l0,0C570.59,3.166,569.92,2.496,569.92,1.666
		z M563.91,1.666c0-0.83,0.68-1.5,1.5-1.5l0,0c0.83,0,1.51,0.67,1.51,1.5l0,0c0,0.83-0.68,1.5-1.51,1.5l0,0
		C564.59,3.166,563.91,2.496,563.91,1.666z M557.92,1.666c0-0.83,0.67-1.5,1.5-1.5l0,0c0.82,0,1.5,0.67,1.5,1.5l0,0
		c0,0.83-0.68,1.5-1.5,1.5l0,0C558.59,3.166,557.92,2.496,557.92,1.666z M551.92,1.666c0-0.83,0.67-1.5,1.5-1.5l0,0
		c0.82,0,1.5,0.67,1.5,1.5l0,0c0,0.83-0.68,1.5-1.5,1.5l0,0C552.59,3.166,551.92,2.496,551.92,1.666z M545.92,1.666
		c0-0.83,0.67-1.5,1.49-1.5l0,0c0.83,0,1.51,0.67,1.51,1.5l0,0c0,0.83-0.68,1.5-1.51,1.5l0,0
		C546.59,3.166,545.92,2.496,545.92,1.666z M539.91,1.666c0-0.83,0.68-1.5,1.51-1.5l0,0c0.82,0,1.5,0.67,1.5,1.5l0,0
		c0,0.83-0.68,1.5-1.5,1.5l0,0C540.59,3.166,539.91,2.496,539.91,1.666z M533.92,1.666c0-0.83,0.67-1.5,1.5-1.5l0,0
		c0.82,0,1.5,0.67,1.5,1.5l0,0c0,0.83-0.68,1.5-1.5,1.5l0,0C534.59,3.166,533.92,2.496,533.92,1.666z M527.92,1.666
		c0-0.83,0.67-1.5,1.5-1.5l0,0c0.82,0,1.49,0.67,1.49,1.5l0,0c0,0.83-0.67,1.5-1.49,1.5l0,0C528.59,3.166,527.92,2.496,527.92,1.666
		z M521.91,1.666c0-0.83,0.68-1.5,1.5-1.5l0,0c0.83,0,1.51,0.67,1.51,1.5l0,0c0,0.83-0.68,1.5-1.51,1.5l0,0
		C522.59,3.166,521.91,2.496,521.91,1.666z M515.92,1.666c0-0.83,0.67-1.5,1.5-1.5l0,0c0.82,0,1.5,0.67,1.5,1.5l0,0
		c0,0.83-0.68,1.5-1.5,1.5l0,0C516.59,3.166,515.92,2.496,515.92,1.666z M509.92,1.666c0-0.83,0.67-1.5,1.5-1.5l0,0
		c0.82,0,1.5,0.67,1.5,1.5l0,0c0,0.83-0.68,1.5-1.5,1.5l0,0C510.59,3.166,509.92,2.496,509.92,1.666z M503.92,1.666
		c0-0.83,0.67-1.5,1.49-1.5l0,0c0.83,0,1.5,0.67,1.5,1.5l0,0c0,0.83-0.67,1.5-1.5,1.5l0,0C504.59,3.166,503.92,2.496,503.92,1.666z
		 M497.91,1.666c0-0.83,0.68-1.5,1.51-1.5l0,0c0.82,0,1.5,0.67,1.5,1.5l0,0c0,0.83-0.68,1.5-1.5,1.5l0,0
		C498.59,3.166,497.91,2.496,497.91,1.666z M491.92,1.666c0-0.83,0.67-1.5,1.5-1.5l0,0c0.82,0,1.5,0.67,1.5,1.5l0,0
		c0,0.83-0.68,1.5-1.5,1.5l0,0C492.59,3.166,491.92,2.496,491.92,1.666z M485.92,1.666c0-0.83,0.67-1.5,1.5-1.5l0,0
		c0.82,0,1.5,0.67,1.5,1.5l0,0c0,0.83-0.68,1.5-1.5,1.5l0,0C486.59,3.166,485.92,2.496,485.92,1.666z M479.91,1.666
		c0-0.83,0.68-1.5,1.51-1.5l0,0c0.82,0,1.5,0.67,1.5,1.5l0,0c0,0.83-0.68,1.5-1.5,1.5l0,0C480.59,3.166,479.91,2.496,479.91,1.666z
		 M473.92,1.666c0-0.83,0.67-1.5,1.5-1.5l0,0c0.82,0,1.5,0.67,1.5,1.5l0,0c0,0.83-0.68,1.5-1.5,1.5l0,0
		C474.59,3.166,473.92,2.496,473.92,1.666z M467.92,1.666c0-0.83,0.67-1.5,1.5-1.5l0,0c0.82,0,1.5,0.67,1.5,1.5l0,0
		c0,0.83-0.68,1.5-1.5,1.5l0,0C468.59,3.166,467.92,2.496,467.92,1.666z M461.92,1.666c0-0.83,0.67-1.5,1.5-1.5l0,0
		c0.82,0,1.5,0.67,1.5,1.5l0,0c0,0.83-0.68,1.5-1.5,1.5l0,0C462.59,3.166,461.92,2.496,461.92,1.666z M455.92,1.666
		c0-0.83,0.67-1.5,1.5-1.5l0,0c0.82,0,1.5,0.67,1.5,1.5l0,0c0,0.83-0.68,1.5-1.5,1.5l0,0C456.59,3.166,455.92,2.496,455.92,1.666z
		 M449.92,1.666c0-0.83,0.67-1.5,1.5-1.5l0,0c0.82,0,1.5,0.67,1.5,1.5l0,0c0,0.83-0.68,1.5-1.5,1.5l0,0
		C450.59,3.166,449.92,2.496,449.92,1.666z M443.92,1.666c0-0.83,0.67-1.5,1.5-1.5l0,0c0.82,0,1.5,0.67,1.5,1.5l0,0
		c0,0.83-0.68,1.5-1.5,1.5l0,0C444.59,3.166,443.92,2.496,443.92,1.666z M437.91,1.666c0-0.83,0.68-1.5,1.51-1.5l0,0
		c0.82,0,1.5,0.67,1.5,1.5l0,0c0,0.83-0.68,1.5-1.5,1.5l0,0C438.59,3.166,437.91,2.496,437.91,1.666z M431.92,1.666
		c0-0.83,0.67-1.5,1.5-1.5l0,0c0.82,0,1.5,0.67,1.5,1.5l0,0c0,0.83-0.68,1.5-1.5,1.5l0,0C432.59,3.166,431.92,2.496,431.92,1.666z
		 M425.92,1.666c0-0.83,0.67-1.5,1.5-1.5l0,0c0.82,0,1.5,0.67,1.5,1.5l0,0c0,0.83-0.68,1.5-1.5,1.5l0,0
		C426.59,3.166,425.92,2.496,425.92,1.666z M419.92,1.666c0-0.83,0.67-1.5,1.49-1.5l0,0c0.83,0,1.51,0.67,1.51,1.5l0,0
		c0,0.83-0.68,1.5-1.51,1.5l0,0C420.59,3.166,419.92,2.496,419.92,1.666z M413.92,1.666c0-0.83,0.67-1.5,1.5-1.5l0,0
		c0.82,0,1.5,0.67,1.5,1.5l0,0c0,0.83-0.68,1.5-1.5,1.5l0,0C414.59,3.166,413.92,2.496,413.92,1.666z M407.92,1.666
		c0-0.83,0.67-1.5,1.5-1.5l0,0c0.82,0,1.5,0.67,1.5,1.5l0,0c0,0.83-0.68,1.5-1.5,1.5l0,0C408.59,3.166,407.92,2.496,407.92,1.666z
		 M401.92,1.666c0-0.83,0.67-1.5,1.5-1.5l0,0c0.82,0,1.5,0.67,1.5,1.5l0,0c0,0.83-0.68,1.5-1.5,1.5l0,0
		C402.59,3.166,401.92,2.496,401.92,1.666z M395.92,1.666c0-0.83,0.67-1.5,1.5-1.5l0,0c0.82,0,1.5,0.67,1.5,1.5l0,0
		c0,0.83-0.68,1.5-1.5,1.5l0,0C396.59,3.166,395.92,2.496,395.92,1.666z M389.92,1.666c0-0.83,0.67-1.5,1.5-1.5l0,0
		c0.82,0,1.5,0.67,1.5,1.5l0,0c0,0.83-0.68,1.5-1.5,1.5l0,0C390.59,3.166,389.92,2.496,389.92,1.666z M383.92,1.666
		c0-0.83,0.67-1.5,1.5-1.5l0,0c0.82,0,1.5,0.67,1.5,1.5l0,0c0,0.83-0.68,1.5-1.5,1.5l0,0C384.59,3.166,383.92,2.496,383.92,1.666z
		 M377.92,1.666c0-0.83,0.67-1.5,1.5-1.5l0,0c0.83,0,1.5,0.67,1.5,1.5l0,0c0,0.83-0.67,1.5-1.5,1.5l0,0
		C378.59,3.166,377.92,2.496,377.92,1.666z M371.92,1.666c0-0.83,0.67-1.5,1.5-1.5l0,0c0.82,0,1.5,0.67,1.5,1.5l0,0
		c0,0.83-0.68,1.5-1.5,1.5l0,0C372.59,3.166,371.92,2.496,371.92,1.666z M365.92,1.666c0-0.83,0.67-1.5,1.5-1.5l0,0
		c0.82,0,1.5,0.67,1.5,1.5l0,0c0,0.83-0.68,1.5-1.5,1.5l0,0C366.59,3.166,365.92,2.496,365.92,1.666z M359.92,1.666
		c0-0.83,0.67-1.5,1.5-1.5l0,0c0.83,0,1.5,0.67,1.5,1.5l0,0c0,0.83-0.67,1.5-1.5,1.5l0,0C360.59,3.166,359.92,2.496,359.92,1.666z
		 M353.92,1.666c0-0.83,0.67-1.5,1.5-1.5l0,0c0.82,0,1.5,0.67,1.5,1.5l0,0c0,0.83-0.68,1.5-1.5,1.5l0,0
		C354.59,3.166,353.92,2.496,353.92,1.666z M347.92,1.666c0-0.83,0.67-1.5,1.5-1.5l0,0c0.82,0,1.5,0.67,1.5,1.5l0,0
		c0,0.83-0.68,1.5-1.5,1.5l0,0C348.59,3.166,347.92,2.496,347.92,1.666z M341.92,1.666c0-0.83,0.67-1.5,1.5-1.5l0,0
		c0.82,0,1.5,0.67,1.5,1.5l0,0c0,0.83-0.68,1.5-1.5,1.5l0,0C342.59,3.166,341.92,2.496,341.92,1.666z M335.92,1.666
		c0-0.83,0.67-1.5,1.5-1.5l0,0c0.83,0,1.5,0.67,1.5,1.5l0,0c0,0.83-0.67,1.5-1.5,1.5l0,0C336.59,3.166,335.92,2.496,335.92,1.666z
		 M329.92,1.666c0-0.83,0.67-1.5,1.5-1.5l0,0c0.82,0,1.5,0.67,1.5,1.5l0,0c0,0.83-0.68,1.5-1.5,1.5l0,0
		C330.59,3.166,329.92,2.496,329.92,1.666z M323.92,1.666c0-0.83,0.67-1.5,1.5-1.5l0,0c0.82,0,1.5,0.67,1.5,1.5l0,0
		c0,0.83-0.68,1.5-1.5,1.5l0,0C324.59,3.166,323.92,2.496,323.92,1.666z M317.92,1.666c0-0.83,0.67-1.5,1.5-1.5l0,0
		c0.83,0,1.5,0.67,1.5,1.5l0,0c0,0.83-0.67,1.5-1.5,1.5l0,0C318.59,3.166,317.92,2.496,317.92,1.666z M311.92,1.666
		c0-0.83,0.67-1.5,1.5-1.5l0,0c0.82,0,1.5,0.67,1.5,1.5l0,0c0,0.83-0.68,1.5-1.5,1.5l0,0C312.59,3.166,311.92,2.496,311.92,1.666z
		 M305.92,1.666c0-0.83,0.67-1.5,1.5-1.5l0,0c0.82,0,1.5,0.67,1.5,1.5l0,0c0,0.83-0.68,1.5-1.5,1.5l0,0
		C306.59,3.166,305.92,2.496,305.92,1.666z M299.92,1.666c0-0.83,0.67-1.5,1.5-1.5l0,0c0.82,0,1.5,0.67,1.5,1.5l0,0
		c0,0.83-0.68,1.5-1.5,1.5l0,0C300.59,3.166,299.92,2.496,299.92,1.666z M293.92,1.666c0-0.83,0.67-1.5,1.5-1.5l0,0
		c0.83,0,1.5,0.67,1.5,1.5l0,0c0,0.83-0.67,1.5-1.5,1.5l0,0C294.59,3.166,293.92,2.496,293.92,1.666z M287.92,1.666
		c0-0.83,0.67-1.5,1.5-1.5l0,0c0.82,0,1.5,0.67,1.5,1.5l0,0c0,0.83-0.68,1.5-1.5,1.5l0,0C288.59,3.166,287.92,2.496,287.92,1.666z
		 M281.92,1.666c0-0.83,0.67-1.5,1.5-1.5l0,0c0.82,0,1.5,0.67,1.5,1.5l0,0c0,0.83-0.68,1.5-1.5,1.5l0,0
		C282.59,3.166,281.92,2.496,281.92,1.666z M275.92,1.666c0-0.83,0.67-1.5,1.5-1.5l0,0c0.83,0,1.5,0.67,1.5,1.5l0,0
		c0,0.83-0.67,1.5-1.5,1.5l0,0C276.59,3.166,275.92,2.496,275.92,1.666z M269.92,1.666c0-0.83,0.67-1.5,1.5-1.5l0,0
		c0.82,0,1.5,0.67,1.5,1.5l0,0c0,0.83-0.68,1.5-1.5,1.5l0,0C270.59,3.166,269.92,2.496,269.92,1.666z M263.92,1.666
		c0-0.83,0.67-1.5,1.5-1.5l0,0c0.82,0,1.5,0.67,1.5,1.5l0,0c0,0.83-0.68,1.5-1.5,1.5l0,0C264.59,3.166,263.92,2.496,263.92,1.666z
		 M257.92,1.666c0-0.83,0.67-1.5,1.5-1.5l0,0c0.83,0,1.5,0.67,1.5,1.5l0,0c0,0.83-0.67,1.5-1.5,1.5l0,0
		C258.59,3.166,257.92,2.496,257.92,1.666z M251.92,1.666c0-0.83,0.67-1.5,1.5-1.5l0,0c0.83,0,1.5,0.67,1.5,1.5l0,0
		c0,0.83-0.67,1.5-1.5,1.5l0,0C252.59,3.166,251.92,2.496,251.92,1.666z M245.92,1.666c0-0.83,0.67-1.5,1.5-1.5l0,0
		c0.82,0,1.5,0.67,1.5,1.5l0,0c0,0.83-0.68,1.5-1.5,1.5l0,0C246.59,3.166,245.92,2.496,245.92,1.666z M239.92,1.666
		c0-0.83,0.67-1.5,1.5-1.5l0,0c0.82,0,1.5,0.67,1.5,1.5l0,0c0,0.83-0.68,1.5-1.5,1.5l0,0C240.59,3.166,239.92,2.496,239.92,1.666z
		 M233.92,1.666c0-0.83,0.67-1.5,1.5-1.5l0,0c0.83,0,1.5,0.67,1.5,1.5l0,0c0,0.83-0.67,1.5-1.5,1.5l0,0
		C234.59,3.166,233.92,2.496,233.92,1.666z M227.92,1.666c0-0.83,0.67-1.5,1.5-1.5l0,0c0.82,0,1.5,0.67,1.5,1.5l0,0
		c0,0.83-0.68,1.5-1.5,1.5l0,0C228.59,3.166,227.92,2.496,227.92,1.666z M221.92,1.666c0-0.83,0.67-1.5,1.5-1.5l0,0
		c0.82,0,1.5,0.67,1.5,1.5l0,0c0,0.83-0.68,1.5-1.5,1.5l0,0C222.59,3.166,221.92,2.496,221.92,1.666z M215.92,1.666
		c0-0.83,0.67-1.5,1.5-1.5l0,0c0.83,0,1.5,0.67,1.5,1.5l0,0c0,0.83-0.67,1.5-1.5,1.5l0,0C216.59,3.166,215.92,2.496,215.92,1.666z
		 M209.92,1.666c0-0.83,0.67-1.5,1.5-1.5l0,0c0.83,0,1.5,0.67,1.5,1.5l0,0c0,0.83-0.67,1.5-1.5,1.5l0,0
		C210.59,3.166,209.92,2.496,209.92,1.666z M203.92,1.666c0-0.83,0.67-1.5,1.5-1.5l0,0c0.82,0,1.5,0.67,1.5,1.5l0,0
		c0,0.83-0.68,1.5-1.5,1.5l0,0C204.59,3.166,203.92,2.496,203.92,1.666z M197.92,1.666c0-0.83,0.67-1.5,1.5-1.5l0,0
		c0.82,0,1.5,0.67,1.5,1.5l0,0c0,0.83-0.68,1.5-1.5,1.5l0,0C198.59,3.166,197.92,2.496,197.92,1.666z M191.92,1.666
		c0-0.83,0.67-1.5,1.5-1.5l0,0c0.83,0,1.5,0.67,1.5,1.5l0,0c0,0.83-0.67,1.5-1.5,1.5l0,0C192.59,3.166,191.92,2.496,191.92,1.666z
		 M185.92,1.666c0-0.83,0.67-1.5,1.5-1.5l0,0c0.82,0,1.5,0.67,1.5,1.5l0,0c0,0.83-0.68,1.5-1.5,1.5l0,0
		C186.59,3.166,185.92,2.496,185.92,1.666z M179.92,1.666c0-0.83,0.67-1.5,1.5-1.5l0,0c0.82,0,1.5,0.67,1.5,1.5l0,0
		c0,0.83-0.68,1.5-1.5,1.5l0,0C180.59,3.166,179.92,2.496,179.92,1.666z M173.92,1.666c0-0.83,0.67-1.5,1.5-1.5l0,0
		c0.83,0,1.5,0.67,1.5,1.5l0,0c0,0.83-0.67,1.5-1.5,1.5l0,0C174.59,3.166,173.92,2.496,173.92,1.666z M167.92,1.666
		c0-0.83,0.67-1.5,1.5-1.5l0,0c0.83,0,1.5,0.67,1.5,1.5l0,0c0,0.83-0.67,1.5-1.5,1.5l0,0C168.59,3.166,167.92,2.496,167.92,1.666z
		 M161.92,1.666c0-0.83,0.67-1.5,1.5-1.5l0,0c0.82,0,1.5,0.67,1.5,1.5l0,0c0,0.83-0.68,1.5-1.5,1.5l0,0
		C162.59,3.166,161.92,2.496,161.92,1.666z M155.92,1.666c0-0.83,0.67-1.5,1.5-1.5l0,0c0.82,0,1.5,0.67,1.5,1.5l0,0
		c0,0.83-0.68,1.5-1.5,1.5l0,0C156.59,3.166,155.92,2.496,155.92,1.666z M149.92,1.666c0-0.83,0.67-1.5,1.5-1.5l0,0
		c0.83,0,1.5,0.67,1.5,1.5l0,0c0,0.83-0.67,1.5-1.5,1.5l0,0C150.59,3.166,149.92,2.496,149.92,1.666z M143.92,1.666
		c0-0.83,0.67-1.5,1.5-1.5l0,0c0.82,0,1.5,0.67,1.5,1.5l0,0c0,0.83-0.68,1.5-1.5,1.5l0,0C144.59,3.166,143.92,2.496,143.92,1.666z
		 M137.92,1.666c0-0.83,0.67-1.5,1.5-1.5l0,0c0.82,0,1.5,0.67,1.5,1.5l0,0c0,0.83-0.68,1.5-1.5,1.5l0,0
		C138.59,3.166,137.92,2.496,137.92,1.666z M131.92,1.666c0-0.83,0.67-1.5,1.5-1.5l0,0c0.83,0,1.5,0.67,1.5,1.5l0,0
		c0,0.83-0.67,1.5-1.5,1.5l0,0C132.59,3.166,131.92,2.496,131.92,1.666z M125.92,1.666c0-0.83,0.67-1.5,1.5-1.5l0,0
		c0.83,0,1.5,0.67,1.5,1.5l0,0c0,0.83-0.67,1.5-1.5,1.5l0,0C126.59,3.166,125.92,2.496,125.92,1.666z M119.92,1.666
		c0-0.83,0.67-1.5,1.5-1.5l0,0c0.82,0,1.5,0.67,1.5,1.5l0,0c0,0.83-0.68,1.5-1.5,1.5l0,0C120.59,3.166,119.92,2.496,119.92,1.666z
		 M113.92,1.666c0-0.83,0.67-1.5,1.5-1.5l0,0c0.82,0,1.5,0.67,1.5,1.5l0,0c0,0.83-0.68,1.5-1.5,1.5l0,0
		C114.59,3.166,113.92,2.496,113.92,1.666z M107.92,1.666c0-0.83,0.67-1.5,1.5-1.5l0,0c0.83,0,1.5,0.67,1.5,1.5l0,0
		c0,0.83-0.67,1.5-1.5,1.5l0,0C108.59,3.166,107.92,2.496,107.92,1.666z M101.92,1.666c0-0.83,0.67-1.5,1.5-1.5l0,0
		c0.83,0,1.5,0.67,1.5,1.5l0,0c0,0.83-0.67,1.5-1.5,1.5l0,0C102.59,3.166,101.92,2.496,101.92,1.666z M95.92,1.666
		c0-0.83,0.67-1.5,1.5-1.5l0,0c0.82,0,1.5,0.67,1.5,1.5l0,0c0,0.83-0.68,1.5-1.5,1.5l0,0C96.59,3.166,95.92,2.496,95.92,1.666z
		 M89.92,1.666c0-0.83,0.67-1.5,1.5-1.5l0,0c0.83,0,1.5,0.67,1.5,1.5l0,0c0,0.83-0.67,1.5-1.5,1.5l0,0
		C90.59,3.166,89.92,2.496,89.92,1.666z M83.92,1.666c0-0.83,0.67-1.5,1.5-1.5l0,0c0.83,0,1.5,0.67,1.5,1.5l0,0
		c0,0.83-0.67,1.5-1.5,1.5l0,0C84.59,3.166,83.92,2.496,83.92,1.666z M77.92,1.666c0-0.83,0.67-1.5,1.5-1.5l0,0
		c0.82,0,1.5,0.67,1.5,1.5l0,0c0,0.83-0.68,1.5-1.5,1.5l0,0C78.59,3.166,77.92,2.496,77.92,1.666z M71.92,1.666
		c0-0.83,0.67-1.5,1.5-1.5l0,0c0.82,0,1.5,0.67,1.5,1.5l0,0c0,0.83-0.68,1.5-1.5,1.5l0,0C72.59,3.166,71.92,2.496,71.92,1.666z
		 M65.92,1.666c0-0.83,0.67-1.5,1.5-1.5l0,0c0.83,0,1.5,0.67,1.5,1.5l0,0c0,0.83-0.67,1.5-1.5,1.5l0,0
		C66.59,3.166,65.92,2.496,65.92,1.666z M59.92,1.666c0-0.83,0.67-1.5,1.5-1.5l0,0c0.83,0,1.5,0.67,1.5,1.5l0,0
		c0,0.83-0.67,1.5-1.5,1.5l0,0C60.59,3.166,59.92,2.496,59.92,1.666z M53.92,1.666c0-0.83,0.67-1.5,1.5-1.5l0,0
		c0.82,0,1.5,0.67,1.5,1.5l0,0c0,0.83-0.68,1.5-1.5,1.5l0,0C54.59,3.166,53.92,2.496,53.92,1.666z M47.92,1.666
		c0-0.83,0.67-1.5,1.5-1.5l0,0c0.83,0,1.5,0.67,1.5,1.5l0,0c0,0.83-0.67,1.5-1.5,1.5l0,0C48.59,3.166,47.92,2.496,47.92,1.666z
		 M41.92,1.666c0-0.83,0.67-1.5,1.5-1.5l0,0c0.83,0,1.5,0.67,1.5,1.5l0,0c0,0.83-0.67,1.5-1.5,1.5l0,0
		C42.59,3.166,41.92,2.496,41.92,1.666z M35.92,1.666c0-0.83,0.67-1.5,1.5-1.5l0,0c0.82,0,1.5,0.67,1.5,1.5l0,0
		c0,0.83-0.68,1.5-1.5,1.5l0,0C36.59,3.166,35.92,2.496,35.92,1.666z M29.92,1.666c0-0.83,0.67-1.5,1.5-1.5l0,0
		c0.82,0,1.5,0.67,1.5,1.5l0,0c0,0.83-0.68,1.5-1.5,1.5l0,0C30.59,3.166,29.92,2.496,29.92,1.666z M23.92,1.666
		c0-0.83,0.67-1.5,1.5-1.5l0,0c0.83,0,1.5,0.67,1.5,1.5l0,0c0,0.83-0.67,1.5-1.5,1.5l0,0C24.59,3.166,23.92,2.496,23.92,1.666z
		 M17.92,1.666c0-0.83,0.67-1.5,1.5-1.5l0,0c0.83,0,1.5,0.67,1.5,1.5l0,0c0,0.83-0.67,1.5-1.5,1.5l0,0
		C18.59,3.166,17.92,2.496,17.92,1.666z M11.92,1.666c0-0.83,0.67-1.5,1.5-1.5l0,0c0.82,0,1.5,0.67,1.5,1.5l0,0
		c0,0.83-0.68,1.5-1.5,1.5l0,0C12.59,3.166,11.92,2.496,11.92,1.666z M5.92,1.666c0-0.83,0.67-1.5,1.5-1.5l0,0
		c0.83,0,1.5,0.67,1.5,1.5l0,0c0,0.83-0.67,1.5-1.5,1.5l0,0C6.59,3.166,5.92,2.496,5.92,1.666z M-0.08,1.666
		c0-0.83,0.67-1.5,1.5-1.5l0,0c0.83,0,1.5,0.67,1.5,1.5l0,0c0,0.83-0.67,1.5-1.5,1.5l0,0C0.59,3.166-0.08,2.496-0.08,1.666z"/>
</g>
</svg>
