<svg xmlns="http://www.w3.org/2000/svg" width="35.266" height="55.5" viewBox="-5.066 -5.366 35.266 55.5" enable-background="new -5.066 -5.366 35.266 55.5"><circle fill="#fff" cx="16.35" cy="18.837" r="2.561"/><circle fill="#fff" cx="16.35" cy="-1.988" r="2.561"/><circle fill="#fff" cx="21.505" cy="3.372" r="2.561"/><circle fill="#fff" cx="21.505" cy="13.683" r="2.561"/><circle fill="#fff" cx="26.482" cy="8.425" r="2.561"/><circle fill="#EEDC00" cx="16.35" cy="47.572" r="2.561"/><circle fill="#EEDC00" cx="16.35" cy="26.745" r="2.561"/><circle fill="#EEDC00" cx="21.505" cy="32.106" r="2.561"/><circle fill="#EEDC00" cx="21.505" cy="42.417" r="2.561"/><circle fill="#EEDC00" cx="26.482" cy="37.158" r="2.561"/><circle fill="#fff" cx="8.627" cy="18.838" r="2.562"/><circle fill="#fff" cx="8.627" cy="-1.987" r="2.561"/><circle fill="#fff" cx="3.472" cy="3.372" r="2.561"/><circle fill="#fff" cx="3.472" cy="13.683" r="2.561"/><circle fill="#fff" cx="-1.506" cy="8.425" r="2.561"/><circle fill="#EEDC00" cx="8.627" cy="47.573" r="2.562"/><circle fill="#EEDC00" cx="8.627" cy="26.746" r="2.562"/><circle fill="#EEDC00" cx="3.472" cy="32.106" r="2.561"/><circle fill="#EEDC00" cx="3.472" cy="42.417" r="2.561"/><circle fill="#EEDC00" cx="-1.506" cy="37.159" r="2.561"/></svg>