<?xml version="1.0" encoding="utf-8"?>
<!-- Generator: Adobe Illustrator 16.0.4, SVG Export Plug-In . SVG Version: 6.00 Build 0)  -->
<!DOCTYPE svg PUBLIC "-//W3C//DTD SVG 1.1//EN" "http://www.w3.org/Graphics/SVG/1.1/DTD/svg11.dtd">
<svg version="1.1" id="Layer_1" xmlns="http://www.w3.org/2000/svg" xmlns:xlink="http://www.w3.org/1999/xlink" x="0px" y="0px"
	 width="250px" height="78px" viewBox="0 0 250 78" enable-background="new 0 0 250 78" xml:space="preserve">
<g>
	<path fill="#00A8E1" d="M139.143,76.902c2.888,0,4.714-1.597,4.714-4.852v-6.064h-2.363v6.156c0,1.705-0.875,2.58-2.319,2.58
		c-1.442,0-2.318-0.906-2.318-2.655v-6.081h-2.364v6.143C134.491,75.291,136.257,76.902,139.143,76.902 M148.264,76.733h2.333
		v-6.831l5.205,6.831h2.012V65.986h-2.335v6.618l-5.034-6.618h-2.181V76.733z M162.496,76.733h2.363V65.986h-2.363V76.733z
		 M172.967,76.811h2.088l4.348-10.824h-2.549l-2.811,7.569l-2.812-7.569h-2.608L172.967,76.811z M183.055,76.733h8.184v-2.103
		h-5.834v-2.258h5.065V70.27h-5.065v-2.179h5.757v-2.104h-8.106V76.733z M195.338,76.733h2.364v-3.438h1.858l2.303,3.438h2.765
		l-2.626-3.838c1.365-0.507,2.304-1.597,2.304-3.33v-0.031c0-1.016-0.325-1.858-0.922-2.457c-0.706-0.705-1.766-1.091-3.133-1.091
		h-4.913V76.733z M197.702,71.207V68.12h2.349c1.152,0,1.858,0.522,1.858,1.536v0.031c0,0.905-0.661,1.52-1.812,1.52H197.702z
		 M212.257,76.888c2.319,0,3.946-1.198,3.946-3.332v-0.031c0-1.872-1.228-2.655-3.408-3.224c-1.857-0.476-2.317-0.706-2.317-1.413
		v-0.029c0-0.522,0.476-0.938,1.381-0.938c0.906,0,1.843,0.401,2.795,1.06l1.228-1.779c-1.09-0.876-2.425-1.367-3.992-1.367
		c-2.195,0-3.759,1.29-3.759,3.239v0.031c0,2.134,1.394,2.732,3.56,3.285c1.797,0.461,2.165,0.769,2.165,1.367v0.031
		c0,0.629-0.583,1.013-1.551,1.013c-1.229,0-2.241-0.508-3.209-1.307l-1.396,1.675C208.988,76.32,210.63,76.888,212.257,76.888
		 M220.364,76.733h2.365V65.986h-2.365V76.733z M229.915,76.733h2.363v-8.566h3.272v-2.181h-8.905v2.181h3.27V76.733z
		 M242.381,76.733h2.364V72.45l4.13-6.464h-2.686l-2.611,4.314l-2.563-4.314h-2.763l4.129,6.511V76.733z"/>
</g>
<g>
	<path fill="#00A8E1" d="M98.641,19.5c0.115-6.68-5.109-9.972-5.029-14.73c0.027-1.647,0.351-3.513,1.537-4.661
		c-2.494-0.04-5.996,3.151-6.083,8.276c-0.101,6.008,4.736,9.691,4.625,16.372c-0.033,1.8-0.478,3.379-1.299,4.708
		C97.428,26.358,98.607,21.605,98.641,19.5 M86.965,7.856c-1.28,0.932-3.624,3.406-3.68,6.762
		c-0.112,6.733,6.273,9.419,8.085,14.798l0.015,0.03c0.029,0.02,1.313-1.861,1.357-4.539C92.877,16.899,84.812,12.714,86.965,7.856"
		/>
</g>
<g>
	<path fill="#FFFFFF" d="M180.273,32.949h-5.981V23.47h-2.546c0,5.917-1.589,10.371-7.571,11.39v2.29h4.327v13.236
		c0,2.481-0.891,12.663,8.971,12.663c0.701,0,1.399-0.127,2.037-0.317l3.372-4.52c-0.827,0.319-1.654,0.638-2.546,0.638
		c-6.807,0-6.044-6.556-6.044-8.973V37.149h3.817c1.655,0,3.562-0.126,4.581,1.209h0.191v-5.79h-0.191
		C182.055,32.949,181.1,32.949,180.273,32.949z"/>
	<path fill="#FFFFFF" d="M246.206,55.221v-9.227c0-2.99,0.191-6.936-1.591-9.48c-2.036-2.991-6.107-4.39-9.671-4.39
		c-4.135,0-6.747,1.844-8.973,4.899v-4.899h-0.191c-1.337,0.763-2.862,0.825-4.263,0.825h-3.753v0.192
		c2.799,1.59,2.418,3.946,2.418,6.873v15.144c0,2.927,0.381,5.28-2.418,6.871v0.192h10.626v-0.192
		c-2.8-1.591-2.419-3.882-2.419-6.808V43.959c0-3.756,0.953-7.637,6.745-7.637c5.791,0,7.699,3.5,7.699,10.309v8.59
		c0,2.863,0.381,5.217-2.417,6.808v0.192h10.626v-0.192C245.823,60.438,246.206,58.146,246.206,55.221z"/>
	<path fill="#FFFFFF" d="M23.778,57.957c-9.8,0-16.162-8.335-16.162-17.69c0-9.225,6.107-15.652,14.889-15.652
		c4.201,0,8.272,1.399,11.772,3.626v-7.318c-3.754-0.891-7.7-1.591-11.581-1.591c-13.044,0-22.334,8.718-22.334,21.891
		c0,13.617,9.29,22.017,24.306,22.017c3.31,0,6.618-0.509,9.608-1.911l3.246-7.38h-0.191C33.323,56.239,28.55,57.957,23.778,57.957z
		"/>
	<path fill="#FFFFFF" d="M71.199,32.124c-9.48,0-15.908,6.427-15.908,15.271c0,8.845,7.445,15.653,18.262,15.653
		c2.992,0,6.044-0.446,8.782-1.591l3.182-5.981h-0.191c-2.928,2.291-6.617,3.373-10.436,3.373c-7.191,0-12.6-4.519-12.726-12.282
		h23.352C85.771,38.358,79.854,32.124,71.199,32.124z M62.419,42.876c0.763-4.008,3.946-6.554,8.208-6.554
		c4.582,0,7.509,2.1,8.208,6.554H62.419z"/>
	<path fill="#FFFFFF" d="M130.445,35.431l1.464-3.308h-19.153c-6.555,0-13.68,3.435-13.68,10.816c0,4.773,3.817,8.909,8.398,9.8
		c-1.335,0.637-5.028,1.527-5.028,3.371c0,2.292,1.848,4.582,4.647,4.52l4.391-0.127c3.881,0,12.98,0.316,12.98,5.917
		c0,5.345-7.063,6.555-11.262,6.555c-4.136,0-10.5-0.956-10.5-6.3c0-1.654,0.827-2.545,2.418-2.863
		c-1.209-0.572-2.291-0.829-3.628-0.829c-3.245,0-6.108,1.592-6.108,5.155c0,5.409,8.273,9.035,17.626,9.035
		c9.925,0,17.88-4.008,17.88-11.2c0-6.298-5.854-9.288-16.862-9.288c-0.826,0-3.817,0.189-3.817-1.209
		c0-1.084,1.718-1.654,2.608-1.718c5.791-0.51,13.554-2.737,13.554-9.926c0-3.247-1.846-5.982-4.517-7.701
		c2.162,0.318,4.325,0.828,6.552,0.828C129.809,36.959,129.936,36.577,130.445,35.431z M113.328,49.558
		c-4.135,0-7.826-3.499-7.826-7.636c0-3.691,2.99-5.6,6.491-5.6c4.518,0,7.953,2.991,7.953,7.062
		C119.946,47.076,117.146,49.558,113.328,49.558z"/>
	<path fill="#FFFFFF" d="M161.331,55.157V43.576c0-6.172-2.1-11.453-10.881-11.453c-3.117,0-7.445,1.271-9.354,4.008V16.488h-0.191
		c-0.89,1.02-2.418,1.02-3.88,1.02h-4.137v0.191c2.8,1.59,2.418,3.945,2.418,6.872v30.586c0,2.927,0.382,5.28-2.418,6.871v0.192
		h10.627v-0.192c-2.801-1.591-2.419-3.944-2.419-6.871V45.104c0-5.664,1.718-8.781,7.317-8.781c5.474,0,7.127,4.008,7.127,9.164
		v9.671c0,2.927,0.446,5.28-2.354,6.871v0.192h10.563v-0.192C160.948,60.438,161.331,58.084,161.331,55.157z"/>
	<path fill="#FFFFFF" d="M98.353,62.028c-2.801-1.591-2.419-3.944-2.419-6.871V31.931h-0.19c-1.082,0.956-2.673,1.018-4.137,1.018
		h-3.882v0.192c2.8,1.59,2.417,3.881,2.417,6.809v15.208c0,2.927,0.382,5.28-2.417,6.871v0.192h10.627V62.028z"/>
	<path fill="#FFFFFF" d="M210.7,35.876c-3.054-2.672-6.554-3.752-10.626-3.752c-9.162,0-16.862,6.172-16.862,15.716
		c0,9.034,7.382,15.208,16.1,15.208c8.972,0,16.607-6.617,16.607-15.78C215.919,42.939,213.946,38.741,210.7,35.876z
		 M199.629,58.849c-6.489,0-9.989-6.299-9.989-12.154c0-5.726,3.816-10.372,9.734-10.372c6.81,0,10.119,6.109,10.119,12.281
		C209.493,54.33,205.482,58.849,199.629,58.849z"/>
	<g>
		<path fill="#FFFFFF" d="M59.123,33.096c-1.69-1.206-4.479-1.935-7.411-1.106c-2.586,0.731-4.212,2.106-5.613,4.97v-4.836h-0.19
			c-0.891,0.763-2.418,0.825-3.882,0.825h-4.072v0.192c2.736,1.59,2.354,3.881,2.354,6.809v15.208c0,2.927,0.381,5.28-2.418,6.871
			v0.192h10.626v-0.192c-2.8-1.591-2.418-3.944-2.418-6.871v-8.909c0-6.553,2.036-9.099,6.873-9.099
			c0.729,0,1.484,0.124,2.117,0.434C56.15,35.854,57.509,34.342,59.123,33.096z"/>
	</g>
</g>
</svg>
