<svg id="Layer_1" data-name="Layer 1" xmlns="http://www.w3.org/2000/svg" viewBox="0 0 108 108"><defs><style>.cls-1{fill:#ccc;}.cls-2{fill:#fff;}.cls-3{fill:#73b865;}</style></defs><title>mobile-content-arrows</title><g id="_Group_" data-name="&lt;Group&gt;"><circle id="_Path_" data-name="&lt;Path&gt;" class="cls-1" cx="27" cy="27" r="27"/><g id="_Group_2" data-name="&lt;Group&gt;"><circle id="_Path_2" data-name="&lt;Path&gt;" class="cls-2" cx="28.16" cy="18.73" r="2.2"/><circle id="_Path_3" data-name="&lt;Path&gt;" class="cls-2" cx="28.16" cy="36.34" r="2.2"/><circle id="_Path_4" data-name="&lt;Path&gt;" class="cls-2" cx="23.76" cy="31.84" r="2.2"/><circle id="_Path_5" data-name="&lt;Path&gt;" class="cls-2" cx="23.76" cy="23.03" r="2.2"/><circle id="_Path_6" data-name="&lt;Path&gt;" class="cls-2" cx="19.56" cy="27.53" r="2.2"/></g></g><g id="_Group_3" data-name="&lt;Group&gt;"><circle id="_Path_7" data-name="&lt;Path&gt;" class="cls-1" cx="81" cy="27" r="27"/><g id="_Group_4" data-name="&lt;Group&gt;"><circle id="_Path_8" data-name="&lt;Path&gt;" class="cls-2" cx="79.23" cy="36.07" r="2.2"/><circle id="_Path_9" data-name="&lt;Path&gt;" class="cls-2" cx="79.23" cy="18.46" r="2.2"/><circle id="_Path_10" data-name="&lt;Path&gt;" class="cls-2" cx="83.64" cy="22.96" r="2.2"/><circle id="_Path_11" data-name="&lt;Path&gt;" class="cls-2" cx="83.64" cy="31.77" r="2.2"/><circle id="_Path_12" data-name="&lt;Path&gt;" class="cls-2" cx="87.84" cy="27.27" r="2.2"/></g></g><g id="_Group_5" data-name="&lt;Group&gt;"><circle id="_Path_13" data-name="&lt;Path&gt;" class="cls-3" cx="27" cy="81" r="27"/><g id="_Group_6" data-name="&lt;Group&gt;"><circle id="_Path_14" data-name="&lt;Path&gt;" class="cls-2" cx="27.11" cy="72.19" r="2.2"/><circle id="_Path_15" data-name="&lt;Path&gt;" class="cls-2" cx="27.11" cy="89.81" r="2.2"/><circle id="_Path_16" data-name="&lt;Path&gt;" class="cls-2" cx="22.71" cy="85.3" r="2.2"/><circle id="_Path_17" data-name="&lt;Path&gt;" class="cls-2" cx="22.71" cy="76.5" r="2.2"/><circle id="_Path_18" data-name="&lt;Path&gt;" class="cls-2" cx="18.5" cy="81" r="2.2"/></g></g><g id="_Group_7" data-name="&lt;Group&gt;"><circle id="_Path_19" data-name="&lt;Path&gt;" class="cls-3" cx="81" cy="81" r="27"/><g id="_Group_8" data-name="&lt;Group&gt;"><circle id="_Path_20" data-name="&lt;Path&gt;" class="cls-2" cx="78.88" cy="89.81" r="2.2"/><circle id="_Path_21" data-name="&lt;Path&gt;" class="cls-2" cx="78.88" cy="72.19" r="2.2"/><circle id="_Path_22" data-name="&lt;Path&gt;" class="cls-2" cx="83.29" cy="76.7" r="2.2"/><circle id="_Path_23" data-name="&lt;Path&gt;" class="cls-2" cx="83.29" cy="85.5" r="2.2"/><circle id="_Path_24" data-name="&lt;Path&gt;" class="cls-2" cx="87.49" cy="81" r="2.2"/></g></g></svg>