<?xml version="1.0" encoding="utf-8"?>
<!-- Generator: Adobe Illustrator 16.0.4, SVG Export Plug-In . SVG Version: 6.00 Build 0)  -->
<!DOCTYPE svg PUBLIC "-//W3C//DTD SVG 1.1//EN" "http://www.w3.org/Graphics/SVG/1.1/DTD/svg11.dtd">
<svg version="1.1" id="Layer_1" xmlns="http://www.w3.org/2000/svg" xmlns:xlink="http://www.w3.org/1999/xlink" x="0px" y="0px"
	 width="316px" height="95.333px" viewBox="0 0 316 95.333" enable-background="new 0 0 316 95.333" xml:space="preserve">
<g>
	<g>
		<path fill="#B9975B" d="M125.794,48.551"/>
	</g>
</g>
<g>
	<path fill="#FFFFFF" stroke="#000000" stroke-miterlimit="10" d="M8.625,97"/>
</g>
<g>
	<path fill="#B9975B" d="M208.51,88.923c-0.05-0.83,0.59-1.535,1.42-1.575l0,0c0.82-0.04,1.53,0.583,1.57,1.413l0,0
		c0.05,0.83-0.59,1.572-1.42,1.572l0,0c-0.021,0-0.05,0-0.08,0l0,0C209.21,90.333,208.55,89.723,208.51,88.923z M201.5,88.833
		c0-0.83,0.67-1.5,1.5-1.5l0,0c0.83,0,1.5,0.67,1.5,1.5l0,0c0,0.83-0.67,1.5-1.5,1.5l0,0C202.17,90.333,201.5,89.664,201.5,88.833z
		 M194.5,88.833c0-0.83,0.67-1.5,1.5-1.5l0,0c0.83,0,1.5,0.67,1.5,1.5l0,0c0,0.83-0.67,1.5-1.5,1.5l0,0
		C195.17,90.333,194.5,89.664,194.5,88.833z M187.5,88.833c0-0.83,0.67-1.5,1.5-1.5l0,0c0.83,0,1.5,0.67,1.5,1.5l0,0
		c0,0.83-0.67,1.5-1.5,1.5l0,0C188.17,90.333,187.5,89.664,187.5,88.833z M180.5,88.833c0-0.83,0.67-1.5,1.5-1.5l0,0
		c0.83,0,1.5,0.67,1.5,1.5l0,0c0,0.83-0.67,1.5-1.5,1.5l0,0C181.17,90.333,180.5,89.664,180.5,88.833z M173.5,88.833
		c0-0.83,0.67-1.5,1.5-1.5l0,0c0.83,0,1.5,0.67,1.5,1.5l0,0c0,0.83-0.67,1.5-1.5,1.5l0,0C174.17,90.333,173.5,89.664,173.5,88.833z
		 M166.5,88.833c0-0.83,0.67-1.5,1.5-1.5l0,0c0.83,0,1.5,0.67,1.5,1.5l0,0c0,0.83-0.67,1.5-1.5,1.5l0,0
		C167.17,90.333,166.5,89.664,166.5,88.833z M159.5,88.833c0-0.83,0.67-1.5,1.5-1.5l0,0c0.83,0,1.5,0.67,1.5,1.5l0,0
		c0,0.83-0.67,1.5-1.5,1.5l0,0C160.17,90.333,159.5,89.664,159.5,88.833z M152.5,88.833c0-0.83,0.67-1.5,1.5-1.5l0,0
		c0.83,0,1.5,0.67,1.5,1.5l0,0c0,0.83-0.67,1.5-1.5,1.5l0,0C153.17,90.333,152.5,89.664,152.5,88.833z M145.5,88.833
		c0-0.83,0.67-1.5,1.5-1.5l0,0c0.83,0,1.5,0.67,1.5,1.5l0,0c0,0.83-0.67,1.5-1.5,1.5l0,0C146.17,90.333,145.5,89.664,145.5,88.833z
		 M138.5,88.833c0-0.83,0.67-1.5,1.5-1.5l0,0c0.83,0,1.5,0.67,1.5,1.5l0,0c0,0.83-0.67,1.5-1.5,1.5l0,0
		C139.17,90.333,138.5,89.664,138.5,88.833z M131.5,88.833c0-0.83,0.67-1.5,1.5-1.5l0,0c0.83,0,1.5,0.67,1.5,1.5l0,0
		c0,0.83-0.67,1.5-1.5,1.5l0,0C132.17,90.333,131.5,89.664,131.5,88.833z M124.5,88.833c0-0.83,0.67-1.5,1.5-1.5l0,0
		c0.83,0,1.5,0.67,1.5,1.5l0,0c0,0.83-0.67,1.5-1.5,1.5l0,0C125.17,90.333,124.5,89.664,124.5,88.833z M117.5,88.833
		c0-0.83,0.67-1.5,1.5-1.5l0,0c0.83,0,1.5,0.67,1.5,1.5l0,0c0,0.83-0.67,1.5-1.5,1.5l0,0C118.17,90.333,117.5,89.664,117.5,88.833z
		 M110.5,88.833c0-0.83,0.67-1.5,1.5-1.5l0,0c0.83,0,1.5,0.67,1.5,1.5l0,0c0,0.83-0.67,1.5-1.5,1.5l0,0
		C111.17,90.333,110.5,89.664,110.5,88.833z M103.5,88.833c0-0.83,0.67-1.5,1.5-1.5l0,0c0.83,0,1.5,0.67,1.5,1.5l0,0
		c0,0.83-0.67,1.5-1.5,1.5l0,0C104.17,90.333,103.5,89.664,103.5,88.833z M96.5,88.833c0-0.83,0.67-1.5,1.5-1.5l0,0
		c0.83,0,1.5,0.67,1.5,1.5l0,0c0,0.83-0.67,1.5-1.5,1.5l0,0C97.17,90.333,96.5,89.664,96.5,88.833z M89.5,88.833
		c0-0.83,0.67-1.5,1.5-1.5l0,0c0.83,0,1.5,0.67,1.5,1.5l0,0c0,0.83-0.67,1.5-1.5,1.5l0,0C90.17,90.333,89.5,89.664,89.5,88.833z
		 M82.5,88.833c0-0.83,0.67-1.5,1.5-1.5l0,0c0.83,0,1.5,0.67,1.5,1.5l0,0c0,0.83-0.67,1.5-1.5,1.5l0,0
		C83.17,90.333,82.5,89.664,82.5,88.833z M75.5,88.833c0-0.83,0.67-1.5,1.5-1.5l0,0c0.83,0,1.5,0.67,1.5,1.5l0,0
		c0,0.83-0.67,1.5-1.5,1.5l0,0C76.17,90.333,75.5,89.664,75.5,88.833z M68.5,88.833c0-0.83,0.67-1.5,1.5-1.5l0,0
		c0.83,0,1.5,0.67,1.5,1.5l0,0c0,0.83-0.67,1.5-1.5,1.5l0,0C69.17,90.333,68.5,89.664,68.5,88.833z M61.5,88.833
		c0-0.83,0.67-1.5,1.5-1.5l0,0c0.83,0,1.5,0.67,1.5,1.5l0,0c0,0.83-0.67,1.5-1.5,1.5l0,0C62.17,90.333,61.5,89.664,61.5,88.833z
		 M54.5,88.833c0-0.83,0.67-1.5,1.5-1.5l0,0c0.83,0,1.5,0.67,1.5,1.5l0,0c0,0.83-0.67,1.5-1.5,1.5l0,0
		C55.17,90.333,54.5,89.664,54.5,88.833z M47.5,88.833c0-0.83,0.67-1.5,1.5-1.5l0,0c0.83,0,1.5,0.67,1.5,1.5l0,0
		c0,0.83-0.67,1.5-1.5,1.5l0,0C48.17,90.333,47.5,89.664,47.5,88.833z M40.5,88.833c0-0.83,0.67-1.5,1.5-1.5l0,0
		c0.83,0,1.5,0.67,1.5,1.5l0,0c0,0.83-0.67,1.5-1.5,1.5l0,0C41.17,90.333,40.5,89.664,40.5,88.833z M33.5,88.833
		c0-0.83,0.67-1.5,1.5-1.5l0,0c0.83,0,1.5,0.67,1.5,1.5l0,0c0,0.83-0.67,1.5-1.5,1.5l0,0C34.17,90.333,33.5,89.664,33.5,88.833z
		 M26.5,88.833c0-0.83,0.67-1.5,1.5-1.5l0,0c0.83,0,1.5,0.67,1.5,1.5l0,0c0,0.83-0.67,1.5-1.5,1.5l0,0
		C27.17,90.333,26.5,89.664,26.5,88.833z M19.5,88.833c0-0.83,0.67-1.5,1.5-1.5l0,0c0.83,0,1.5,0.67,1.5,1.5l0,0
		c0,0.83-0.67,1.5-1.5,1.5l0,0C20.17,90.333,19.5,89.664,19.5,88.833z M12.5,88.833c0-0.83,0.67-1.5,1.5-1.5l0,0
		c0.83,0,1.5,0.67,1.5,1.5l0,0c0,0.83-0.67,1.5-1.5,1.5l0,0C13.17,90.333,12.5,89.664,12.5,88.833z M5.5,88.833
		c0-0.83,0.67-1.5,1.5-1.5l0,0c0.83,0,1.5,0.67,1.5,1.5l0,0c0,0.83-0.67,1.5-1.5,1.5l0,0C6.17,90.333,5.5,89.664,5.5,88.833z
		 M215.49,88.313c-0.15-0.819,0.39-1.6,1.199-1.75l0,0l0,0l0,0c0.82-0.149,1.601,0.391,1.75,1.2l0,0
		c0.15,0.811-0.39,1.601-1.199,1.75l0,0c-0.091,0.021-0.19,0.021-0.28,0.021l0,0C216.25,89.534,215.62,89.034,215.49,88.313z
		 M222.319,86.753c-0.27-0.78,0.141-1.64,0.921-1.91l0,0c0.79-0.27,1.64,0.14,1.909,0.93l0,0c0.271,0.78-0.14,1.63-0.92,1.9l0,0
		c-0.16,0.06-0.33,0.09-0.489,0.09l0,0C223.12,87.763,222.53,87.374,222.319,86.753z M228.81,84.124
		c-0.42-0.721-0.17-1.63,0.55-2.05l0,0c0.71-0.41,1.631-0.16,2.051,0.55l0,0c0.409,0.72,0.159,1.64-0.561,2.05l0,0
		c-0.229,0.14-0.49,0.2-0.74,0.2l0,0C229.59,84.874,229.08,84.603,228.81,84.124z M234.779,80.273c-0.57-0.61-0.779-1.56,0.221-2.12
		l0,0c0,0,0,0,0-0.01l0,0c0-0.56,1.41-0.52,1.98,0.08l0,0c0.559,0.61,0.449,1.56-0.15,2.12l0,0c-0.29,0.27-0.625,0.41-0.984,0.41
		l0,0C235.436,80.753,235.07,80.583,234.779,80.273z M239.41,75.173c-0.69-0.45-0.891-1.38-0.44-2.08l0,0
		c0.46-0.69,1.38-0.89,2.08-0.43l0,0c0.69,0.45,0.89,1.38,0.44,2.07l0,0c-0.29,0.44-0.771,0.68-1.261,0.68l0,0
		C239.95,75.413,239.66,75.343,239.41,75.173z M242.81,69.083c-0.77-0.29-1.17-1.15-0.89-1.92l0,0c0.28-0.78,1.14-1.18,1.92-0.9l0,0
		c0.78,0.28,1.18,1.14,0.9,1.92l0,0c-0.221,0.61-0.801,0.99-1.41,0.99l0,0C243.16,69.173,242.979,69.144,242.81,69.083z
		 M244.819,62.394c-0.819-0.13-1.38-0.9-1.25-1.72l0,0c0.131-0.82,0.91-1.37,1.721-1.24l0,0c0.819,0.13,1.38,0.9,1.25,1.72l0,0
		c-0.12,0.73-0.76,1.26-1.48,1.26l0,0C244.979,62.413,244.899,62.403,244.819,62.394z M245.609,55.333
		c-0.819,0-1.489-0.63-1.479-1.46l0,0c0.01-0.83,0.689-1.46,1.52-1.45l0,0c0.83,0.01,1.49,0.646,1.48,1.475l0,0
		c-0.01,0.82-0.68,1.435-1.5,1.435l0,0C245.62,55.333,245.62,55.333,245.609,55.333z M245.74,48.333c-0.82,0-1.44-0.715-1.391-1.535
		l0,0c0.061-0.83,0.78-1.418,1.61-1.357l0,0c0.82,0.06,1.45,0.721,1.39,1.551l0,0c-0.06,0.79-0.72,1.341-1.5,1.341l0,0
		C245.819,48.333,245.78,48.333,245.74,48.333z M246.439,41.503c-0.819-0.15-1.359-0.93-1.21-1.74l0,0
		c0.15-0.82,0.931-1.36,1.75-1.21l0,0c0.811,0.15,1.351,0.93,1.2,1.75l0,0c-0.13,0.72-0.76,1.23-1.47,1.23l0,0
		C246.62,41.533,246.53,41.523,246.439,41.503z M247.97,34.693c-0.79-0.28-1.2-1.13-0.92-1.91l0,0c0.27-0.79,1.13-1.2,1.91-0.92l0,0
		c0.78,0.27,1.189,1.13,0.92,1.91l0,0c-0.22,0.62-0.8,1-1.42,1l0,0C248.3,34.773,248.13,34.753,247.97,34.693z M250.66,28.253
		c-0.7-0.44-0.91-1.37-0.471-2.07l0,0c0.44-0.7,1.37-0.91,2.07-0.47l0,0c0.7,0.44,0.91,1.37,0.47,2.07l0,0
		c-0.29,0.45-0.779,0.7-1.27,0.7l0,0C251.18,28.483,250.91,28.413,250.66,28.253z M254.83,22.663c-0.55-0.62-0.49-1.57,0.13-2.11
		l0,0l0,0l0,0c0.62-0.55,1.57-0.72,2.12-0.1l0,0c0.54,0.62,0.479,1.88-0.141,1.88h0.011c-0.29,1-0.641,0.61-1,0.61l0,0
		C255.54,22.943,255.12,23.003,254.83,22.663z M260.42,18.503c-0.351-0.75-0.04-1.64,0.71-2l0,0l0,0l0,0c0.75-0.36,1.64-0.04,2,0.71
		l0,0c0.35,0.75,0.04,1.64-0.71,2l0,0c-0.21,0.1-0.43,0.15-0.64,0.15l0,0C261.22,19.363,260.68,19.043,260.42,18.503z
		 M266.91,15.923c-0.19-0.81,0.3-1.62,1.109-1.81l0,0l0,0l0,0c0.8-0.2,1.61,0.3,1.811,1.1l0,0c0.189,0.81-0.3,1.62-1.101,1.81l0,0
		c-0.12,0.03-0.239,0.05-0.359,0.05l0,0C267.7,17.073,267.08,16.613,266.91,15.923z M273.78,14.573
		c-0.091-0.83,0.51-1.57,1.329-1.66l0,0l0,0l0,0c0.82-0.09,1.346,0.51,1.436,1.34l0,0c0.09,0.82-0.545,1.56-1.545,1.64v0.01
		c0,0,0.104,0.01,0.055,0.01l0,0C274.295,15.913,273.859,15.333,273.78,14.573z M280.76,13.938c-0.03-0.83,0.62-1.492,1.44-1.522
		l0,0c0.83-0.03,1.529,0.579,1.56,1.409l0,0c0.021,0.83-0.63,1.509-1.45,1.509l0,0c-0.02,0-0.04,0-0.06,0l0,0
		C281.45,15.333,280.78,14.749,280.76,13.938z M287.76,13.843c-0.01-0.83,0.66-1.5,1.49-1.51l0,0c0.83,0,1.5,0.67,1.5,1.5l0,0
		c0.01,0.83-0.66,1.5-1.49,1.5l0,0C288.43,15.333,287.76,14.663,287.76,13.843z M308.74,13.833c0-0.83,0.67-1.5,1.5-1.5l0,0l0,0l0,0
		c0.819,0,1.5,0.67,1.5,1.5l0,0c0,0.83-0.681,1.5-1.5,1.5l0,0C309.41,15.333,308.74,14.663,308.74,13.833z M301.75,13.833
		c0-0.83,0.67-1.5,1.5-1.5l0,0l0,0l0,0c0.83,0,1.5,0.67,1.5,1.5l0,0c0,0.83-0.67,1.5-1.5,1.5l0,0
		C302.42,15.333,301.75,14.663,301.75,13.833z M294.75,13.833c0-0.83,0.67-1.5,1.5-1.5l0,0l0,0l0,0c0.83,0,1.5,0.67,1.5,1.5l0,0
		c0,0.83-0.67,1.5-1.5,1.5l0,0C295.42,15.333,294.75,14.663,294.75,13.833z"/>
</g>
<g>
	<ellipse fill="#FFFFFF" cx="311.167" cy="14.762" rx="4.037" ry="4.012"/>
	<path fill="#B9975B" d="M311.166,19.773c-2.777,0-5.036-2.248-5.036-5.012s2.259-5.012,5.036-5.012s5.037,2.249,5.037,5.012
		S313.943,19.773,311.166,19.773z M311.166,11.75c-1.674,0-3.036,1.351-3.036,3.012c0,1.661,1.362,3.012,3.036,3.012
		c1.675,0,3.037-1.351,3.037-3.012C314.203,13.101,312.841,11.75,311.166,11.75z"/>
</g>
<g>
	<ellipse fill="#FFFFFF" cx="6.146" cy="89.417" rx="4.037" ry="4.012"/>
	<path fill="#B9975B" d="M6.146,94.429c-2.777,0-5.037-2.248-5.037-5.012s2.259-5.013,5.037-5.013s5.037,2.249,5.037,5.013
		S8.923,94.429,6.146,94.429z M6.146,86.405c-1.674,0-3.037,1.352-3.037,3.013s1.362,3.012,3.037,3.012
		c1.675,0,3.037-1.351,3.037-3.012S7.821,86.405,6.146,86.405z"/>
</g>
</svg>
