<?xml version="1.0" encoding="utf-8"?>
<!-- Generator: Adobe Illustrator 18.0.0, SVG Export Plug-In . SVG Version: 6.00 Build 0)  -->
<!DOCTYPE svg PUBLIC "-//W3C//DTD SVG 1.1//EN" "http://www.w3.org/Graphics/SVG/1.1/DTD/svg11.dtd">
<svg version="1.1" id="Layer_1" xmlns="http://www.w3.org/2000/svg" xmlns:xlink="http://www.w3.org/1999/xlink" x="0px" y="0px"
	 width="21px" height="21px" viewBox="0 0 21 21" enable-background="new 0 0 21 21" xml:space="preserve">
<path fill="#002E6D" d="M16.1,8.7c0-4-3.3-7.3-7.3-7.3S1.4,4.7,1.4,8.7c0,4,3.3,7.3,7.3,7.3S16.1,12.8,16.1,8.7z M8.7,13.6
	c-2.7,0-4.8-2.2-4.8-4.8c0-2.7,2.2-4.8,4.8-4.8c2.7,0,4.8,2.2,4.8,4.8C13.6,11.4,11.4,13.6,8.7,13.6z M19.2,17.5l-3.7-3.7
	c-0.5,0.7-1.1,1.3-1.8,1.8l3.7,3.7c0.2,0.2,0.6,0.4,0.9,0.4c0.3,0,0.6-0.1,0.9-0.4C19.7,18.7,19.7,18,19.2,17.5z"/>
</svg>
