<?xml version="1.0" encoding="utf-8"?>
<!-- Generator: Adobe Illustrator 16.0.4, SVG Export Plug-In . SVG Version: 6.00 Build 0)  -->
<!DOCTYPE svg PUBLIC "-//W3C//DTD SVG 1.1//EN" "http://www.w3.org/Graphics/SVG/1.1/DTD/svg11.dtd">
<svg version="1.1" id="Layer_1" xmlns="http://www.w3.org/2000/svg" xmlns:xlink="http://www.w3.org/1999/xlink" x="0px" y="0px"
	 width="21px" height="21px" viewBox="0 0 21 21" enable-background="new 0 0 21 21" xml:space="preserve">
<path fill="#00263E" d="M16.057,8.734c0-4.037-3.285-7.322-7.322-7.322S1.413,4.697,1.413,8.734c0,4.038,3.284,7.323,7.321,7.323
	C12.771,16.057,16.057,12.771,16.057,8.734z M8.734,13.58c-2.672,0-4.845-2.173-4.845-4.845c0-2.671,2.173-4.845,4.845-4.845
	c2.67,0,4.845,2.173,4.845,4.845C13.579,11.406,11.404,13.58,8.734,13.58z M19.227,17.475l-3.677-3.676
	c-0.495,0.665-1.085,1.256-1.751,1.751l3.676,3.675c0.241,0.242,0.56,0.363,0.877,0.363c0.314,0,0.633-0.121,0.875-0.363
	C19.709,18.742,19.709,17.957,19.227,17.475z"/>
</svg>
