<svg xmlns="http://www.w3.org/2000/svg" width="21" height="21"><path fill="#fff" d="M16.057 8.734c0-4.037-3.285-7.322-7.322-7.322s-7.322 3.285-7.322 7.322c0 4.038 3.284 7.322 7.321 7.322s7.323-3.284 7.323-7.322zm-7.323 4.846c-2.672 0-4.845-2.173-4.845-4.845 0-2.671 2.173-4.845 4.845-4.845 2.671 0 4.845 2.173 4.845 4.845 0 2.671-2.174 4.845-4.845 4.845zm10.492 3.894l-3.676-3.675c-.495.665-1.085 1.255-1.751 1.751l3.675 3.675c.242.242.56.363.877.363.315 0 .633-.121.875-.363.483-.483.483-1.268 0-1.751z"/></svg>