<svg id="Layer_1" data-name="Layer 1" xmlns="http://www.w3.org/2000/svg" viewBox="0 0 208 52"><defs><style>.cls-1{fill:#0054a6;}</style></defs><title>social-media-blue-circles</title><path id="_Compound_Path_" data-name="&lt;Compound Path&gt;" class="cls-1" d="M26,0A26,26,0,1,0,52,26,26,26,0,0,0,26,0Zm5.57,26H27.93V39h-5.4V26H20V21.42h2.57v-3c0-2.13,1-5.45,5.45-5.45l4,0v4.46h-2.9a1.1,1.1,0,0,0-1.15,1.25v2.7H32Z"/><path id="_Compound_Path_2" data-name="&lt;Compound Path&gt;" class="cls-1" d="M78,0a26,26,0,1,0,26,26A26,26,0,0,0,78,0ZM88.34,20.7c0,0.23,0,.46,0,0.69A15.17,15.17,0,0,1,65,34.17a11.25,11.25,0,0,0,1.27.07A10.69,10.69,0,0,0,72.9,32a5.34,5.34,0,0,1-5-3.7,5.48,5.48,0,0,0,1,.1,5.38,5.38,0,0,0,1.4-.19A5.34,5.34,0,0,1,66,22.93V22.87a5.33,5.33,0,0,0,2.42.67,5.34,5.34,0,0,1-1.65-7.12A15.14,15.14,0,0,0,77.8,22a5.34,5.34,0,0,1,9.09-4.87,10.64,10.64,0,0,0,3.39-1.29,5.35,5.35,0,0,1-2.35,3A10.65,10.65,0,0,0,91,17.94,10.82,10.82,0,0,1,88.34,20.7Z"/><g id="_Group_" data-name="&lt;Group&gt;"><path id="_Path_" data-name="&lt;Path&gt;" class="cls-1" d="M181.77,22a0.67,0.67,0,0,0,.48-0.16,0.6,0.6,0,0,0,.18-0.46V17.47a0.47,0.47,0,0,0-.18-0.38,0.73,0.73,0,0,0-.48-0.15,0.65,0.65,0,0,0-.44.15,0.49,0.49,0,0,0-.17.38v3.95a0.63,0.63,0,0,0,.16.46A0.58,0.58,0,0,0,181.77,22Z"/><path id="_Compound_Path_3" data-name="&lt;Compound Path&gt;" class="cls-1" d="M185.22,29.33a1.3,1.3,0,0,0-.61.16,2.12,2.12,0,0,0-.56.46V27.07h-1.33V36H184v-0.5a1.68,1.68,0,0,0,.56.44,1.53,1.53,0,0,0,.69.14,1.09,1.09,0,0,0,.89-0.37,1.63,1.63,0,0,0,.31-1.07V31a2,2,0,0,0-.33-1.23A1.14,1.14,0,0,0,185.22,29.33Zm-0.07,5.12a0.72,0.72,0,0,1-.11.45,0.43,0.43,0,0,1-.36.14,0.74,0.74,0,0,1-.32-0.07,1.11,1.11,0,0,1-.31-0.23v-4.1a1,1,0,0,1,.27-0.2,0.68,0.68,0,0,1,.28-0.06,0.5,0.5,0,0,1,.41.17,0.78,0.78,0,0,1,.14.51v3.4Z"/><polygon id="_Path_2" data-name="&lt;Path&gt;" class="cls-1" points="172.84 28.37 174.38 28.37 174.38 35.99 175.86 35.99 175.86 28.37 177.39 28.37 177.39 27.07 172.84 27.07 172.84 28.37"/><path id="_Path_3" data-name="&lt;Path&gt;" class="cls-1" d="M180.23,34.41a1.87,1.87,0,0,1-.41.36,0.75,0.75,0,0,1-.37.14,0.32,0.32,0,0,1-.27-0.1,0.56,0.56,0,0,1-.08-0.34v-5H178v5.5a0.78,0.78,0,0,0,.74,1.17,1.58,1.58,0,0,0,.76-0.21,2.83,2.83,0,0,0,.76-0.61V36h1.32V29.41h-1.32v5Z"/><path id="_Compound_Path_4" data-name="&lt;Compound Path&gt;" class="cls-1" d="M182,0a26,26,0,1,0,26,26A26,26,0,0,0,182,0Zm3.14,15.86h1.48v5.56a0.6,0.6,0,0,0,.1.37,0.36,0.36,0,0,0,.3.12,0.86,0.86,0,0,0,.41-0.15,2.06,2.06,0,0,0,.46-0.39v-5.5h1.48v7.25h-1.48v-0.8A3.11,3.11,0,0,1,187,23a1.88,1.88,0,0,1-.86.23,0.93,0.93,0,0,1-.77-0.33,1.52,1.52,0,0,1-.26-1V15.86Zm-5.5,1.66a1.65,1.65,0,0,1,.6-1.34,2.43,2.43,0,0,1,1.61-.5,2.19,2.19,0,0,1,1.51.52,1.75,1.75,0,0,1,.58,1.36v3.75a1.89,1.89,0,0,1-.57,1.46,2.26,2.26,0,0,1-1.59.53,2.18,2.18,0,0,1-1.56-.55,1.92,1.92,0,0,1-.58-1.47V17.52Zm-4-4.23,1.08,3.93h0.1l1-3.93h1.69L177.58,19v4.08h-1.67V19.22l-2-5.93h1.68ZM195,34a4.75,4.75,0,0,1-4.75,4.75h-16.5A4.75,4.75,0,0,1,169,34V30.15a4.75,4.75,0,0,1,4.75-4.75h16.5A4.75,4.75,0,0,1,195,30.15V34Z"/><path id="_Compound_Path_5" data-name="&lt;Compound Path&gt;" class="cls-1" d="M189,29.25a2,2,0,0,0-1.44.54,1.86,1.86,0,0,0-.56,1.4v3a2.1,2.1,0,0,0,.51,1.49,1.8,1.8,0,0,0,1.39.54,2,2,0,0,0,1.48-.51,2.1,2.1,0,0,0,.5-1.53V33.8h-1.35v0.3a1.43,1.43,0,0,1-.13.75,0.54,0.54,0,0,1-.46.17,0.49,0.49,0,0,1-.45-0.2,1.45,1.45,0,0,1-.13-0.72V32.86h2.52V31.18a2,2,0,0,0-.49-1.43A1.84,1.84,0,0,0,189,29.25Zm0.52,2.59h-1.16V31.17a1,1,0,0,1,.14-0.59A0.52,0.52,0,0,1,189,30.4a0.51,0.51,0,0,1,.44.18,1,1,0,0,1,.14.59v0.66Z"/></g><g id="_Group_2" data-name="&lt;Group&gt;"><path id="_Path_4" data-name="&lt;Path&gt;" class="cls-1" d="M136.78,20H140a1,1,0,0,0,1-1.22V15.67c0-.72-0.24-1.67-1-1.67h-3.27c-0.72,0-.78,1-0.78,1.67v3.11C136,19.5,136.06,20,136.78,20Z"/><path id="_Compound_Path_6" data-name="&lt;Compound Path&gt;" class="cls-1" d="M130,0a26,26,0,1,0,26,26A26,26,0,0,0,130,0Zm15,36.29A3.71,3.71,0,0,1,141.29,40H119.71A3.71,3.71,0,0,1,116,36.29V14.71A3.71,3.71,0,0,1,119.71,11h21.58A3.71,3.71,0,0,1,145,14.71V36.29Z"/><ellipse id="_Path_5" data-name="&lt;Path&gt;" class="cls-1" cx="130.2" cy="25.55" rx="5.81" ry="5.63"/><path id="_Path_6" data-name="&lt;Path&gt;" class="cls-1" d="M139.18,26.17a8.72,8.72,0,0,1-9,8.55c-5,0-9-3.67-9-8.47,0-.86.13-2.25,0.37-2.25H119V35.59c0,0.63.45,0.41,1.08,0.41h20.13c0.63,0,.79.23,0.79-0.41V24h-2.19C139.05,24,139.18,25.31,139.18,26.17Z"/></g></svg>