<svg id="Layer_1" data-name="Layer 1" xmlns="http://www.w3.org/2000/svg" viewBox="0 0 126 42"><defs><style>.cls-1{fill:#fff;}.cls-2{fill:none;}</style></defs><title>social-media-white-icons</title><path id="_Path_" data-name="&lt;Path&gt;" class="cls-1" d="M29.8,21H24V41.54H15.51V21H11.45V13.76h4.06V9.07c0-3.36,1.59-8.61,8.61-8.61l6.32,0v7H25.85A1.74,1.74,0,0,0,24,9.5v4.26h6.51Z"/><rect class="cls-2" width="42" height="42"/><path id="_Path_2" data-name="&lt;Path&gt;" class="cls-1" d="M79.34,12.62c0,0.36,0,.72,0,1.09,0,11.14-8.48,24-24,24a23.85,23.85,0,0,1-12.92-3.79,17.79,17.79,0,0,0,2,.12,16.89,16.89,0,0,0,10.47-3.61,8.44,8.44,0,0,1-7.87-5.85,8.66,8.66,0,0,0,1.58.15,8.5,8.5,0,0,0,2.22-.3,8.44,8.44,0,0,1-6.76-8.27V16a8.42,8.42,0,0,0,3.82,1.05A8.44,8.44,0,0,1,45.32,5.85a23.92,23.92,0,0,0,17.37,8.81A8.44,8.44,0,0,1,77.06,7a16.82,16.82,0,0,0,5.35-2A8.46,8.46,0,0,1,78.7,9.58a16.82,16.82,0,0,0,4.84-1.32A17.09,17.09,0,0,1,79.34,12.62Z"/><rect class="cls-2" x="42" width="42" height="42"/><path id="_Compound_Path_" data-name="&lt;Compound Path&gt;" class="cls-1" d="M126,5.17A5.17,5.17,0,0,0,120.83,0H90.17A5.17,5.17,0,0,0,85,5.17V35.83A5.17,5.17,0,0,0,90.17,41h30.65A5.17,5.17,0,0,0,126,35.83V5.17Zm-20.86,6.39a8,8,0,0,1,8.1,7.85,8.1,8.1,0,0,1-16.19,0A8,8,0,0,1,105.14,11.56ZM120,33.42c0,0.88,0,1.58-.9,1.58H91a2,2,0,0,1-2-1.58V17h4.12c-0.33,0-.52,2.11-0.52,3.31,0,6.7,5.61,11.83,12.53,11.83a12.28,12.28,0,0,0,12.53-12.06c0-1.2-.18-3.08-0.52-3.08H120V33.42ZM120,10c0,1-.14,2-1.13,2h-4.56A2.49,2.49,0,0,1,112,10V5.63c0-1,1.31-1.63,2.31-1.63h4.56c1,0,1.13.63,1.13,1.63V10Z"/><rect class="cls-2" x="84" width="42" height="42"/></svg>