<?xml version="1.0" encoding="utf-8"?>
<!-- Generator: Adobe Illustrator 17.0.0, SVG Export Plug-In . SVG Version: 6.00 Build 0)  -->
<!DOCTYPE svg PUBLIC "-//W3C//DTD SVG 1.1//EN" "http://www.w3.org/Graphics/SVG/1.1/DTD/svg11.dtd">
<svg version="1.1" id="Layer_1" xmlns="http://www.w3.org/2000/svg" xmlns:xlink="http://www.w3.org/1999/xlink" x="0px" y="0px"
	 width="152px" height="76.081px" viewBox="0 0.598 152 76.081" enable-background="new 0 0.598 152 76.081" xml:space="preserve">
<g>
	<path fill="#FFFFFF" d="M0,38.679h38V0.598H0V38.679z M13.423,15.551h2.335v-3.215c0-0.589-0.119-4.523,4.917-4.523h3.555v4.091
		h-2.614c-0.518,0-1.041,0.542-1.041,0.943v2.688h3.65c-0.146,2.061-0.447,3.946-0.447,3.946h-3.22v11.682h-4.8V19.481h-2.335
		V15.551z"/>
</g>
<path fill="#FFFFFF" d="M38,0.639v38h38v-38H38z M65.714,16.044c0.008,0.175,0.011,0.35,0.011,0.526
	c0,5.383-4.097,11.592-11.59,11.592c-2.302,0-4.441-0.673-6.245-1.831c0.318,0.037,0.641,0.055,0.971,0.055
	c1.908,0,3.665-0.649,5.06-1.743c-1.783-0.03-3.288-1.21-3.806-2.829c0.248,0.049,0.505,0.075,0.768,0.075
	c0.369,0,0.73-0.051,1.073-0.144c-1.864-0.375-3.271-2.021-3.271-3.994v-0.051c0.55,0.302,1.18,0.488,1.847,0.509
	c-1.095-0.734-1.814-1.978-1.814-3.391c0-0.747,0.199-1.446,0.553-2.05c2.008,2.466,5.011,4.087,8.397,4.26
	c-0.07-0.3-0.106-0.612-0.106-0.93c0-2.251,1.825-4.074,4.074-4.074c1.172,0,2.23,0.496,2.973,1.288
	c0.93-0.183,1.8-0.522,2.589-0.99c-0.305,0.951-0.95,1.75-1.792,2.254c0.825-0.095,1.611-0.317,2.339-0.64
	C67.198,14.752,66.511,15.469,65.714,16.044z"/>
<g>
	<path fill="#FFFFFF" d="M89.267,12.404c-1.111,0-1.838,0.731-1.838,1.686c0,0.938,0.707,1.686,1.793,1.686h0.024
		c1.131,0,1.835-0.748,1.835-1.686C91.059,13.134,90.378,12.404,89.267,12.404z"/>
	<rect x="87.622" y="17.108" fill="#FFFFFF" width="3.247" height="9.764"/>
	<path fill="#FFFFFF" d="M98.832,16.881c-1.727,0-2.496,0.951-2.925,1.619v0.028h-0.02c0.005-0.009,0.013-0.02,0.02-0.028v-1.389
		h-3.243c0.041,0.916,0,9.762,0,9.762h3.243v-5.452c0-0.292,0.02-0.581,0.11-0.793c0.234-0.582,0.768-1.185,1.665-1.185
		c1.173,0,1.641,0.895,1.641,2.206v5.224h3.246v-5.596C102.569,18.277,100.967,16.881,98.832,16.881z"/>
	<path fill="#FFFFFF" d="M95.357,0.652c-0.162-0.004-0.322-0.025-0.484-0.025c-0.165,0-0.322,0.021-0.486,0.025H76V38.65h38V0.652
		H95.357z M105.741,28.901c0,0.854-0.713,1.548-1.587,1.548H85.846c-0.88,0-1.589-0.693-1.589-1.548V10.379
		c0-0.855,0.709-1.549,1.589-1.549h18.308c0.875,0,1.587,0.693,1.587,1.549C105.741,10.379,105.741,28.901,105.741,28.901z"/>
</g>
<g>
	<path fill="#FFFFFF" d="M128.224,26.806c0.003,0.654-0.013,1.141,0.005,1.362c0.037,0.389,0.024,0.847,0.384,1.108
		c0.67,0.487,1.957-0.075,2.279-0.769v0.887h1.197v-6.845h-1.491v4.297c0,0.624,0.036,0.933-0.003,1.044
		c-0.121,0.334-0.668,0.687-0.88,0.036c-0.036-0.116-0.004-0.459-0.004-1.049l-0.008-4.328h-1.484L128.224,26.806z"/>
	<polygon fill="#FFFFFF" points="125.231,29.399 126.724,29.399 126.724,21.349 128.513,21.349 128.513,20.155 123.744,20.147 
		123.744,21.32 125.231,21.325 	"/>
	<path fill="#FFFFFF" d="M132.717,14.954c0.363,0,0.66-0.331,0.66-0.734v-3.787c0-0.404-0.297-0.734-0.66-0.734
		c-0.362,0-0.66,0.33-0.66,0.734v3.787C132.057,14.623,132.354,14.954,132.717,14.954z"/>
	<path fill="#FFFFFF" d="M134.312,28.748c1.569,1.446,2.554,0.457,2.55-1.28l-0.004-3.577c0-1.364-1.016-2.18-2.391-1.077
		l0.005-2.663l-1.49,0.003l-0.009,9.182l1.227-0.018L134.312,28.748z M134.448,23.712c0-0.297,0.294-0.54,0.652-0.54
		c0.36,0,0.654,0.244,0.654,0.54v4.019c0,0.294-0.294,0.537-0.654,0.537c-0.358,0-0.652-0.244-0.652-0.537V23.712z"/>
	<path fill="#FFFFFF" d="M141.532,26.994l-1.119,0.008c-0.003,0.044-0.003,0.095-0.003,0.152v0.628c0,0.336-0.276,0.611-0.614,0.611
		h-0.219c-0.335,0-0.611-0.274-0.611-0.611v-0.069v-0.69v-0.892h2.562V25.16c0-0.709-0.02-1.418-0.077-1.823
		c-0.185-1.282-1.971-1.487-2.876-0.831c-0.285,0.207-0.5,0.482-0.627,0.85c-0.129,0.371-0.191,0.873-0.191,1.512v2.132
		C137.762,30.547,142.042,30.044,141.532,26.994z M138.993,24.117c0-0.367,0.302-0.668,0.665-0.668h0.092
		c0.365,0,0.665,0.301,0.665,0.668l-0.016,0.826h-1.412L138.993,24.117z"/>
	<path fill="#FFFFFF" d="M114,0.639v38h38v-38H114z M129.024,10.675l-0.003,5.461h-1.569l-0.004-5.458l-1.971-4.688h1.698l1,3.483
		l0.984-3.473h1.719L129.024,10.675z M130.92,9.793c0.116-0.381,0.319-0.691,0.614-0.922c0.294-0.234,0.669-0.352,1.127-0.352
		c0.387,0,0.715,0.078,0.991,0.226c0.277,0.149,0.49,0.344,0.637,0.582c0.152,0.241,0.253,0.489,0.309,0.743
		c0.057,0.256,0.083,0.644,0.083,1.165v1.8c0,0.661-0.028,1.145-0.079,1.457c-0.05,0.307-0.16,0.594-0.327,0.863
		c-0.168,0.264-0.381,0.466-0.64,0.59c-0.263,0.132-0.563,0.193-0.902,0.193c-0.38,0-0.699-0.05-0.962-0.161
		s-0.467-0.274-0.614-0.495c-0.146-0.218-0.249-0.487-0.311-0.797c-0.065-0.31-0.092-0.78-0.092-1.401v-1.888
		C130.752,10.711,130.808,10.178,130.92,9.793z M125.761,17.595h14.437c1.929,0,3.51,1.5,3.51,3.329v7.643
		c0,1.834-1.581,3.333-3.51,3.333h-14.437c-1.933,0-3.51-1.5-3.51-3.333v-7.643C122.252,19.096,123.828,17.595,125.761,17.595z
		 M137.533,14.879c0.299,0,0.544-0.247,0.544-0.546V8.795h1.311v7.118h-1.665l0.028-0.59c-0.113,0.24-0.252,0.418-0.417,0.538
		c-0.165,0.121-0.358,0.181-0.573,0.181c-0.247,0-0.451-0.057-0.611-0.173c-0.162-0.115-0.281-0.267-0.358-0.454
		c-0.078-0.193-0.124-0.389-0.144-0.595c-0.018-0.207-0.028-0.612-0.028-1.226v-4.8h1.366v5.538
		C136.987,14.633,137.233,14.879,137.533,14.879z"/>
</g>
<g>
	<path fill="#EEDC00" d="M0,76.679h38V38.598H0V76.679z M13.423,53.55h2.335v-3.215c0-0.589-0.119-4.523,4.917-4.523h3.555v4.091
		h-2.614c-0.518,0-1.041,0.542-1.041,0.943v2.688h3.65c-0.146,2.061-0.447,3.946-0.447,3.946h-3.22v11.682h-4.8V57.48h-2.335V53.55z
		"/>
</g>
<path fill="#EEDC00" d="M38,38.639v38h38v-38H38z M65.714,54.044c0.008,0.175,0.011,0.35,0.011,0.526
	c0,5.383-4.097,11.592-11.59,11.592c-2.302,0-4.441-0.673-6.245-1.831c0.318,0.037,0.641,0.055,0.971,0.055
	c1.908,0,3.665-0.649,5.06-1.743c-1.783-0.03-3.288-1.21-3.806-2.829c0.248,0.049,0.505,0.075,0.768,0.075
	c0.369,0,0.73-0.051,1.073-0.144c-1.864-0.375-3.271-2.021-3.271-3.994v-0.051c0.55,0.302,1.18,0.488,1.847,0.509
	c-1.095-0.734-1.814-1.978-1.814-3.391c0-0.747,0.199-1.446,0.553-2.05c2.008,2.466,5.011,4.087,8.397,4.26
	c-0.07-0.3-0.106-0.612-0.106-0.93c0-2.251,1.825-4.074,4.074-4.074c1.172,0,2.23,0.496,2.973,1.288
	c0.93-0.183,1.8-0.522,2.589-0.99c-0.305,0.951-0.95,1.75-1.792,2.254c0.825-0.095,1.611-0.317,2.339-0.64
	C67.198,52.751,66.511,53.467,65.714,54.044z"/>
<g>
	<path fill="#EEDC00" d="M89.267,50.404c-1.111,0-1.838,0.731-1.838,1.686c0,0.938,0.707,1.686,1.793,1.686h0.024
		c1.131,0,1.835-0.748,1.835-1.686C91.059,51.135,90.378,50.404,89.267,50.404z"/>
	<rect x="87.622" y="55.109" fill="#EEDC00" width="3.247" height="9.764"/>
	<path fill="#EEDC00" d="M98.832,54.882c-1.727,0-2.496,0.951-2.925,1.619v0.028h-0.02c0.005-0.009,0.013-0.02,0.02-0.028v-1.389
		h-3.243c0.041,0.916,0,9.762,0,9.762h3.243v-5.452c0-0.292,0.02-0.581,0.11-0.793c0.234-0.582,0.768-1.185,1.665-1.185
		c1.173,0,1.641,0.895,1.641,2.206v5.224h3.246v-5.596C102.569,56.277,100.967,54.882,98.832,54.882z"/>
	<path fill="#EEDC00" d="M95.357,38.651c-0.162-0.004-0.322-0.025-0.484-0.025c-0.165,0-0.322,0.021-0.486,0.025H76v38h38v-38
		H95.357z M105.741,66.9c0,0.854-0.713,1.548-1.587,1.548H85.846c-0.88,0-1.589-0.693-1.589-1.548V48.378
		c0-0.855,0.709-1.549,1.589-1.549h18.308c0.875,0,1.587,0.693,1.587,1.549C105.741,48.378,105.741,66.9,105.741,66.9z"/>
</g>
<g>
	<path fill="#EEDC00" d="M128.224,64.806c0.003,0.654-0.013,1.141,0.005,1.362c0.037,0.389,0.024,0.847,0.384,1.108
		c0.67,0.487,1.957-0.075,2.279-0.769v0.887h1.197v-6.846h-1.491v4.297c0,0.624,0.036,0.933-0.003,1.044
		c-0.121,0.334-0.668,0.687-0.88,0.036c-0.036-0.116-0.004-0.459-0.004-1.049l-0.008-4.328h-1.484L128.224,64.806z"/>
	<polygon fill="#EEDC00" points="125.231,67.399 126.724,67.399 126.724,59.348 128.513,59.348 128.513,58.155 123.744,58.147 
		123.744,59.32 125.231,59.324 	"/>
	<path fill="#EEDC00" d="M132.717,52.953c0.363,0,0.66-0.331,0.66-0.734v-3.787c0-0.404-0.297-0.734-0.66-0.734
		c-0.362,0-0.66,0.33-0.66,0.734v3.787C132.057,52.622,132.354,52.953,132.717,52.953z"/>
	<path fill="#EEDC00" d="M134.312,66.747c1.569,1.446,2.554,0.457,2.55-1.28l-0.004-3.577c0-1.364-1.016-2.18-2.391-1.077
		l0.005-2.663l-1.49,0.003l-0.009,9.182l1.227-0.018L134.312,66.747z M134.448,61.711c0-0.297,0.294-0.54,0.652-0.54
		c0.36,0,0.654,0.244,0.654,0.54v4.019c0,0.294-0.294,0.537-0.654,0.537c-0.358,0-0.652-0.244-0.652-0.537V61.711z"/>
	<path fill="#EEDC00" d="M141.532,64.992L140.413,65c-0.003,0.044-0.003,0.095-0.003,0.152v0.628c0,0.336-0.276,0.611-0.614,0.611
		h-0.219c-0.335,0-0.611-0.274-0.611-0.611v-0.069v-0.69v-0.892h2.562v-0.971c0-0.709-0.02-1.418-0.077-1.823
		c-0.185-1.282-1.971-1.487-2.876-0.831c-0.285,0.207-0.5,0.482-0.627,0.85c-0.129,0.371-0.191,0.873-0.191,1.512v2.132
		C137.762,68.547,142.042,68.044,141.532,64.992z M138.993,62.117c0-0.367,0.302-0.668,0.665-0.668h0.092
		c0.365,0,0.665,0.301,0.665,0.668l-0.016,0.826h-1.412L138.993,62.117z"/>
	<path fill="#EEDC00" d="M114,38.639v38h38v-38H114z M129.024,48.674l-0.003,5.461h-1.569l-0.003-5.458l-1.971-4.688h1.698l1,3.483
		l0.984-3.473h1.719L129.024,48.674z M130.92,47.791c0.116-0.381,0.319-0.691,0.614-0.922c0.294-0.234,0.669-0.352,1.127-0.352
		c0.387,0,0.715,0.078,0.991,0.226c0.277,0.149,0.49,0.344,0.637,0.582c0.152,0.241,0.253,0.489,0.309,0.743
		c0.057,0.256,0.083,0.644,0.083,1.165v1.8c0,0.661-0.028,1.145-0.079,1.457c-0.05,0.307-0.16,0.594-0.327,0.863
		c-0.168,0.264-0.381,0.466-0.64,0.59c-0.263,0.132-0.563,0.193-0.902,0.193c-0.38,0-0.699-0.05-0.962-0.161
		c-0.263-0.111-0.467-0.274-0.614-0.495c-0.146-0.218-0.249-0.487-0.311-0.797c-0.065-0.31-0.092-0.78-0.092-1.401v-1.888
		C130.752,48.711,130.808,48.176,130.92,47.791z M125.761,55.594h14.437c1.929,0,3.51,1.5,3.51,3.329v7.643
		c0,1.834-1.581,3.333-3.51,3.333h-14.437c-1.933,0-3.51-1.5-3.51-3.333v-7.642C122.252,57.094,123.828,55.594,125.761,55.594z
		 M137.533,52.879c0.299,0,0.544-0.247,0.544-0.546v-5.538h1.311v7.118h-1.665l0.028-0.59c-0.113,0.24-0.252,0.418-0.417,0.538
		c-0.165,0.121-0.358,0.181-0.573,0.181c-0.247,0-0.451-0.057-0.611-0.173c-0.162-0.115-0.281-0.267-0.358-0.454
		c-0.078-0.193-0.124-0.389-0.144-0.595c-0.018-0.207-0.028-0.612-0.028-1.226v-4.8h1.366v5.538
		C136.987,52.632,137.233,52.879,137.533,52.879z"/>
</g>
</svg>
