<?xml version="1.0" encoding="utf-8"?>
<!-- Generator: Adobe Illustrator 16.0.4, SVG Export Plug-In . SVG Version: 6.00 Build 0)  -->
<!DOCTYPE svg PUBLIC "-//W3C//DTD SVG 1.1//EN" "http://www.w3.org/Graphics/SVG/1.1/DTD/svg11.dtd">
<svg version="1.1" id="Layer_1" xmlns="http://www.w3.org/2000/svg" xmlns:xlink="http://www.w3.org/1999/xlink" x="0px" y="0px"
	 width="2232px" height="65px" viewBox="0 0 2232 65" enable-background="new 0 0 2232 65" xml:space="preserve">
<g>
	<path fill="#00A9E0" d="M893.87,47.54c0-0.84,0.67-1.51,1.5-1.51l0,0l0,0l0,0c0.83,0,1.5,0.67,1.5,1.5l0,0
		c0,0.829-0.67,1.5-1.5,1.5l0,0C894.55,49.03,893.87,48.359,893.87,47.54z M1020.25,47.52c0-0.83,0.67-1.5,1.5-1.5l0,0
		c0.83,0,1.5,0.67,1.5,1.5l0,0c0,0.83-0.67,1.5-1.5,1.5l0,0C1020.92,49.02,1020.25,48.35,1020.25,47.52z M1015.74,49.02
		L1015.74,49.02L1015.74,49.02h0.01l0,0C1015.74,49.02,1015.75,49.02,1015.74,49.02z M1008.24,47.52c0-0.83,0.67-1.5,1.5-1.5l0,0
		c0.83,0,1.5,0.67,1.5,1.5l0,0c0,0.83-0.67,1.5-1.5,1.5l0,0C1008.91,49.02,1008.24,48.35,1008.24,47.52z M1003.73,49.02
		L1003.73,49.02L1003.73,49.02L1003.73,49.02L1003.73,49.02z M996.22,47.52c0-0.83,0.68-1.5,1.5-1.5l0,0c0.83,0,1.51,0.67,1.51,1.5
		l0,0c0,0.83-0.68,1.5-1.51,1.5l0,0C996.9,49.02,996.22,48.35,996.22,47.52z M990.22,47.52c0-0.83,0.67-1.5,1.5-1.5l0,0
		c0.82,0,1.5,0.67,1.5,1.5l0,0c0,0.83-0.68,1.5-1.5,1.5l0,0C990.89,49.02,990.22,48.35,990.22,47.52z M984.21,47.52
		c0-0.83,0.67-1.5,1.5-1.5l0,0c0.83,0,1.5,0.67,1.5,1.5l0,0c0,0.83-0.67,1.5-1.5,1.5l0,0C984.88,49.02,984.21,48.35,984.21,47.52z
		 M978.2,47.52c0-0.83,0.67-1.5,1.5-1.5l0,0c0.83,0,1.5,0.67,1.5,1.5l0,0c0,0.83-0.67,1.5-1.5,1.5l0,0
		C978.87,49.02,978.2,48.35,978.2,47.52z M972.19,47.52c0-0.83,0.67-1.5,1.5-1.5l0,0c0.83,0,1.5,0.67,1.5,1.5l0,0
		c0,0.83-0.67,1.5-1.5,1.5l0,0C972.86,49.02,972.19,48.35,972.19,47.52z M966.18,47.52c0-0.83,0.68-1.5,1.5-1.5l0,0
		c0.83,0,1.5,0.67,1.5,1.5l0,0c0,0.83-0.67,1.5-1.5,1.5l0,0C966.86,49.02,966.18,48.35,966.18,47.52z M960.17,47.52
		c0-0.83,0.68-1.5,1.5-1.5l0,0c0.83,0,1.5,0.67,1.5,1.5l0,0c0,0.83-0.67,1.5-1.5,1.5l0,0C960.85,49.02,960.17,48.35,960.17,47.52z
		 M954.16,47.52c0-0.83,0.67-1.5,1.5-1.5l0,0l0,0l0,0c0.83,0,1.5,0.67,1.5,1.5l0,0c0,0.83-0.67,1.5-1.5,1.5l0,0
		C954.84,49.02,954.16,48.35,954.16,47.52z M948.15,47.52c0-0.83,0.67-1.5,1.5-1.5l0,0c0.83,0,1.5,0.67,1.5,1.5l0,0
		c0,0.83-0.67,1.5-1.5,1.5l0,0C948.82,49.02,948.15,48.35,948.15,47.52z M942.14,47.52c0-0.83,0.67-1.5,1.5-1.5l0,0
		c0.83,0,1.5,0.67,1.5,1.5l0,0c0,0.83-0.67,1.5-1.5,1.5l0,0C942.81,49.02,942.14,48.35,942.14,47.52z M937.62,49
		c-0.82,0-1.5-0.67-1.5-1.5l0,0c0-0.83,0.68-1.5,1.5-1.5l0,0c0,0,0,0,0.01,0l0,0c0.82,0,1.49,0.67,1.49,1.5l0,0
		c0,0.83-0.67,1.5-1.49,1.5l0,0C936.8,49,937.63,49,937.62,49z M930.11,47.52c0-0.83,0.67-1.5,1.5-1.5l0,0c0.82,0,1.5,0.67,1.5,1.5
		l0,0c0,0.83-0.68,1.5-1.5,1.5l0,0C930.78,49.02,930.11,48.35,930.11,47.52z M924.09,47.52c0-0.83,0.67-1.5,1.5-1.5l0,0
		c0.83,0,1.5,0.67,1.5,1.5l0,0c0,0.83-0.67,1.5-1.5,1.5l0,0C924.76,49.02,924.09,48.35,924.09,47.52z M918.06,47.52
		c0-0.83,0.67-1.5,1.5-1.5l0,0c0.83,0,1.5,0.67,1.5,1.5l0,0c0,0.83-0.67,1.5-1.5,1.5l0,0C918.73,49.02,918.06,48.35,918.06,47.52z
		 M912.03,47.52c0-0.83,0.67-1.5,1.5-1.5l0,0c0.83,0,1.5,0.67,1.5,1.5l0,0c0,0.83-0.67,1.5-1.5,1.5l0,0
		C912.7,49.02,912.03,48.35,912.03,47.52z M905.99,47.51c-0.01-0.83,0.67-1.51,1.49-1.51l0,0c0,0,0,0,0.01,0l0,0
		c0.82,0,1.5,0.68,1.5,1.51l0,0c0,0.83-0.68,1.5-1.5,1.5l0,0C906.66,49.01,905.99,48.34,905.99,47.51z M899.88,47.52
		c0-0.83,0.67-1.5,1.5-1.5l0,0c0.83,0,1.5,0.67,1.5,1.5l0,0c0,0.83-0.67,1.5-1.5,1.5l0,0C900.55,49.02,899.88,48.35,899.88,47.52z
		 M1002.23,47.52c0-0.83,0.67-1.5,1.5-1.5l0,0c0.83,0,1.5,0.67,1.5,1.5l0,0c0,0.83-0.67,1.5-1.5,1.5l0,0
		C1002.9,49.02,1002.23,48.35,1002.23,47.52z M1014.24,47.52c0-0.83,0.68-1.5,1.5-1.5l0,0c0.83,0,1.5,0.67,1.5,1.5l0,0
		c0,0.83-0.67,1.5-1.5,1.5l0,0C1014.91,49.02,1014.24,48.35,1014.24,47.52z M1140.34,47.52c0-0.83,0.67-1.5,1.5-1.5l0,0
		c0.83,0,1.5,0.67,1.5,1.5l0,0c0,0.82-0.67,1.5-1.5,1.5l0,0C1141.01,49.02,1140.34,48.34,1140.34,47.52z M1134.33,47.52
		c0-0.83,0.67-1.5,1.5-1.5l0,0c0.83,0,1.51,0.67,1.51,1.5l0,0c0,0.82-0.68,1.5-1.51,1.5l0,0C1135,49.02,1134.33,48.34,1134.33,47.52
		z M1128.33,47.52c0-0.83,0.67-1.5,1.5-1.5l0,0c0.83,0,1.5,0.67,1.5,1.5l0,0c0,0.82-0.67,1.5-1.5,1.5l0,0
		C1129,49.02,1128.33,48.34,1128.33,47.52z M1123.83,49.02L1123.83,49.02L1123.83,49.02L1123.83,49.02L1123.83,49.02z
		 M1116.32,47.52c0-0.83,0.68-1.5,1.5-1.5l0,0c0.83,0,1.5,0.67,1.5,1.5l0,0c0,0.82-0.67,1.5-1.5,1.5l0,0
		C1117,49.02,1116.32,48.34,1116.32,47.52z M1110.32,47.52c0-0.83,0.67-1.5,1.5-1.5l0,0c0.83,0,1.5,0.67,1.5,1.5l0,0
		c0,0.82-0.67,1.5-1.5,1.5l0,0C1110.99,49.02,1110.32,48.34,1110.32,47.52z M1104.31,47.52c0-0.83,0.68-1.5,1.5-1.5l0,0
		c0.83,0,1.5,0.67,1.5,1.5l0,0c0,0.82-0.67,1.5-1.5,1.5l0,0C1104.99,49.02,1104.31,48.34,1104.31,47.52z M1098.31,47.52
		c0-0.83,0.67-1.5,1.5-1.5l0,0c0.83,0,1.5,0.67,1.5,1.5l0,0c0,0.82-0.67,1.5-1.5,1.5l0,0C1098.98,49.02,1098.31,48.34,1098.31,47.52
		z M1092.31,47.52c0-0.83,0.67-1.5,1.5-1.5l0,0c0.83,0,1.5,0.67,1.5,1.5l0,0c0,0.82-0.67,1.5-1.5,1.5l0,0
		C1092.98,49.02,1092.31,48.34,1092.31,47.52z M1086.3,47.52c0-0.83,0.68-1.5,1.5-1.5l0,0c0.83,0,1.5,0.67,1.5,1.5l0,0
		c0,0.82-0.67,1.5-1.5,1.5l0,0C1086.98,49.02,1086.3,48.34,1086.3,47.52z M1080.3,47.52c0-0.83,0.67-1.5,1.5-1.5l0,0
		c0.83,0,1.5,0.67,1.5,1.5l0,0c0,0.82-0.67,1.5-1.5,1.5l0,0C1080.97,49.02,1080.3,48.34,1080.3,47.52z M1074.29,47.52
		c0-0.83,0.68-1.5,1.5-1.5l0,0c0.83,0,1.5,0.67,1.5,1.5l0,0c0,0.82-0.67,1.5-1.5,1.5l0,0C1074.97,49.02,1074.29,48.34,1074.29,47.52
		z M1069.79,49.02c-0.83,0-1.5-0.68-1.5-1.5l0,0c0-0.83,0.67-1.5,1.5-1.5l0,0l0,0l0,0c0.83,0,1.5,0.67,1.5,1.5l0,0
		C1071.29,48.34,1070.62,49.02,1069.79,49.02L1069.79,49.02z M1062.29,47.52c0-0.83,0.67-1.5,1.5-1.5l0,0c0.82,0,1.5,0.67,1.5,1.5
		l0,0c0,0.82-0.68,1.5-1.5,1.5l0,0C1062.96,49.02,1062.29,48.34,1062.29,47.52z M1056.28,47.52c0-0.83,0.67-1.5,1.5-1.5l0,0
		c0.83,0,1.5,0.67,1.5,1.5l0,0c0,0.82-0.67,1.5-1.5,1.5l0,0C1056.95,49.02,1056.28,48.34,1056.28,47.52z M1050.28,47.52
		c0-0.83,0.67-1.5,1.5-1.5l0,0l0,0l0,0c0.83,0,1.5,0.67,1.5,1.5l0,0c0,0.82-0.67,1.5-1.5,1.5l0,0
		C1050.95,49.02,1050.28,48.34,1050.28,47.52z M1044.27,47.52c0-0.83,0.67-1.5,1.5-1.5l0,0c0.83,0,1.5,0.67,1.5,1.5l0,0
		c0,0.82-0.67,1.5-1.5,1.5l0,0C1044.94,49.02,1044.27,48.34,1044.27,47.52z M1038.27,47.52c0-0.83,0.67-1.5,1.5-1.5l0,0
		c0.82,0,1.5,0.67,1.5,1.5l0,0c0,0.82-0.68,1.5-1.5,1.5l0,0C1038.94,49.02,1038.27,48.34,1038.27,47.52z M1032.26,47.52
		c0-0.83,0.67-1.5,1.5-1.5l0,0c0.83,0,1.5,0.67,1.5,1.5l0,0c0,0.82-0.67,1.5-1.5,1.5l0,0C1032.93,49.02,1032.26,48.34,1032.26,47.52
		z M1026.26,47.52c0-0.83,0.67-1.5,1.5-1.5l0,0c0.82,0,1.5,0.67,1.5,1.5l0,0c0,0.82-0.68,1.5-1.5,1.5l0,0
		C1026.93,49.02,1026.26,48.34,1026.26,47.52z M1122.33,47.52c0-0.83,0.67-1.5,1.5-1.5l0,0c0.82,0,1.5,0.67,1.5,1.5l0,0
		c0,0.82-0.67,1.49-1.5,1.5l0,0C1123,49.01,1122.33,48.34,1122.33,47.52z M1254.4,47.51c0-0.82,0.67-1.5,1.5-1.5l0,0
		c0.82,0,1.5,0.68,1.5,1.5l0,0c0,0.83-0.68,1.5-1.5,1.5l0,0C1255.07,49.01,1254.4,48.34,1254.4,47.51z M1248.39,47.51
		c0-0.82,0.67-1.5,1.5-1.5l0,0c0.83,0,1.5,0.68,1.5,1.5l0,0c0,0.83-0.67,1.5-1.5,1.5l0,0C1249.06,49.01,1248.39,48.34,1248.39,47.51
		z M1242.39,47.51c0-0.82,0.67-1.5,1.5-1.5l0,0c0.83,0,1.5,0.68,1.5,1.5l0,0c0,0.83-0.67,1.5-1.5,1.5l0,0
		C1243.06,49.01,1242.39,48.34,1242.39,47.51z M1236.39,47.51c0-0.82,0.67-1.5,1.5-1.5l0,0c0.83,0,1.5,0.68,1.5,1.5l0,0
		c0,0.83-0.67,1.5-1.5,1.5l0,0C1237.06,49.01,1236.39,48.34,1236.39,47.51z M1230.38,47.51c0-0.82,0.68-1.5,1.51-1.5l0,0
		c0.82,0,1.5,0.68,1.5,1.5l0,0c0,0.83-0.68,1.5-1.5,1.5l0,0C1231.06,49.01,1230.38,48.34,1230.38,47.51z M1224.38,47.51
		c0-0.82,0.67-1.5,1.5-1.5l0,0c0.83,0,1.5,0.68,1.5,1.5l0,0c0,0.83-0.67,1.5-1.5,1.5l0,0C1225.05,49.01,1224.38,48.34,1224.38,47.51
		z M1218.38,47.51c0-0.82,0.67-1.5,1.5-1.5l0,0c0.83,0,1.5,0.68,1.5,1.5l0,0c0,0.83-0.67,1.5-1.5,1.5l0,0
		C1219.05,49.01,1218.38,48.34,1218.38,47.51z M1212.38,47.51c0-0.82,0.67-1.5,1.5-1.5l0,0c0.82,0,1.5,0.68,1.5,1.5l0,0
		c0,0.83-0.68,1.5-1.5,1.5l0,0C1213.05,49.01,1212.38,48.34,1212.38,47.51z M1206.37,47.51c0-0.82,0.67-1.5,1.5-1.5l0,0
		c0.83,0,1.5,0.68,1.5,1.5l0,0c0,0.83-0.67,1.5-1.5,1.5l0,0C1207.04,49.01,1206.37,48.34,1206.37,47.51z M1201.87,49.01
		c-0.83,0-1.5-0.67-1.5-1.5l0,0c0-0.82,0.67-1.5,1.5-1.5l0,0l0,0l0,0c0.83,0,1.5,0.68,1.5,1.5l0,0
		C1203.37,48.34,1202.7,49.01,1201.87,49.01L1201.87,49.01z M1194.37,47.51c0-0.82,0.67-1.49,1.5-1.49l0,0c0.83,0,1.5,0.67,1.5,1.49
		l0,0c0,0.83-0.67,1.5-1.5,1.5l0,0C1195.04,49.01,1194.37,48.34,1194.37,47.51z M1188.37,47.51c0-0.82,0.67-1.49,1.5-1.49l0,0
		c0.82,0,1.49,0.67,1.49,1.49l0,0c0,0.83-0.67,1.5-1.49,1.5l0,0C1189.04,49.01,1188.37,48.34,1188.37,47.51z M1183.86,49.01
		L1183.86,49.01L1183.86,49.01L1183.86,49.01L1183.86,49.01z M1176.36,47.51c0-0.82,0.67-1.49,1.5-1.49l0,0
		c0.83,0,1.5,0.67,1.5,1.49l0,0c0,0.83-0.67,1.5-1.5,1.5l0,0C1177.03,49.01,1176.36,48.34,1176.36,47.51z M1170.35,47.51
		c0-0.82,0.68-1.49,1.5-1.49l0,0c0.83,0,1.5,0.67,1.5,1.49l0,0c0,0.83-0.67,1.5-1.5,1.5l0,0
		C1171.03,49.01,1170.35,48.34,1170.35,47.51z M1164.35,47.51c0-0.82,0.67-1.49,1.5-1.49l0,0c0.83,0,1.5,0.67,1.5,1.49l0,0
		c0,0.83-0.67,1.5-1.5,1.5l0,0C1165.02,49.01,1164.35,48.34,1164.35,47.51z M1158.35,47.51c0-0.82,0.67-1.49,1.5-1.49l0,0
		c0.83,0,1.5,0.67,1.5,1.49l0,0c0,0.83-0.67,1.5-1.5,1.5l0,0C1159.02,49.01,1158.35,48.34,1158.35,47.51z M1152.34,47.51
		c0-0.82,0.68-1.49,1.5-1.49l0,0c0.83,0,1.5,0.67,1.5,1.49l0,0c0,0.83-0.67,1.5-1.5,1.5l0,0
		C1153.02,49.01,1152.34,48.34,1152.34,47.51z M1146.34,47.51c0-0.82,0.67-1.49,1.5-1.49l0,0c0.83,0,1.5,0.67,1.5,1.49l0,0
		c0,0.83-0.67,1.5-1.5,1.5l0,0C1147.01,49.01,1146.34,48.34,1146.34,47.51z M1182.36,47.51c0-0.82,0.67-1.49,1.5-1.49l0,0
		c0.83,0,1.5,0.67,1.5,1.49l0,0c0,0.83-0.67,1.5-1.5,1.5l0,0C1183.03,49.01,1182.36,48.34,1182.36,47.51z M1422.46,47.51
		c0-0.83,0.67-1.5,1.5-1.5l0,0c0.83,0,1.5,0.67,1.5,1.5l0,0c0,0.83-0.67,1.5-1.5,1.5l0,0C1423.13,49.01,1422.46,48.34,1422.46,47.51
		z M1416.43,47.51c0-0.83,0.67-1.5,1.51-1.5l0,0c0.82,0,1.49,0.67,1.49,1.5l0,0c0,0.83-0.67,1.5-1.49,1.5l0,0
		C1417.1,49.01,1416.43,48.34,1416.43,47.51z M1410.41,47.51c0-0.83,0.68-1.5,1.5-1.5l0,0c0.83,0,1.5,0.67,1.5,1.5l0,0
		c0,0.83-0.67,1.5-1.5,1.5l0,0C1411.09,49.01,1410.41,48.34,1410.41,47.51z M1404.4,47.51c0-0.83,0.67-1.5,1.5-1.5l0,0
		c0.83,0,1.5,0.67,1.5,1.5l0,0c0,0.83-0.67,1.5-1.5,1.5l0,0C1405.07,49.01,1404.4,48.34,1404.4,47.51z M1398.39,47.51
		c0-0.83,0.67-1.5,1.5-1.5l0,0c0.83,0,1.5,0.67,1.5,1.5l0,0c0,0.83-0.67,1.5-1.5,1.5l0,0C1399.06,49.01,1398.39,48.34,1398.39,47.51
		z M1392.38,47.51c0-0.83,0.68-1.5,1.5-1.5l0,0c0.83,0,1.5,0.67,1.5,1.5l0,0c0,0.83-0.67,1.5-1.5,1.5l0,0
		C1393.06,49.01,1392.38,48.34,1392.38,47.51z M1386.39,47.51c0-0.83,0.67-1.5,1.5-1.5l0,0c0.82,0,1.5,0.67,1.5,1.5l0,0
		c0,0.83-0.68,1.5-1.5,1.5l0,0C1387.06,49.01,1386.39,48.34,1386.39,47.51z M1380.39,47.51c0-0.83,0.67-1.5,1.5-1.5l0,0
		c0.83,0,1.5,0.67,1.5,1.5l0,0c0,0.83-0.67,1.5-1.5,1.5l0,0C1381.06,49.01,1380.39,48.34,1380.39,47.51z M1374.4,47.51
		c0-0.83,0.67-1.5,1.5-1.5l0,0c0.83,0,1.5,0.67,1.5,1.5l0,0c0,0.83-0.67,1.5-1.5,1.5l0,0C1375.07,49.01,1374.4,48.34,1374.4,47.51z
		 M1368.42,47.51c0-0.83,0.67-1.5,1.5-1.5l0,0c0.82,0,1.5,0.67,1.5,1.5l0,0c0,0.83-0.68,1.5-1.5,1.5l0,0
		C1369.09,49.01,1368.42,48.34,1368.42,47.51z M1362.44,47.51c0-0.83,0.67-1.5,1.5-1.5l0,0c0.83,0,1.5,0.67,1.5,1.5l0,0
		c0,0.83-0.67,1.5-1.5,1.5l0,0C1363.11,49.01,1362.44,48.34,1362.44,47.51z M1356.44,47.51c0-0.83,0.67-1.5,1.5-1.5l0,0
		c0.82,0,1.5,0.67,1.5,1.5l0,0c0,0.83-0.68,1.5-1.5,1.5l0,0C1357.11,49.01,1356.44,48.34,1356.44,47.51z M1350.43,47.51
		c0-0.83,0.68-1.5,1.5-1.5l0,0c0.83,0,1.5,0.67,1.5,1.5l0,0c0,0.83-0.67,1.5-1.5,1.5l0,0C1351.11,49.01,1350.43,48.34,1350.43,47.51
		z M1344.43,47.51c0-0.83,0.67-1.5,1.5-1.5l0,0c0.83,0,1.5,0.67,1.5,1.5l0,0c0,0.83-0.67,1.5-1.5,1.5l0,0
		C1345.1,49.01,1344.43,48.34,1344.43,47.51z M1338.43,47.51c0-0.83,0.67-1.5,1.5-1.5l0,0c0.83,0,1.5,0.67,1.5,1.5l0,0
		c0,0.83-0.67,1.5-1.5,1.5l0,0C1339.1,49.01,1338.43,48.34,1338.43,47.51z M1332.43,47.51c0-0.83,0.67-1.5,1.5-1.5l0,0
		c0.82,0,1.5,0.67,1.5,1.5l0,0c0,0.83-0.68,1.5-1.5,1.5l0,0C1333.1,49.01,1332.43,48.34,1332.43,47.51z M1326.43,47.51
		c0-0.83,0.67-1.5,1.5-1.5l0,0c0.82,0,1.5,0.67,1.5,1.5l0,0c0,0.83-0.68,1.5-1.5,1.5l0,0C1327.1,49.01,1326.43,48.34,1326.43,47.51z
		 M1320.42,47.51c0-0.83,0.68-1.5,1.5-1.5l0,0c0.83,0,1.5,0.67,1.5,1.5l0,0c0,0.83-0.67,1.5-1.5,1.5l0,0
		C1321.1,49.01,1320.42,48.34,1320.42,47.51z M1314.42,47.51c0-0.83,0.67-1.5,1.5-1.5l0,0c0.83,0,1.5,0.67,1.5,1.5l0,0
		c0,0.83-0.67,1.5-1.5,1.5l0,0C1315.09,49.01,1314.42,48.34,1314.42,47.51z M1308.42,47.51c0-0.83,0.67-1.5,1.5-1.5l0,0
		c0.83,0,1.5,0.67,1.5,1.5l0,0c0,0.83-0.67,1.5-1.5,1.5l0,0C1309.09,49.01,1308.42,48.34,1308.42,47.51z M1302.42,47.51
		c0-0.83,0.67-1.5,1.5-1.5l0,0c0.82,0,1.5,0.67,1.5,1.5l0,0c0,0.83-0.68,1.5-1.5,1.5l0,0C1303.09,49.01,1302.42,48.34,1302.42,47.51
		z M1296.42,47.51c0-0.83,0.66-1.5,1.49-1.5l0,0c0.83,0,1.5,0.67,1.5,1.5l0,0c0,0.83-0.67,1.5-1.5,1.5l0,0
		C1297.08,49.01,1296.42,48.34,1296.42,47.51z M1290.41,47.51c0-0.83,0.67-1.5,1.5-1.5l0,0c0.83,0,1.5,0.67,1.5,1.5l0,0
		c0,0.83-0.67,1.5-1.5,1.5l0,0C1291.08,49.01,1290.41,48.34,1290.41,47.51z M1284.41,47.51c0-0.83,0.67-1.5,1.5-1.5l0,0
		c0.83,0,1.5,0.67,1.5,1.5l0,0c0,0.83-0.67,1.5-1.5,1.5l0,0C1285.08,49.01,1284.41,48.34,1284.41,47.51z M1278.41,47.51
		c0-0.83,0.67-1.5,1.5-1.5l0,0c0.82,0,1.5,0.67,1.5,1.5l0,0c0,0.83-0.68,1.5-1.5,1.5l0,0C1279.08,49.01,1278.41,48.34,1278.41,47.51
		z M1272.4,47.51c0-0.83,0.67-1.5,1.5-1.5l0,0c0.83,0,1.51,0.67,1.51,1.5l0,0c0,0.83-0.68,1.5-1.51,1.5l0,0
		C1273.07,49.01,1272.4,48.34,1272.4,47.51z M1266.4,47.51c0-0.83,0.67-1.5,1.5-1.5l0,0c0.83,0,1.5,0.67,1.5,1.5l0,0
		c0,0.83-0.67,1.5-1.5,1.5l0,0C1267.07,49.01,1266.4,48.34,1266.4,47.51z M1260.4,47.51c0-0.83,0.67-1.5,1.5-1.5l0,0
		c0.83,0,1.5,0.67,1.5,1.5l0,0c0,0.83-0.67,1.5-1.5,1.5l0,0C1261.07,49.01,1260.4,48.34,1260.4,47.51z M1530.54,47.51
		c0-0.83,0.67-1.5,1.5-1.5l0,0c0.83,0,1.5,0.67,1.5,1.5l0,0c0,0.83-0.67,1.5-1.5,1.5l0,0C1531.21,49.01,1530.54,48.34,1530.54,47.51
		z M1524.54,47.51c0-0.83,0.67-1.5,1.5-1.5l0,0c0.83,0,1.5,0.67,1.5,1.5l0,0c0,0.83-0.67,1.5-1.5,1.5l0,0
		C1525.21,49.01,1524.54,48.34,1524.54,47.51z M1518.53,47.51c0-0.83,0.67-1.5,1.51-1.5l0,0c0.819,0,1.49,0.67,1.49,1.5l0,0
		c0,0.83-0.671,1.5-1.49,1.5l0,0C1519.2,49.01,1518.53,48.34,1518.53,47.51z M1512.53,47.51c0-0.83,0.67-1.5,1.5-1.5l0,0
		c0.829,0,1.5,0.67,1.5,1.5l0,0c0,0.83-0.671,1.5-1.5,1.5l0,0C1513.2,49.01,1512.53,48.34,1512.53,47.51z M1506.53,47.51
		c0-0.83,0.67-1.5,1.5-1.5l0,0c0.829,0,1.5,0.67,1.5,1.5l0,0c0,0.83-0.671,1.5-1.5,1.5l0,0
		C1507.2,49.01,1506.53,48.34,1506.53,47.51z M1500.53,47.51c0-0.83,0.67-1.5,1.5-1.5l0,0c0.819,0,1.5,0.67,1.5,1.5l0,0
		c0,0.83-0.681,1.5-1.5,1.5l0,0C1501.2,49.01,1500.53,48.34,1500.53,47.51z M1494.52,47.51c0-0.83,0.67-1.5,1.5-1.5l0,0
		c0.83,0,1.5,0.67,1.5,1.5l0,0c0,0.83-0.67,1.5-1.5,1.5l0,0C1495.189,49.01,1494.52,48.34,1494.52,47.51z M1488.52,47.51
		c0-0.83,0.67-1.5,1.5-1.5l0,0c0.83,0,1.5,0.67,1.5,1.5l0,0c0,0.83-0.67,1.5-1.5,1.5l0,0
		C1489.189,49.01,1488.52,48.34,1488.52,47.51z M1482.52,47.51c0-0.83,0.67-1.5,1.5-1.5l0,0c0.83,0,1.5,0.67,1.5,1.5l0,0
		c0,0.83-0.67,1.5-1.5,1.5l0,0C1483.189,49.01,1482.52,48.34,1482.52,47.51z M1476.52,47.51c0-0.83,0.67-1.5,1.5-1.5l0,0
		c0.82,0,1.49,0.67,1.49,1.5l0,0c0,0.83-0.67,1.5-1.49,1.5l0,0C1477.189,49.01,1476.52,48.34,1476.52,47.51z M1470.51,47.51
		c0-0.83,0.67-1.5,1.5-1.5l0,0c0.83,0,1.5,0.67,1.5,1.5l0,0c0,0.83-0.67,1.5-1.5,1.5l0,0C1471.18,49.01,1470.51,48.34,1470.51,47.51
		z M1464.51,47.51c0-0.83,0.67-1.5,1.5-1.5l0,0c0.83,0,1.5,0.67,1.5,1.5l0,0c0,0.83-0.67,1.5-1.5,1.5l0,0
		C1465.18,49.01,1464.51,48.34,1464.51,47.51z M1458.51,47.51c0-0.83,0.67-1.5,1.5-1.5l0,0c0.82,0,1.5,0.67,1.5,1.5l0,0
		c0,0.83-0.68,1.5-1.5,1.5l0,0C1459.18,49.01,1458.51,48.34,1458.51,47.51z M1452.5,47.51c0-0.83,0.67-1.5,1.5-1.5l0,0
		c0.83,0,1.5,0.67,1.5,1.5l0,0c0,0.83-0.67,1.5-1.5,1.5l0,0C1453.17,49.01,1452.5,48.34,1452.5,47.51z M1446.5,47.51
		c0-0.83,0.67-1.5,1.5-1.5l0,0c0.83,0,1.5,0.67,1.5,1.5l0,0c0,0.83-0.67,1.5-1.5,1.5l0,0C1447.17,49.01,1446.5,48.34,1446.5,47.51z
		 M1440.5,47.51c0-0.83,0.67-1.5,1.5-1.5l0,0c0.819,0,1.5,0.67,1.5,1.5l0,0c0,0.83-0.681,1.5-1.5,1.5l0,0
		C1441.17,49.01,1440.5,48.34,1440.5,47.51z M1434.49,47.51c0-0.83,0.67-1.5,1.5-1.5l0,0c0.829,0,1.5,0.67,1.5,1.5l0,0
		c0,0.83-0.671,1.5-1.5,1.5l0,0C1435.16,49.01,1434.49,48.34,1434.49,47.51z M1428.49,47.51c0-0.83,0.67-1.5,1.5-1.5l0,0
		c0.83,0,1.5,0.67,1.5,1.5l0,0c0,0.83-0.67,1.5-1.5,1.5l0,0C1429.16,49.01,1428.49,48.34,1428.49,47.51z M1644.6,47.51
		c0-0.83,0.67-1.5,1.5-1.5l0,0c0.82,0,1.5,0.67,1.5,1.5l0,0c0,0.82-0.68,1.5-1.5,1.5l0,0C1645.27,49.01,1644.6,48.33,1644.6,47.51z
		 M1638.59,47.51c0-0.83,0.67-1.5,1.5-1.5l0,0c0.83,0,1.5,0.67,1.5,1.5l0,0c0,0.82-0.67,1.5-1.5,1.5l0,0
		C1639.26,49.01,1638.59,48.33,1638.59,47.51z M1632.59,47.51c0-0.83,0.67-1.5,1.5-1.5l0,0c0.83,0,1.5,0.67,1.5,1.5l0,0
		c0,0.82-0.67,1.5-1.5,1.5l0,0C1633.26,49.01,1632.59,48.33,1632.59,47.51z M1626.59,47.51c0-0.83,0.67-1.5,1.49-1.5l0,0
		c0.83,0,1.51,0.67,1.51,1.5l0,0c0,0.82-0.68,1.5-1.51,1.5l0,0C1627.26,49.01,1626.59,48.33,1626.59,47.51z M1620.58,47.51
		c0-0.83,0.67-1.5,1.5-1.5l0,0c0.83,0,1.5,0.67,1.5,1.5l0,0c0,0.82-0.67,1.5-1.5,1.5l0,0C1621.25,49.01,1620.58,48.33,1620.58,47.51
		z M1614.58,47.51c0-0.83,0.67-1.5,1.5-1.5l0,0c0.83,0,1.5,0.67,1.5,1.5l0,0c0,0.82-0.67,1.5-1.5,1.5l0,0
		C1615.25,49.01,1614.58,48.33,1614.58,47.51z M1608.58,47.51c0-0.83,0.67-1.5,1.5-1.5l0,0c0.83,0,1.5,0.67,1.5,1.5l0,0
		c0,0.82-0.67,1.5-1.5,1.5l0,0C1609.25,49.01,1608.58,48.33,1608.58,47.51z M1602.569,47.51c0-0.83,0.671-1.5,1.5-1.5l0,0
		c0.83,0,1.5,0.67,1.5,1.5l0,0c0,0.82-0.67,1.5-1.5,1.5l0,0C1603.24,49.01,1602.569,48.33,1602.569,47.51z M1596.569,47.51
		c0-0.83,0.671-1.5,1.5-1.5l0,0c0.83,0,1.5,0.67,1.5,1.5l0,0c0,0.82-0.67,1.5-1.5,1.5l0,0
		C1597.24,49.01,1596.569,48.33,1596.569,47.51z M1590.569,47.51c0-0.83,0.671-1.5,1.5-1.5l0,0c0.83,0,1.5,0.67,1.5,1.5l0,0
		c0,0.83-0.67,1.5-1.5,1.5l0,0C1591.24,49.01,1590.569,48.34,1590.569,47.51z M1584.56,47.51c0-0.83,0.681-1.5,1.5-1.5l0,0
		c0.83,0,1.5,0.67,1.5,1.5l0,0c0,0.83-0.67,1.5-1.5,1.5l0,0C1585.24,49.01,1584.56,48.34,1584.56,47.51z M1578.56,47.51
		c0-0.83,0.67-1.5,1.5-1.5l0,0c0.83,0,1.5,0.67,1.5,1.5l0,0c0,0.83-0.67,1.5-1.5,1.5l0,0
		C1579.229,49.01,1578.56,48.34,1578.56,47.51z M1572.56,47.51c0-0.83,0.67-1.5,1.5-1.5l0,0c0.83,0,1.5,0.67,1.5,1.5l0,0
		c0,0.83-0.67,1.5-1.5,1.5l0,0C1573.229,49.01,1572.56,48.34,1572.56,47.51z M1566.56,47.51c0-0.83,0.67-1.5,1.5-1.5l0,0
		c0.82,0,1.5,0.67,1.5,1.5l0,0c0,0.83-0.68,1.5-1.5,1.5l0,0C1567.229,49.01,1566.56,48.34,1566.56,47.51z M1560.56,47.51
		c0-0.83,0.67-1.5,1.49-1.5l0,0c0.83,0,1.5,0.67,1.5,1.5l0,0c0,0.83-0.67,1.5-1.5,1.5l0,0
		C1561.229,49.01,1560.56,48.34,1560.56,47.51z M1554.55,47.51c0-0.83,0.67-1.5,1.5-1.5l0,0c0.83,0,1.5,0.67,1.5,1.5l0,0
		c0,0.83-0.67,1.5-1.5,1.5l0,0C1555.22,49.01,1554.55,48.34,1554.55,47.51z M1548.55,47.51c0-0.83,0.67-1.5,1.5-1.5l0,0
		c0.83,0,1.5,0.67,1.5,1.5l0,0c0,0.83-0.67,1.5-1.5,1.5l0,0C1549.22,49.01,1548.55,48.34,1548.55,47.51z M1542.55,47.51
		c0-0.83,0.67-1.5,1.5-1.5l0,0c0.82,0,1.5,0.67,1.5,1.5l0,0c0,0.83-0.68,1.5-1.5,1.5l0,0C1543.22,49.01,1542.55,48.34,1542.55,47.51
		z M1536.54,47.51c0-0.83,0.67-1.5,1.5-1.5l0,0c0.83,0,1.5,0.67,1.5,1.5l0,0c0,0.83-0.67,1.5-1.5,1.5l0,0
		C1537.21,49.01,1536.54,48.34,1536.54,47.51z M1812.7,47.5c0-0.83,0.67-1.5,1.5-1.5l0,0c0.83,0,1.5,0.67,1.5,1.5l0,0
		c0,0.83-0.67,1.5-1.5,1.5l0,0C1813.37,49,1812.7,48.33,1812.7,47.5z M1806.689,47.5c0-0.83,0.67-1.5,1.5-1.5l0,0
		c0.83,0,1.5,0.67,1.5,1.5l0,0c0,0.83-0.67,1.5-1.5,1.5l0,0C1807.359,49,1806.689,48.33,1806.689,47.5z M1800.689,47.5
		c0-0.83,0.67-1.5,1.5-1.5l0,0c0.83,0,1.5,0.67,1.5,1.5l0,0c0,0.83-0.67,1.5-1.5,1.5l0,0C1801.359,49,1800.689,48.33,1800.689,47.5z
		 M1794.68,47.5c0-0.83,0.67-1.5,1.5-1.5l0,0c0.83,0,1.5,0.67,1.5,1.5l0,0c0,0.83-0.67,1.5-1.5,1.5l0,0
		C1795.35,49,1794.68,48.33,1794.68,47.5z M1788.68,47.5c0-0.83,0.67-1.5,1.5-1.5l0,0c0.83,0,1.5,0.67,1.5,1.5l0,0
		c0,0.83-0.67,1.5-1.5,1.5l0,0C1789.35,49,1788.68,48.33,1788.68,47.5z M1782.68,47.5c0-0.83,0.67-1.5,1.5-1.5l0,0
		c0.82,0,1.5,0.67,1.5,1.5l0,0c0,0.83-0.68,1.5-1.5,1.5l0,0C1783.35,49,1782.68,48.33,1782.68,47.5z M1776.67,47.5
		c0-0.83,0.67-1.5,1.5-1.5l0,0c0.83,0,1.5,0.67,1.5,1.5l0,0c0,0.83-0.67,1.5-1.5,1.5l0,0C1777.34,49,1776.67,48.33,1776.67,47.5z
		 M1770.67,47.5c0-0.83,0.67-1.5,1.5-1.5l0,0c0.82,0,1.5,0.67,1.5,1.5l0,0c0,0.83-0.68,1.5-1.5,1.5l0,0
		C1771.34,49,1770.67,48.33,1770.67,47.5z M1764.66,47.5c0-0.83,0.67-1.5,1.5-1.5l0,0c0.83,0,1.5,0.67,1.5,1.5l0,0
		c0,0.83-0.67,1.5-1.5,1.5l0,0C1765.33,49,1764.66,48.33,1764.66,47.5z M1758.66,47.5c0-0.82,0.67-1.5,1.5-1.5l0,0
		c0.83,0,1.5,0.68,1.5,1.5l0,0c0,0.83-0.67,1.5-1.5,1.5l0,0C1759.33,49,1758.66,48.33,1758.66,47.5z M1752.649,47.5
		c0-0.82,0.681-1.5,1.5-1.5l0,0c0.83,0,1.511,0.68,1.511,1.5l0,0c0,0.83-0.681,1.5-1.511,1.5l0,0
		C1753.33,49,1752.649,48.33,1752.649,47.5z M1746.649,47.5c0-0.82,0.67-1.5,1.5-1.5l0,0c0.83,0,1.5,0.68,1.5,1.5l0,0
		c0,0.83-0.67,1.5-1.5,1.5l0,0C1747.319,49,1746.649,48.33,1746.649,47.5z M1740.649,47.5c0-0.82,0.67-1.5,1.5-1.5l0,0
		c0.83,0,1.5,0.68,1.5,1.5l0,0c0,0.83-0.67,1.5-1.5,1.5l0,0C1741.319,49,1740.649,48.33,1740.649,47.5z M1734.649,47.5
		c0-0.82,0.67-1.5,1.49-1.5l0,0c0.83,0,1.5,0.68,1.5,1.5l0,0c0,0.83-0.67,1.5-1.5,1.5l0,0C1735.319,49,1734.649,48.33,1734.649,47.5
		z M1728.64,47.5c0-0.82,0.67-1.5,1.5-1.5l0,0c0.83,0,1.5,0.68,1.5,1.5l0,0c0,0.83-0.67,1.5-1.5,1.5l0,0
		C1729.31,49,1728.64,48.33,1728.64,47.5z M1722.64,47.5c0-0.82,0.67-1.5,1.5-1.5l0,0c0.83,0,1.5,0.68,1.5,1.5l0,0
		c0,0.83-0.67,1.5-1.5,1.5l0,0C1723.31,49,1722.64,48.33,1722.64,47.5z M1716.63,47.5c0-0.82,0.67-1.5,1.5-1.5l0,0
		c0.83,0,1.5,0.68,1.5,1.5l0,0c0,0.83-0.67,1.5-1.5,1.5l0,0C1717.3,49,1716.63,48.33,1716.63,47.5z M1710.63,47.5
		c0-0.82,0.67-1.5,1.5-1.5l0,0c0.83,0,1.5,0.68,1.5,1.5l0,0c0,0.83-0.67,1.5-1.5,1.5l0,0C1711.3,49,1710.63,48.33,1710.63,47.5z
		 M1704.63,47.5c0-0.82,0.67-1.5,1.5-1.5l0,0c0.83,0,1.5,0.68,1.5,1.5l0,0c0,0.83-0.67,1.5-1.5,1.5l0,0
		C1705.3,49,1704.63,48.33,1704.63,47.5z M1698.62,47.51c0-0.83,0.67-1.5,1.5-1.5l0,0c0.83,0,1.5,0.67,1.5,1.5l0,0
		c0,0.82-0.67,1.49-1.5,1.49l0,0C1699.29,49,1698.62,48.33,1698.62,47.51z M1692.62,47.51c0-0.83,0.67-1.5,1.5-1.5l0,0
		c0.83,0,1.5,0.67,1.5,1.5l0,0c0,0.82-0.67,1.49-1.5,1.49l0,0C1693.29,49,1692.62,48.33,1692.62,47.51z M1686.62,47.51
		c0-0.83,0.67-1.5,1.5-1.5l0,0c0.83,0,1.5,0.67,1.5,1.5l0,0c0,0.82-0.67,1.49-1.5,1.49l0,0C1687.29,49,1686.62,48.33,1686.62,47.51z
		 M1680.609,47.51c0-0.83,0.671-1.5,1.511-1.5l0,0c0.819,0,1.489,0.67,1.489,1.5l0,0c0,0.82-0.67,1.49-1.489,1.49l0,0
		C1681.28,49,1680.609,48.33,1680.609,47.51z M1674.609,47.51c0-0.83,0.671-1.5,1.5-1.5l0,0c0.83,0,1.5,0.67,1.5,1.5l0,0
		c0,0.82-0.67,1.49-1.5,1.49l0,0C1675.28,49,1674.609,48.33,1674.609,47.51z M1668.609,47.51c0-0.83,0.671-1.5,1.5-1.5l0,0
		c0.83,0,1.5,0.67,1.5,1.5l0,0c0,0.82-0.67,1.49-1.5,1.49l0,0C1669.28,49,1668.609,48.33,1668.609,47.51z M1662.6,47.51
		c0-0.83,0.681-1.5,1.5-1.5l0,0c0.83,0,1.5,0.67,1.5,1.5l0,0c0,0.82-0.67,1.49-1.5,1.49l0,0C1663.28,49,1662.6,48.33,1662.6,47.51z
		 M1656.6,47.51c0-0.83,0.67-1.5,1.5-1.5l0,0c0.83,0,1.5,0.67,1.5,1.5l0,0c0,0.82-0.67,1.49-1.5,1.49l0,0
		C1657.27,49,1656.6,48.33,1656.6,47.51z M1650.6,47.51c0-0.83,0.67-1.5,1.5-1.5l0,0c0.83,0,1.5,0.67,1.5,1.5l0,0
		c0,0.82-0.67,1.49-1.5,1.49l0,0C1651.27,49,1650.6,48.33,1650.6,47.51z M1920.81,47.5c0-0.83,0.681-1.5,1.5-1.5l0,0
		c0.83,0,1.5,0.67,1.5,1.5l0,0c0,0.83-0.67,1.5-1.5,1.5l0,0C1921.49,49,1920.81,48.33,1920.81,47.5z M1914.81,47.5
		c0-0.83,0.67-1.5,1.5-1.5l0,0c0.82,0,1.5,0.67,1.5,1.5l0,0c0,0.83-0.68,1.5-1.5,1.5l0,0C1915.479,49,1914.81,48.33,1914.81,47.5z
		 M1908.8,47.5c0-0.83,0.67-1.5,1.5-1.5l0,0c0.82,0,1.5,0.67,1.5,1.5l0,0c0,0.83-0.68,1.5-1.5,1.5l0,0
		C1909.47,49,1908.8,48.33,1908.8,47.5z M1902.79,47.5c0-0.83,0.67-1.5,1.5-1.5l0,0c0.83,0,1.5,0.67,1.5,1.5l0,0
		c0,0.83-0.67,1.5-1.5,1.5l0,0C1903.46,49,1902.79,48.33,1902.79,47.5z M1896.78,47.5c0-0.83,0.67-1.5,1.5-1.5l0,0
		c0.829,0,1.5,0.67,1.5,1.5l0,0c0,0.83-0.671,1.5-1.5,1.5l0,0C1897.45,49,1896.78,48.33,1896.78,47.5z M1890.77,47.5
		c0-0.83,0.67-1.5,1.5-1.5l0,0c0.83,0,1.5,0.67,1.5,1.5l0,0c0,0.83-0.67,1.5-1.5,1.5l0,0C1891.439,49,1890.77,48.33,1890.77,47.5z
		 M1884.76,47.5c0-0.83,0.68-1.5,1.5-1.5l0,0c0.83,0,1.51,0.67,1.51,1.5l0,0c0,0.83-0.68,1.5-1.51,1.5l0,0
		C1885.439,49,1884.76,48.33,1884.76,47.5z M1878.76,47.5c0-0.83,0.67-1.5,1.5-1.5l0,0c0.82,0,1.5,0.67,1.5,1.5l0,0
		c0,0.83-0.68,1.5-1.5,1.5l0,0C1879.43,49,1878.76,48.33,1878.76,47.5z M1872.75,47.5c0-0.83,0.67-1.5,1.5-1.5l0,0
		c0.83,0,1.5,0.67,1.5,1.5l0,0c0,0.83-0.67,1.5-1.5,1.5l0,0C1873.42,49,1872.75,48.33,1872.75,47.5z M1866.74,47.5
		c0-0.83,0.68-1.5,1.5-1.5l0,0c0.829,0,1.5,0.67,1.5,1.5l0,0c0,0.83-0.671,1.5-1.5,1.5l0,0C1867.42,49,1866.74,48.33,1866.74,47.5z
		 M1860.74,47.5c0-0.83,0.67-1.5,1.5-1.5l0,0c0.829,0,1.5,0.67,1.5,1.5l0,0c0,0.83-0.671,1.5-1.5,1.5l0,0
		C1861.41,49,1860.74,48.33,1860.74,47.5z M1854.729,47.5c0-0.83,0.67-1.5,1.5-1.5l0,0c0.83,0,1.5,0.67,1.5,1.5l0,0
		c0,0.83-0.67,1.5-1.5,1.5l0,0C1855.399,49,1854.729,48.33,1854.729,47.5z M1850.229,49L1850.229,49L1850.229,49L1850.229,49
		L1850.229,49z M1842.72,47.5c0-0.83,0.67-1.5,1.5-1.5l0,0c0.83,0,1.5,0.67,1.5,1.5l0,0c0,0.83-0.67,1.5-1.5,1.5l0,0
		C1843.39,49,1842.72,48.33,1842.72,47.5z M1838.21,49c0.01,0,0.01,0,0.01,0l0,0l0,0l0,0C1838.22,49,1838.22,49,1838.21,49z
		 M1830.71,47.5c0-0.83,0.67-1.5,1.5-1.5l0,0c0.83,0,1.5,0.67,1.5,1.5l0,0c0,0.83-0.67,1.5-1.5,1.5l0,0
		C1831.38,49,1830.71,48.33,1830.71,47.5z M1824.71,47.5c0-0.83,0.67-1.5,1.5-1.5l0,0c0.82,0,1.5,0.67,1.5,1.5l0,0
		c0,0.83-0.68,1.5-1.5,1.5l0,0C1825.38,49,1824.71,48.33,1824.71,47.5z M1818.7,47.5c0-0.83,0.67-1.5,1.5-1.5l0,0
		c0.83,0,1.5,0.67,1.5,1.5l0,0c0,0.83-0.67,1.5-1.5,1.5l0,0C1819.37,49,1818.7,48.33,1818.7,47.5z M1836.72,47.5
		c0-0.83,0.67-1.5,1.5-1.5l0,0c0.83,0,1.5,0.67,1.5,1.5l0,0c0,0.83-0.67,1.5-1.5,1.5l0,0C1837.39,49,1836.72,48.33,1836.72,47.5z
		 M1848.729,47.5c0-0.83,0.67-1.5,1.5-1.5l0,0c0.83,0,1.5,0.67,1.5,1.5l0,0c0,0.83-0.67,1.5-1.5,1.5l0,0
		C1849.399,49,1848.729,48.33,1848.729,47.5z M2227.1,47.5c0-0.83,0.67-1.5,1.5-1.5l0,0c0.83,0,1.5,0.67,1.5,1.5l0,0
		c0,0.83-0.67,1.5-1.5,1.5l0,0C2227.77,49,2227.1,48.33,2227.1,47.5z M2221.1,47.5c0-0.83,0.67-1.5,1.5-1.5l0,0
		c0.83,0,1.5,0.67,1.5,1.5l0,0c0,0.83-0.67,1.5-1.5,1.5l0,0C2221.77,49,2221.1,48.33,2221.1,47.5z M2215.1,47.5
		c0-0.83,0.67-1.5,1.5-1.5l0,0c0.83,0,1.5,0.67,1.5,1.5l0,0c0,0.83-0.67,1.5-1.5,1.5l0,0C2215.77,49,2215.1,48.33,2215.1,47.5z
		 M2209.1,47.5c0-0.83,0.67-1.5,1.5-1.5l0,0c0.83,0,1.5,0.67,1.5,1.5l0,0c0,0.83-0.67,1.5-1.5,1.5l0,0
		C2209.77,49,2209.1,48.33,2209.1,47.5z M2203.1,47.5c0-0.83,0.67-1.5,1.5-1.5l0,0c0.83,0,1.5,0.67,1.5,1.5l0,0
		c0,0.83-0.67,1.5-1.5,1.5l0,0C2203.77,49,2203.1,48.33,2203.1,47.5z M2197.1,47.5c0-0.83,0.67-1.5,1.5-1.5l0,0
		c0.83,0,1.5,0.67,1.5,1.5l0,0c0,0.83-0.67,1.5-1.5,1.5l0,0C2197.77,49,2197.1,48.33,2197.1,47.5z M2191.1,47.5
		c0-0.83,0.67-1.5,1.5-1.5l0,0c0.83,0,1.5,0.67,1.5,1.5l0,0c0,0.83-0.67,1.5-1.5,1.5l0,0C2191.77,49,2191.1,48.33,2191.1,47.5z
		 M2185.1,47.5c0-0.83,0.67-1.5,1.5-1.5l0,0c0.83,0,1.5,0.67,1.5,1.5l0,0c0,0.83-0.67,1.5-1.5,1.5l0,0
		C2185.77,49,2185.1,48.33,2185.1,47.5z M2179.1,47.5c0-0.83,0.67-1.5,1.5-1.5l0,0c0.83,0,1.5,0.67,1.5,1.5l0,0
		c0,0.83-0.67,1.5-1.5,1.5l0,0C2179.77,49,2179.1,48.33,2179.1,47.5z M2173.1,47.5c0-0.83,0.67-1.5,1.5-1.5l0,0
		c0.83,0,1.5,0.67,1.5,1.5l0,0c0,0.83-0.67,1.5-1.5,1.5l0,0C2173.77,49,2173.1,48.33,2173.1,47.5z M2167.1,47.5
		c0-0.83,0.67-1.5,1.5-1.5l0,0c0.83,0,1.5,0.67,1.5,1.5l0,0c0,0.83-0.67,1.5-1.5,1.5l0,0C2167.77,49,2167.1,48.33,2167.1,47.5z
		 M2161.1,47.5c0-0.83,0.67-1.5,1.5-1.5l0,0c0.83,0,1.5,0.67,1.5,1.5l0,0c0,0.83-0.67,1.5-1.5,1.5l0,0
		C2161.77,49,2161.1,48.33,2161.1,47.5z M2155.1,47.5c0-0.83,0.67-1.5,1.5-1.5l0,0c0.83,0,1.5,0.67,1.5,1.5l0,0
		c0,0.83-0.67,1.5-1.5,1.5l0,0C2155.77,49,2155.1,48.33,2155.1,47.5z M2149.1,47.5c0-0.83,0.67-1.5,1.5-1.5l0,0
		c0.83,0,1.5,0.67,1.5,1.5l0,0c0,0.83-0.67,1.5-1.5,1.5l0,0C2149.77,49,2149.1,48.33,2149.1,47.5z M2143.1,47.5
		c0-0.83,0.67-1.5,1.5-1.5l0,0c0.83,0,1.5,0.67,1.5,1.5l0,0c0,0.83-0.67,1.5-1.5,1.5l0,0C2143.77,49,2143.1,48.33,2143.1,47.5z
		 M2137.1,47.5c0-0.83,0.67-1.5,1.5-1.5l0,0c0.83,0,1.5,0.67,1.5,1.5l0,0c0,0.83-0.67,1.5-1.5,1.5l0,0
		C2137.77,49,2137.1,48.33,2137.1,47.5z M2131.1,47.5c0-0.83,0.67-1.5,1.5-1.5l0,0c0.83,0,1.5,0.67,1.5,1.5l0,0
		c0,0.83-0.67,1.5-1.5,1.5l0,0C2131.77,49,2131.1,48.33,2131.1,47.5z M2125.1,47.5c0-0.83,0.67-1.5,1.5-1.5l0,0
		c0.83,0,1.5,0.67,1.5,1.5l0,0c0,0.83-0.67,1.5-1.5,1.5l0,0C2125.77,49,2125.1,48.33,2125.1,47.5z M2119.1,47.5
		c0-0.83,0.67-1.5,1.5-1.5l0,0c0.83,0,1.5,0.67,1.5,1.5l0,0c0,0.83-0.67,1.5-1.5,1.5l0,0C2119.77,49,2119.1,48.33,2119.1,47.5z
		 M2113.1,47.5c0-0.83,0.67-1.5,1.5-1.5l0,0c0.83,0,1.5,0.67,1.5,1.5l0,0c0,0.83-0.67,1.5-1.5,1.5l0,0
		C2113.77,49,2113.1,48.33,2113.1,47.5z M2107.1,47.5c0-0.83,0.67-1.5,1.5-1.5l0,0c0.83,0,1.5,0.67,1.5,1.5l0,0
		c0,0.83-0.67,1.5-1.5,1.5l0,0C2107.77,49,2107.1,48.33,2107.1,47.5z M2101.1,47.5c0-0.83,0.67-1.5,1.5-1.5l0,0
		c0.83,0,1.5,0.67,1.5,1.5l0,0c0,0.83-0.67,1.5-1.5,1.5l0,0C2101.77,49,2101.1,48.33,2101.1,47.5z M2095.1,47.5
		c0-0.83,0.67-1.5,1.5-1.5l0,0c0.83,0,1.51,0.67,1.51,1.5l0,0c0,0.83-0.68,1.5-1.51,1.5l0,0C2095.77,49,2095.1,48.33,2095.1,47.5z
		 M2089.1,47.5c0-0.83,0.681-1.5,1.5-1.5l0,0c0.83,0,1.5,0.67,1.5,1.5l0,0c0,0.83-0.67,1.5-1.5,1.5l0,0
		C2089.78,49,2089.1,48.33,2089.1,47.5z M2083.109,47.5c0-0.83,0.66-1.5,1.49-1.5l0,0c0.83,0,1.5,0.67,1.5,1.5l0,0
		c0,0.83-0.67,1.5-1.5,1.5l0,0C2083.77,49,2083.109,48.33,2083.109,47.5z M2077.1,47.5c0-0.83,0.67-1.5,1.5-1.5l0,0
		c0.83,0,1.5,0.67,1.5,1.5l0,0c0,0.83-0.67,1.5-1.5,1.5l0,0C2077.77,49,2077.1,48.33,2077.1,47.5z M2071.1,47.5
		c0-0.83,0.67-1.5,1.5-1.5l0,0c0.83,0,1.5,0.67,1.5,1.5l0,0c0,0.83-0.67,1.5-1.5,1.5l0,0C2071.77,49,2071.1,48.33,2071.1,47.5z
		 M2065.1,47.5c0-0.83,0.67-1.5,1.5-1.5l0,0c0.83,0,1.5,0.67,1.5,1.5l0,0c0,0.83-0.67,1.5-1.5,1.5l0,0
		C2065.77,49,2065.1,48.33,2065.1,47.5z M2059.1,47.5c0-0.83,0.67-1.5,1.5-1.5l0,0c0.83,0,1.5,0.67,1.5,1.5l0,0
		c0,0.83-0.67,1.5-1.5,1.5l0,0C2059.77,49,2059.1,48.33,2059.1,47.5z M2053.1,47.5c0-0.83,0.67-1.5,1.5-1.5l0,0
		c0.83,0,1.5,0.67,1.5,1.5l0,0c0,0.83-0.67,1.5-1.5,1.5l0,0C2053.77,49,2053.1,48.33,2053.1,47.5z M2047.1,47.5
		c0-0.83,0.67-1.5,1.5-1.5l0,0c0.83,0,1.5,0.67,1.5,1.5l0,0c0,0.83-0.67,1.5-1.5,1.5l0,0C2047.77,49,2047.1,48.33,2047.1,47.5z
		 M2041.1,47.5c0-0.83,0.67-1.5,1.5-1.5l0,0c0.83,0,1.5,0.67,1.5,1.5l0,0c0,0.83-0.67,1.5-1.5,1.5l0,0
		C2041.77,49,2041.1,48.33,2041.1,47.5z M2035.1,47.5c0-0.83,0.67-1.5,1.51-1.5l0,0c0.82,0,1.49,0.67,1.49,1.5l0,0
		c0,0.83-0.67,1.5-1.49,1.5l0,0C2035.77,49,2035.1,48.33,2035.1,47.5z M2029.1,47.5c0-0.83,0.67-1.5,1.5-1.5l0,0
		c0.83,0,1.5,0.67,1.5,1.5l0,0c0,0.83-0.67,1.5-1.5,1.5l0,0C2029.77,49,2029.1,48.33,2029.1,47.5z M2023.1,47.5
		c0-0.83,0.67-1.5,1.5-1.5l0,0c0.83,0,1.5,0.67,1.5,1.5l0,0c0,0.83-0.67,1.5-1.5,1.5l0,0C2023.77,49,2023.1,48.33,2023.1,47.5z
		 M2017.1,47.5c0-0.83,0.67-1.5,1.5-1.5l0,0c0.83,0,1.5,0.67,1.5,1.5l0,0c0,0.83-0.67,1.5-1.5,1.5l0,0
		C2017.77,49,2017.1,48.33,2017.1,47.5z M2011.1,47.5c0-0.83,0.67-1.5,1.5-1.5l0,0c0.83,0,1.5,0.67,1.5,1.5l0,0
		c0,0.83-0.67,1.5-1.5,1.5l0,0C2011.77,49,2011.1,48.33,2011.1,47.5z M2005.1,47.5c0-0.83,0.67-1.5,1.5-1.5l0,0
		c0.83,0,1.5,0.67,1.5,1.5l0,0c0,0.83-0.67,1.5-1.5,1.5l0,0C2005.77,49,2005.1,48.33,2005.1,47.5z M1999.1,47.5
		c0-0.83,0.67-1.5,1.5-1.5l0,0c0.83,0,1.5,0.67,1.5,1.5l0,0c0,0.83-0.67,1.5-1.5,1.5l0,0C1999.77,49,1999.1,48.33,1999.1,47.5z
		 M1993.1,47.5c0-0.83,0.67-1.5,1.5-1.5l0,0c0.83,0,1.5,0.67,1.5,1.5l0,0c0,0.83-0.67,1.5-1.5,1.5l0,0
		C1993.77,49,1993.1,48.33,1993.1,47.5z M1987.1,47.5c0-0.83,0.67-1.5,1.5-1.5l0,0c0.83,0,1.51,0.67,1.51,1.5l0,0
		c0,0.83-0.68,1.5-1.51,1.5l0,0C1987.77,49,1987.1,48.33,1987.1,47.5z M1981.1,47.5c0-0.83,0.67-1.5,1.5-1.5l0,0
		c0.83,0,1.5,0.67,1.5,1.5l0,0c0,0.83-0.67,1.5-1.5,1.5l0,0C1981.77,49,1981.1,48.33,1981.1,47.5z M1975.02,47.5
		c0-0.83,0.67-1.5,1.49-1.5l0,0c0.84,0,1.51,0.67,1.51,1.5l0,0c0,0.83-0.67,1.5-1.51,1.5l0,0
		C1975.689,49,1975.02,48.33,1975.02,47.5z M1968.96,47.5c0-0.83,0.67-1.5,1.5-1.5l0,0c0.83,0,1.5,0.67,1.5,1.5l0,0
		c0,0.83-0.67,1.5-1.5,1.5l0,0C1969.63,49,1968.96,48.33,1968.96,47.5z M1962.93,47.5c0-0.83,0.67-1.5,1.5-1.5l0,0
		c0.83,0,1.5,0.67,1.5,1.5l0,0c0,0.83-0.67,1.5-1.5,1.5l0,0C1963.6,49,1962.93,48.33,1962.93,47.5z M1956.899,47.5
		c0-0.83,0.67-1.5,1.5-1.5l0,0c0.83,0,1.5,0.67,1.5,1.5l0,0c0,0.83-0.67,1.5-1.5,1.5l0,0C1957.569,49,1956.899,48.33,1956.899,47.5z
		 M1950.88,47.5c0-0.83,0.67-1.5,1.5-1.5l0,0c0.83,0,1.5,0.67,1.5,1.5l0,0c0,0.83-0.67,1.5-1.5,1.5l0,0
		C1951.55,49,1950.88,48.33,1950.88,47.5z M1944.87,47.5c0-0.83,0.67-1.5,1.5-1.5l0,0c0.819,0,1.5,0.67,1.5,1.5l0,0
		c0,0.83-0.681,1.5-1.5,1.5l0,0C1945.54,49,1944.87,48.33,1944.87,47.5z M1938.85,47.5c0-0.83,0.67-1.5,1.5-1.5l0,0
		c0.83,0,1.5,0.67,1.5,1.5l0,0c0,0.83-0.67,1.5-1.5,1.5l0,0C1939.52,49,1938.85,48.33,1938.85,47.5z M1932.84,47.5
		c0-0.83,0.67-1.5,1.5-1.5l0,0c0.82,0,1.5,0.67,1.5,1.5l0,0c0,0.83-0.68,1.5-1.5,1.5l0,0C1933.51,49,1932.84,48.33,1932.84,47.5z
		 M1926.83,47.5c0-0.83,0.67-1.5,1.5-1.5l0,0c0.819,0,1.489,0.67,1.489,1.5l0,0c0,0.83-0.67,1.5-1.489,1.5l0,0
		C1927.5,49,1926.83,48.33,1926.83,47.5z M889.31,48.93c-0.83-0.03-1.47-0.729-1.44-1.56l0,0c0.04-0.83,0.74-1.471,1.56-1.431l0,0
		l0,0l0,0c0.83,0.03,1.47,0.73,1.44,1.561l0,0c-0.03,0.81-0.7,1.439-1.5,1.439l0,0C889.35,48.939,889.33,48.939,889.31,48.93z
		 M883.16,48.359c-0.82-0.13-1.37-0.899-1.24-1.71l0,0c0.13-0.819,0.89-1.38,1.71-1.25l0,0c0.82,0.131,1.38,0.9,1.25,1.721l0,0
		c-0.12,0.729-0.76,1.26-1.48,1.26l0,0C883.32,48.38,883.24,48.38,883.16,48.359z M877.04,46.71L877.04,46.71
		c-0.76-0.32-1.12-1.2-0.81-1.96l0,0c0.32-0.771,1.2-1.13,1.97-0.811l0,0c0.76,0.32,1.12,1.2,0.8,1.96l0,0
		c-0.24,0.58-0.79,0.92-1.38,0.92l0,0C877.43,46.819,877.23,46.79,877.04,46.71z M1838.21,46c0.01,0,0.01,0,0.01,0l0,0l0,0l0,0
		C1838.22,46,1838.22,46,1838.21,46z M871.59,43.069c-0.58-0.6-0.56-1.55,0.04-2.119l0,0c0.6-0.58,1.54-0.561,2.12,0.04l0,0
		c0.57,0.6,0.56,1.55-0.04,2.119l0,0c-0.29,0.28-0.67,0.421-1.04,0.421l0,0C872.28,43.53,871.88,43.38,871.59,43.069z M868.18,37.45
		L868.18,37.45c-0.28-0.78,0.13-1.641,0.91-1.92l0,0c0.78-0.271,1.64,0.13,1.92,0.909l0,0c0.27,0.78-0.13,1.641-0.91,1.92l0,0
		c-0.17,0.061-0.34,0.091-0.51,0.091l0,0C868.98,38.45,868.4,38.06,868.18,37.45z M866.93,31.2c-0.06-0.82,0.56-1.54,1.38-1.6l0,0
		c0.83-0.07,1.55,0.55,1.61,1.38l0,0c0.06,0.82-0.55,1.54-1.38,1.6l0,0c-0.04,0.01-0.08,0.01-0.11,0.01l0,0
		C867.65,32.59,866.99,31.99,866.93,31.2z M866.62,25.32c-0.11-0.82,0.46-1.535,1.29-1.645l0,0c0.81-0.12,1.57,0.325,1.68,1.325l0,0
		c0,0,0,0,0.01,0l0,0c0.11,0-0.47,1.535-1.28,1.645l0,0c-0.07,0.011-0.14-0.012-0.21-0.012l0,0
		C867.37,26.632,866.73,26.07,866.62,25.32z M865.06,20.07c-0.37-0.75-0.06-1.65,0.68-2.01l0,0c0.74-0.37,1.64-0.07,2.01,0.68l0,0
		l0,0l0,0c0.37,0.74,0.06,1.64-0.68,2.01l0,0c-0.21,0.1-0.44,0.15-0.66,0.15l0,0C865.85,20.9,865.32,20.6,865.06,20.07z
		 M861.8,15.77c-0.61-0.56-0.66-1.5-0.11-2.12l0,0c0.56-0.61,1.51-0.66,2.12-0.11l0,0c0.62,0.56,0.67,1.5,0.11,2.12l0,0
		c-0.29,0.33-0.7,0.49-1.11,0.49l0,0C862.45,16.15,862.09,16.03,861.8,15.77z M857.16,12.84c-0.76-0.33-1.11-1.22-0.78-1.98l0,0
		c0.33-0.76,1.22-1.11,1.98-0.78l0,0c0.76,0.33,1.11,1.22,0.78,1.98l0,0c-0.25,0.56-0.8,0.9-1.38,0.9l0,0
		C857.56,12.96,857.36,12.92,857.16,12.84z M851.76,11.28L851.76,11.28c-0.82-0.14-1.37-0.91-1.24-1.73l0,0
		c0.13-0.82,0.9-1.37,1.72-1.23l0,0c0.82,0.13,1.37,0.9,1.24,1.72l0,0c-0.12,0.73-0.76,1.25-1.48,1.25l0,0
		C851.92,11.29,851.84,11.29,851.76,11.28z M844.5,9.5c0-0.83,0.67-1.5,1.5-1.5l0,0c0.83,0,1.5,0.67,1.5,1.5l0,0
		c0,0.83-0.67,1.5-1.5,1.5l0,0C845.17,11,844.5,10.33,844.5,9.5z M838.5,9.5c0-0.83,0.67-1.5,1.5-1.5l0,0c0.83,0,1.5,0.67,1.5,1.5
		l0,0c0,0.83-0.67,1.5-1.5,1.5l0,0C839.17,11,838.5,10.33,838.5,9.5z M832.5,9.5c0-0.83,0.67-1.5,1.5-1.5l0,0
		c0.83,0,1.5,0.67,1.5,1.5l0,0c0,0.83-0.67,1.5-1.5,1.5l0,0C833.17,11,832.5,10.33,832.5,9.5z M826.5,9.5c0-0.83,0.67-1.5,1.5-1.5
		l0,0c0.83,0,1.5,0.67,1.5,1.5l0,0c0,0.83-0.67,1.5-1.5,1.5l0,0C827.17,11,826.5,10.33,826.5,9.5z M820.5,9.5
		c0-0.83,0.67-1.5,1.5-1.5l0,0c0.83,0,1.5,0.67,1.5,1.5l0,0c0,0.83-0.67,1.5-1.5,1.5l0,0C821.17,11,820.5,10.33,820.5,9.5z
		 M814.5,9.5c0-0.83,0.67-1.5,1.5-1.5l0,0c0.83,0,1.5,0.67,1.5,1.5l0,0c0,0.83-0.67,1.5-1.5,1.5l0,0
		C815.17,11,814.5,10.33,814.5,9.5z M808.5,9.5c0-0.83,0.67-1.5,1.5-1.5l0,0c0.83,0,1.5,0.67,1.5,1.5l0,0c0,0.83-0.67,1.5-1.5,1.5
		l0,0C809.17,11,808.5,10.33,808.5,9.5z M802.5,9.5c0-0.83,0.67-1.5,1.5-1.5l0,0c0.83,0,1.5,0.67,1.5,1.5l0,0
		c0,0.83-0.67,1.5-1.5,1.5l0,0C803.17,11,802.5,10.33,802.5,9.5z M796.5,9.5c0-0.83,0.67-1.5,1.5-1.5l0,0c0.83,0,1.5,0.67,1.5,1.5
		l0,0c0,0.83-0.67,1.5-1.5,1.5l0,0C797.17,11,796.5,10.33,796.5,9.5z M790.5,9.5c0-0.83,0.67-1.5,1.5-1.5l0,0
		c0.83,0,1.5,0.67,1.5,1.5l0,0c0,0.83-0.67,1.5-1.5,1.5l0,0C791.17,11,790.5,10.33,790.5,9.5z M784.5,9.5c0-0.83,0.67-1.5,1.5-1.5
		l0,0c0.83,0,1.5,0.67,1.5,1.5l0,0c0,0.83-0.67,1.5-1.5,1.5l0,0C785.17,11,784.5,10.33,784.5,9.5z M778.5,9.5
		c0-0.83,0.67-1.5,1.5-1.5l0,0c0.83,0,1.5,0.67,1.5,1.5l0,0c0,0.83-0.67,1.5-1.5,1.5l0,0C779.17,11,778.5,10.33,778.5,9.5z
		 M772.5,9.5c0-0.83,0.67-1.5,1.5-1.5l0,0c0.83,0,1.5,0.67,1.5,1.5l0,0c0,0.83-0.67,1.5-1.5,1.5l0,0
		C773.17,11,772.5,10.33,772.5,9.5z M766.5,9.5c0-0.83,0.67-1.5,1.5-1.5l0,0c0.83,0,1.5,0.67,1.5,1.5l0,0c0,0.83-0.67,1.5-1.5,1.5
		l0,0C767.17,11,766.5,10.33,766.5,9.5z M760.5,9.5c0-0.83,0.67-1.5,1.5-1.5l0,0c0.83,0,1.5,0.67,1.5,1.5l0,0
		c0,0.83-0.67,1.5-1.5,1.5l0,0C761.17,11,760.5,10.33,760.5,9.5z M754.5,9.5c0-0.83,0.67-1.5,1.5-1.5l0,0c0.83,0,1.5,0.67,1.5,1.5
		l0,0c0,0.83-0.67,1.5-1.5,1.5l0,0C755.17,11,754.5,10.33,754.5,9.5z M748.5,9.5c0-0.83,0.67-1.5,1.5-1.5l0,0
		c0.83,0,1.5,0.67,1.5,1.5l0,0c0,0.83-0.67,1.5-1.5,1.5l0,0C749.17,11,748.5,10.33,748.5,9.5z M742.5,9.5c0-0.83,0.67-1.5,1.5-1.5
		l0,0c0.83,0,1.5,0.67,1.5,1.5l0,0c0,0.83-0.67,1.5-1.5,1.5l0,0C743.17,11,742.5,10.33,742.5,9.5z M736.5,9.5
		c0-0.83,0.67-1.5,1.5-1.5l0,0c0.83,0,1.5,0.67,1.5,1.5l0,0c0,0.83-0.67,1.5-1.5,1.5l0,0C737.17,11,736.5,10.33,736.5,9.5z
		 M730.5,9.5c0-0.83,0.67-1.5,1.5-1.5l0,0c0.83,0,1.5,0.67,1.5,1.5l0,0c0,0.83-0.67,1.5-1.5,1.5l0,0
		C731.17,11,730.5,10.33,730.5,9.5z M724.5,9.5c0-0.83,0.67-1.5,1.5-1.5l0,0c0.83,0,1.5,0.67,1.5,1.5l0,0c0,0.83-0.67,1.5-1.5,1.5
		l0,0C725.17,11,724.5,10.33,724.5,9.5z M718.5,9.5c0-0.83,0.67-1.5,1.5-1.5l0,0c0.83,0,1.5,0.67,1.5,1.5l0,0
		c0,0.83-0.67,1.5-1.5,1.5l0,0C719.17,11,718.5,10.33,718.5,9.5z M712.5,9.5c0-0.83,0.67-1.5,1.5-1.5l0,0c0.83,0,1.5,0.67,1.5,1.5
		l0,0c0,0.83-0.67,1.5-1.5,1.5l0,0C713.17,11,712.5,10.33,712.5,9.5z M706.5,9.5c0-0.83,0.67-1.5,1.5-1.5l0,0
		c0.83,0,1.5,0.67,1.5,1.5l0,0c0,0.83-0.67,1.5-1.5,1.5l0,0C707.17,11,706.5,10.33,706.5,9.5z M700.5,9.5c0-0.83,0.67-1.5,1.5-1.5
		l0,0c0.83,0,1.5,0.67,1.5,1.5l0,0c0,0.83-0.67,1.5-1.5,1.5l0,0C701.17,11,700.5,10.33,700.5,9.5z M694.5,9.5
		c0-0.83,0.67-1.5,1.5-1.5l0,0c0.83,0,1.5,0.67,1.5,1.5l0,0c0,0.83-0.67,1.5-1.5,1.5l0,0C695.17,11,694.5,10.33,694.5,9.5z
		 M688.5,9.5c0-0.83,0.67-1.5,1.5-1.5l0,0c0.83,0,1.5,0.67,1.5,1.5l0,0c0,0.83-0.67,1.5-1.5,1.5l0,0
		C689.17,11,688.5,10.33,688.5,9.5z M682.5,9.5c0-0.83,0.67-1.5,1.5-1.5l0,0c0.83,0,1.5,0.67,1.5,1.5l0,0c0,0.83-0.67,1.5-1.5,1.5
		l0,0C683.17,11,682.5,10.33,682.5,9.5z M676.5,9.5c0-0.83,0.67-1.5,1.5-1.5l0,0c0.83,0,1.5,0.67,1.5,1.5l0,0
		c0,0.83-0.67,1.5-1.5,1.5l0,0C677.17,11,676.5,10.33,676.5,9.5z M670.5,9.5c0-0.83,0.67-1.5,1.5-1.5l0,0c0.83,0,1.5,0.67,1.5,1.5
		l0,0c0,0.83-0.67,1.5-1.5,1.5l0,0C671.17,11,670.5,10.33,670.5,9.5z M664.5,9.5c0-0.83,0.67-1.5,1.5-1.5l0,0
		c0.83,0,1.5,0.67,1.5,1.5l0,0c0,0.83-0.67,1.5-1.5,1.5l0,0C665.17,11,664.5,10.33,664.5,9.5z M658.5,9.5c0-0.83,0.67-1.5,1.5-1.5
		l0,0c0.83,0,1.5,0.67,1.5,1.5l0,0c0,0.83-0.67,1.5-1.5,1.5l0,0C659.17,11,658.5,10.33,658.5,9.5z M652.5,9.5
		c0-0.83,0.67-1.5,1.5-1.5l0,0c0.83,0,1.5,0.67,1.5,1.5l0,0c0,0.83-0.67,1.5-1.5,1.5l0,0C653.17,11,652.5,10.33,652.5,9.5z
		 M646.5,9.5c0-0.83,0.67-1.5,1.5-1.5l0,0c0.83,0,1.5,0.67,1.5,1.5l0,0c0,0.83-0.67,1.5-1.5,1.5l0,0
		C647.17,11,646.5,10.33,646.5,9.5z M640.5,9.5c0-0.83,0.67-1.5,1.5-1.5l0,0c0.83,0,1.5,0.67,1.5,1.5l0,0c0,0.83-0.67,1.5-1.5,1.5
		l0,0C641.17,11,640.5,10.33,640.5,9.5z M634.5,9.5c0-0.83,0.67-1.5,1.5-1.5l0,0c0.83,0,1.5,0.67,1.5,1.5l0,0
		c0,0.83-0.67,1.5-1.5,1.5l0,0C635.17,11,634.5,10.33,634.5,9.5z M628.5,9.5c0-0.83,0.67-1.5,1.5-1.5l0,0c0.83,0,1.5,0.67,1.5,1.5
		l0,0c0,0.83-0.67,1.5-1.5,1.5l0,0C629.17,11,628.5,10.33,628.5,9.5z M622.5,9.5c0-0.83,0.67-1.5,1.5-1.5l0,0
		c0.83,0,1.5,0.67,1.5,1.5l0,0c0,0.83-0.67,1.5-1.5,1.5l0,0C623.17,11,622.5,10.33,622.5,9.5z M616.5,9.5c0-0.83,0.67-1.5,1.5-1.5
		l0,0c0.83,0,1.5,0.67,1.5,1.5l0,0c0,0.83-0.67,1.5-1.5,1.5l0,0C617.17,11,616.5,10.33,616.5,9.5z M610.5,9.5
		c0-0.83,0.67-1.5,1.5-1.5l0,0c0.83,0,1.5,0.67,1.5,1.5l0,0c0,0.83-0.67,1.5-1.5,1.5l0,0C611.17,11,610.5,10.33,610.5,9.5z
		 M604.5,9.5c0-0.83,0.67-1.5,1.5-1.5l0,0c0.83,0,1.5,0.67,1.5,1.5l0,0c0,0.83-0.67,1.5-1.5,1.5l0,0
		C605.17,11,604.5,10.33,604.5,9.5z M598.5,9.5c0-0.83,0.67-1.5,1.5-1.5l0,0c0.83,0,1.5,0.67,1.5,1.5l0,0c0,0.83-0.67,1.5-1.5,1.5
		l0,0C599.17,11,598.5,10.33,598.5,9.5z M592.5,9.5c0-0.83,0.67-1.5,1.5-1.5l0,0c0.83,0,1.5,0.67,1.5,1.5l0,0
		c0,0.83-0.67,1.5-1.5,1.5l0,0C593.17,11,592.5,10.33,592.5,9.5z M586.5,9.5c0-0.83,0.67-1.5,1.5-1.5l0,0c0.83,0,1.5,0.67,1.5,1.5
		l0,0c0,0.83-0.67,1.5-1.5,1.5l0,0C587.17,11,586.5,10.33,586.5,9.5z M580.5,9.5c0-0.83,0.67-1.5,1.5-1.5l0,0
		c0.83,0,1.5,0.67,1.5,1.5l0,0c0,0.83-0.67,1.5-1.5,1.5l0,0C581.17,11,580.5,10.33,580.5,9.5z M574.5,9.5c0-0.83,0.67-1.5,1.5-1.5
		l0,0c0.83,0,1.5,0.67,1.5,1.5l0,0c0,0.83-0.67,1.5-1.5,1.5l0,0C575.17,11,574.5,10.33,574.5,9.5z M568.5,9.5
		c0-0.83,0.67-1.5,1.5-1.5l0,0c0.83,0,1.5,0.67,1.5,1.5l0,0c0,0.83-0.67,1.5-1.5,1.5l0,0C569.17,11,568.5,10.33,568.5,9.5z
		 M562.5,9.5c0-0.83,0.67-1.5,1.5-1.5l0,0c0.83,0,1.5,0.67,1.5,1.5l0,0c0,0.83-0.67,1.5-1.5,1.5l0,0
		C563.17,11,562.5,10.33,562.5,9.5z M556.5,9.5c0-0.83,0.67-1.5,1.5-1.5l0,0c0.83,0,1.5,0.67,1.5,1.5l0,0c0,0.83-0.67,1.5-1.5,1.5
		l0,0C557.17,11,556.5,10.33,556.5,9.5z M550.5,9.5c0-0.83,0.67-1.5,1.5-1.5l0,0c0.83,0,1.5,0.67,1.5,1.5l0,0
		c0,0.83-0.67,1.5-1.5,1.5l0,0C551.17,11,550.5,10.33,550.5,9.5z M544.5,9.5c0-0.83,0.67-1.5,1.5-1.5l0,0c0.83,0,1.5,0.67,1.5,1.5
		l0,0c0,0.83-0.67,1.5-1.5,1.5l0,0C545.17,11,544.5,10.33,544.5,9.5z M538.5,9.5c0-0.83,0.67-1.5,1.5-1.5l0,0
		c0.83,0,1.5,0.67,1.5,1.5l0,0c0,0.83-0.67,1.5-1.5,1.5l0,0C539.17,11,538.5,10.33,538.5,9.5z M532.5,9.5c0-0.83,0.67-1.5,1.5-1.5
		l0,0c0.83,0,1.5,0.67,1.5,1.5l0,0c0,0.83-0.67,1.5-1.5,1.5l0,0C533.17,11,532.5,10.33,532.5,9.5z M526.5,9.5
		c0-0.83,0.67-1.5,1.5-1.5l0,0c0.83,0,1.5,0.67,1.5,1.5l0,0c0,0.83-0.67,1.5-1.5,1.5l0,0C527.17,11,526.5,10.33,526.5,9.5z
		 M520.5,9.5c0-0.83,0.67-1.5,1.5-1.5l0,0c0.83,0,1.5,0.67,1.5,1.5l0,0c0,0.83-0.67,1.5-1.5,1.5l0,0
		C521.17,11,520.5,10.33,520.5,9.5z M514.5,9.5c0-0.83,0.67-1.5,1.5-1.5l0,0c0.83,0,1.5,0.67,1.5,1.5l0,0c0,0.83-0.67,1.5-1.5,1.5
		l0,0C515.17,11,514.5,10.33,514.5,9.5z M508.5,9.5c0-0.83,0.67-1.5,1.5-1.5l0,0c0.83,0,1.5,0.67,1.5,1.5l0,0
		c0,0.83-0.67,1.5-1.5,1.5l0,0C509.17,11,508.5,10.33,508.5,9.5z M502.5,9.5c0-0.83,0.67-1.5,1.5-1.5l0,0c0.83,0,1.5,0.67,1.5,1.5
		l0,0c0,0.83-0.67,1.5-1.5,1.5l0,0C503.17,11,502.5,10.33,502.5,9.5z M496.5,9.5c0-0.83,0.67-1.5,1.5-1.5l0,0
		c0.83,0,1.5,0.67,1.5,1.5l0,0c0,0.83-0.67,1.5-1.5,1.5l0,0C497.17,11,496.5,10.33,496.5,9.5z M490.5,9.5c0-0.83,0.67-1.5,1.5-1.5
		l0,0c0.83,0,1.5,0.67,1.5,1.5l0,0c0,0.83-0.67,1.5-1.5,1.5l0,0C491.17,11,490.5,10.33,490.5,9.5z M484.5,9.5
		c0-0.83,0.67-1.5,1.5-1.5l0,0c0.83,0,1.5,0.67,1.5,1.5l0,0c0,0.83-0.67,1.5-1.5,1.5l0,0C485.17,11,484.5,10.33,484.5,9.5z
		 M478.5,9.5c0-0.83,0.67-1.5,1.5-1.5l0,0c0.83,0,1.5,0.67,1.5,1.5l0,0c0,0.83-0.67,1.5-1.5,1.5l0,0
		C479.17,11,478.5,10.33,478.5,9.5z M472.5,9.5c0-0.83,0.67-1.5,1.5-1.5l0,0c0.83,0,1.5,0.67,1.5,1.5l0,0c0,0.83-0.67,1.5-1.5,1.5
		l0,0C473.17,11,472.5,10.33,472.5,9.5z M466.5,9.5c0-0.83,0.67-1.5,1.5-1.5l0,0c0.83,0,1.5,0.67,1.5,1.5l0,0
		c0,0.83-0.67,1.5-1.5,1.5l0,0C467.17,11,466.5,10.33,466.5,9.5z M460.5,9.5c0-0.83,0.67-1.5,1.5-1.5l0,0c0.83,0,1.5,0.67,1.5,1.5
		l0,0c0,0.83-0.67,1.5-1.5,1.5l0,0C461.17,11,460.5,10.33,460.5,9.5z M454.5,9.5c0-0.83,0.67-1.5,1.5-1.5l0,0
		c0.83,0,1.5,0.67,1.5,1.5l0,0c0,0.83-0.67,1.5-1.5,1.5l0,0C455.17,11,454.5,10.33,454.5,9.5z M448.5,9.5c0-0.83,0.67-1.5,1.5-1.5
		l0,0c0.83,0,1.5,0.67,1.5,1.5l0,0c0,0.83-0.67,1.5-1.5,1.5l0,0C449.17,11,448.5,10.33,448.5,9.5z M442.5,9.5
		c0-0.83,0.67-1.5,1.5-1.5l0,0c0.83,0,1.5,0.67,1.5,1.5l0,0c0,0.83-0.67,1.5-1.5,1.5l0,0C443.17,11,442.5,10.33,442.5,9.5z
		 M436.5,9.5c0-0.83,0.67-1.5,1.5-1.5l0,0c0.83,0,1.5,0.67,1.5,1.5l0,0c0,0.83-0.67,1.5-1.5,1.5l0,0
		C437.17,11,436.5,10.33,436.5,9.5z M430.5,9.5c0-0.83,0.67-1.5,1.5-1.5l0,0c0.83,0,1.5,0.67,1.5,1.5l0,0c0,0.83-0.67,1.5-1.5,1.5
		l0,0C431.17,11,430.5,10.33,430.5,9.5z M424.5,9.5c0-0.83,0.67-1.5,1.5-1.5l0,0c0.83,0,1.5,0.67,1.5,1.5l0,0
		c0,0.83-0.67,1.5-1.5,1.5l0,0C425.17,11,424.5,10.33,424.5,9.5z M418.5,9.5c0-0.83,0.67-1.5,1.5-1.5l0,0c0.83,0,1.5,0.67,1.5,1.5
		l0,0c0,0.83-0.67,1.5-1.5,1.5l0,0C419.17,11,418.5,10.33,418.5,9.5z M412.5,9.5c0-0.83,0.67-1.5,1.5-1.5l0,0
		c0.83,0,1.5,0.67,1.5,1.5l0,0c0,0.83-0.67,1.5-1.5,1.5l0,0C413.17,11,412.5,10.33,412.5,9.5z M406.5,9.5c0-0.83,0.67-1.5,1.5-1.5
		l0,0c0.83,0,1.5,0.67,1.5,1.5l0,0c0,0.83-0.67,1.5-1.5,1.5l0,0C407.17,11,406.5,10.33,406.5,9.5z M400.5,9.5
		c0-0.83,0.67-1.5,1.5-1.5l0,0c0.83,0,1.5,0.67,1.5,1.5l0,0c0,0.83-0.67,1.5-1.5,1.5l0,0C401.17,11,400.5,10.33,400.5,9.5z
		 M394.5,9.5c0-0.83,0.67-1.5,1.5-1.5l0,0c0.83,0,1.5,0.67,1.5,1.5l0,0c0,0.83-0.67,1.5-1.5,1.5l0,0
		C395.17,11,394.5,10.33,394.5,9.5z M388.5,9.5c0-0.83,0.67-1.5,1.5-1.5l0,0c0.83,0,1.5,0.67,1.5,1.5l0,0c0,0.83-0.67,1.5-1.5,1.5
		l0,0C389.17,11,388.5,10.33,388.5,9.5z M382.5,9.5c0-0.83,0.67-1.5,1.5-1.5l0,0c0.83,0,1.5,0.67,1.5,1.5l0,0
		c0,0.83-0.67,1.5-1.5,1.5l0,0C383.17,11,382.5,10.33,382.5,9.5z M376.5,9.5c0-0.83,0.67-1.5,1.5-1.5l0,0c0.83,0,1.5,0.67,1.5,1.5
		l0,0c0,0.83-0.67,1.5-1.5,1.5l0,0C377.17,11,376.5,10.33,376.5,9.5z M370.5,9.5c0-0.83,0.67-1.5,1.5-1.5l0,0
		c0.83,0,1.5,0.67,1.5,1.5l0,0c0,0.83-0.67,1.5-1.5,1.5l0,0C371.17,11,370.5,10.33,370.5,9.5z M364.5,9.5c0-0.83,0.67-1.5,1.5-1.5
		l0,0c0.83,0,1.5,0.67,1.5,1.5l0,0c0,0.83-0.67,1.5-1.5,1.5l0,0C365.17,11,364.5,10.33,364.5,9.5z M358.5,9.5
		c0-0.83,0.67-1.5,1.5-1.5l0,0c0.83,0,1.5,0.67,1.5,1.5l0,0c0,0.83-0.67,1.5-1.5,1.5l0,0C359.17,11,358.5,10.33,358.5,9.5z
		 M352.5,9.5c0-0.83,0.67-1.5,1.5-1.5l0,0c0.83,0,1.5,0.67,1.5,1.5l0,0c0,0.83-0.67,1.5-1.5,1.5l0,0
		C353.17,11,352.5,10.33,352.5,9.5z M346.5,9.5c0-0.83,0.67-1.5,1.5-1.5l0,0c0.83,0,1.5,0.67,1.5,1.5l0,0c0,0.83-0.67,1.5-1.5,1.5
		l0,0C347.17,11,346.5,10.33,346.5,9.5z M340.5,9.5c0-0.83,0.67-1.5,1.5-1.5l0,0c0.83,0,1.5,0.67,1.5,1.5l0,0
		c0,0.83-0.67,1.5-1.5,1.5l0,0C341.17,11,340.5,10.33,340.5,9.5z M334.5,9.5c0-0.83,0.67-1.5,1.5-1.5l0,0c0.83,0,1.5,0.67,1.5,1.5
		l0,0c0,0.83-0.67,1.5-1.5,1.5l0,0C335.17,11,334.5,10.33,334.5,9.5z M328.5,9.5c0-0.83,0.67-1.5,1.5-1.5l0,0
		c0.83,0,1.5,0.67,1.5,1.5l0,0c0,0.83-0.67,1.5-1.5,1.5l0,0C329.17,11,328.5,10.33,328.5,9.5z M322.5,9.5c0-0.83,0.67-1.5,1.5-1.5
		l0,0c0.83,0,1.5,0.67,1.5,1.5l0,0c0,0.83-0.67,1.5-1.5,1.5l0,0C323.17,11,322.5,10.33,322.5,9.5z M316.5,9.5
		c0-0.83,0.67-1.5,1.5-1.5l0,0c0.83,0,1.5,0.67,1.5,1.5l0,0c0,0.83-0.67,1.5-1.5,1.5l0,0C317.17,11,316.5,10.33,316.5,9.5z
		 M310.5,9.5c0-0.83,0.67-1.5,1.5-1.5l0,0c0.83,0,1.5,0.67,1.5,1.5l0,0c0,0.83-0.67,1.5-1.5,1.5l0,0
		C311.17,11,310.5,10.33,310.5,9.5z M304.5,9.5c0-0.83,0.67-1.5,1.5-1.5l0,0c0.83,0,1.5,0.67,1.5,1.5l0,0c0,0.83-0.67,1.5-1.5,1.5
		l0,0C305.17,11,304.5,10.33,304.5,9.5z M298.5,9.5c0-0.83,0.67-1.5,1.5-1.5l0,0c0.83,0,1.5,0.67,1.5,1.5l0,0
		c0,0.83-0.67,1.5-1.5,1.5l0,0C299.17,11,298.5,10.33,298.5,9.5z M292.5,9.5c0-0.83,0.67-1.5,1.5-1.5l0,0c0.83,0,1.5,0.67,1.5,1.5
		l0,0c0,0.83-0.67,1.5-1.5,1.5l0,0C293.17,11,292.5,10.33,292.5,9.5z M286.5,9.5c0-0.83,0.67-1.5,1.5-1.5l0,0
		c0.83,0,1.5,0.67,1.5,1.5l0,0c0,0.83-0.67,1.5-1.5,1.5l0,0C287.17,11,286.5,10.33,286.5,9.5z M280.5,9.5c0-0.83,0.67-1.5,1.5-1.5
		l0,0c0.83,0,1.5,0.67,1.5,1.5l0,0c0,0.83-0.67,1.5-1.5,1.5l0,0C281.17,11,280.5,10.33,280.5,9.5z M274.5,9.5
		c0-0.83,0.67-1.5,1.5-1.5l0,0c0.83,0,1.5,0.67,1.5,1.5l0,0c0,0.83-0.67,1.5-1.5,1.5l0,0C275.17,11,274.5,10.33,274.5,9.5z
		 M268.5,9.5c0-0.83,0.67-1.5,1.5-1.5l0,0c0.83,0,1.5,0.67,1.5,1.5l0,0c0,0.83-0.67,1.5-1.5,1.5l0,0
		C269.17,11,268.5,10.33,268.5,9.5z M262.5,9.5c0-0.83,0.67-1.5,1.5-1.5l0,0c0.83,0,1.5,0.67,1.5,1.5l0,0c0,0.83-0.67,1.5-1.5,1.5
		l0,0C263.17,11,262.5,10.33,262.5,9.5z M256.5,9.5c0-0.83,0.67-1.5,1.5-1.5l0,0c0.83,0,1.5,0.67,1.5,1.5l0,0
		c0,0.83-0.67,1.5-1.5,1.5l0,0C257.17,11,256.5,10.33,256.5,9.5z M250.5,9.5c0-0.83,0.67-1.5,1.5-1.5l0,0c0.83,0,1.5,0.67,1.5,1.5
		l0,0c0,0.83-0.67,1.5-1.5,1.5l0,0C251.17,11,250.5,10.33,250.5,9.5z M244.5,9.5c0-0.83,0.67-1.5,1.5-1.5l0,0
		c0.83,0,1.5,0.67,1.5,1.5l0,0c0,0.83-0.67,1.5-1.5,1.5l0,0C245.17,11,244.5,10.33,244.5,9.5z M238.5,9.5c0-0.83,0.67-1.5,1.5-1.5
		l0,0c0.83,0,1.5,0.67,1.5,1.5l0,0c0,0.83-0.67,1.5-1.5,1.5l0,0C239.17,11,238.5,10.33,238.5,9.5z M232.5,9.5
		c0-0.83,0.67-1.5,1.5-1.5l0,0c0.83,0,1.5,0.67,1.5,1.5l0,0c0,0.83-0.67,1.5-1.5,1.5l0,0C233.17,11,232.5,10.33,232.5,9.5z
		 M226.5,9.5c0-0.83,0.67-1.5,1.5-1.5l0,0c0.83,0,1.5,0.67,1.5,1.5l0,0c0,0.83-0.67,1.5-1.5,1.5l0,0
		C227.17,11,226.5,10.33,226.5,9.5z M220.5,9.5c0-0.83,0.67-1.5,1.5-1.5l0,0c0.83,0,1.5,0.67,1.5,1.5l0,0c0,0.83-0.67,1.5-1.5,1.5
		l0,0C221.17,11,220.5,10.33,220.5,9.5z M214.5,9.5c0-0.83,0.67-1.5,1.5-1.5l0,0c0.83,0,1.5,0.67,1.5,1.5l0,0
		c0,0.83-0.67,1.5-1.5,1.5l0,0C215.17,11,214.5,10.33,214.5,9.5z M208.5,9.5c0-0.83,0.67-1.5,1.5-1.5l0,0c0.83,0,1.5,0.67,1.5,1.5
		l0,0c0,0.83-0.67,1.5-1.5,1.5l0,0C209.17,11,208.5,10.33,208.5,9.5z M202.5,9.5c0-0.83,0.67-1.5,1.5-1.5l0,0
		c0.83,0,1.5,0.67,1.5,1.5l0,0c0,0.83-0.67,1.5-1.5,1.5l0,0C203.17,11,202.5,10.33,202.5,9.5z M196.5,9.5c0-0.83,0.67-1.5,1.5-1.5
		l0,0c0.83,0,1.5,0.67,1.5,1.5l0,0c0,0.83-0.67,1.5-1.5,1.5l0,0C197.17,11,196.5,10.33,196.5,9.5z M190.5,9.5
		c0-0.83,0.67-1.5,1.5-1.5l0,0c0.83,0,1.5,0.67,1.5,1.5l0,0c0,0.83-0.67,1.5-1.5,1.5l0,0C191.17,11,190.5,10.33,190.5,9.5z
		 M184.5,9.5c0-0.83,0.67-1.5,1.5-1.5l0,0c0.83,0,1.5,0.67,1.5,1.5l0,0c0,0.83-0.67,1.5-1.5,1.5l0,0
		C185.17,11,184.5,10.33,184.5,9.5z M178.5,9.5c0-0.83,0.67-1.5,1.5-1.5l0,0c0.83,0,1.5,0.67,1.5,1.5l0,0c0,0.83-0.67,1.5-1.5,1.5
		l0,0C179.17,11,178.5,10.33,178.5,9.5z M172.5,9.5c0-0.83,0.67-1.5,1.5-1.5l0,0c0.83,0,1.5,0.67,1.5,1.5l0,0
		c0,0.83-0.67,1.5-1.5,1.5l0,0C173.17,11,172.5,10.33,172.5,9.5z M166.5,9.5c0-0.83,0.67-1.5,1.5-1.5l0,0c0.83,0,1.5,0.67,1.5,1.5
		l0,0c0,0.83-0.67,1.5-1.5,1.5l0,0C167.17,11,166.5,10.33,166.5,9.5z M160.5,9.5c0-0.83,0.67-1.5,1.5-1.5l0,0
		c0.83,0,1.5,0.67,1.5,1.5l0,0c0,0.83-0.67,1.5-1.5,1.5l0,0C161.17,11,160.5,10.33,160.5,9.5z M154.5,9.5c0-0.83,0.67-1.5,1.5-1.5
		l0,0c0.83,0,1.5,0.67,1.5,1.5l0,0c0,0.83-0.67,1.5-1.5,1.5l0,0C155.17,11,154.5,10.33,154.5,9.5z M148.5,9.5
		c0-0.83,0.67-1.5,1.5-1.5l0,0c0.83,0,1.5,0.67,1.5,1.5l0,0c0,0.83-0.67,1.5-1.5,1.5l0,0C149.17,11,148.5,10.33,148.5,9.5z
		 M142.5,9.5c0-0.83,0.67-1.5,1.5-1.5l0,0c0.83,0,1.5,0.67,1.5,1.5l0,0c0,0.83-0.67,1.5-1.5,1.5l0,0
		C143.17,11,142.5,10.33,142.5,9.5z M136.5,9.5c0-0.83,0.67-1.5,1.5-1.5l0,0c0.83,0,1.5,0.67,1.5,1.5l0,0c0,0.83-0.67,1.5-1.5,1.5
		l0,0C137.17,11,136.5,10.33,136.5,9.5z M130.5,9.5c0-0.83,0.67-1.5,1.5-1.5l0,0c0.83,0,1.5,0.67,1.5,1.5l0,0
		c0,0.83-0.67,1.5-1.5,1.5l0,0C131.17,11,130.5,10.33,130.5,9.5z M124.5,9.5c0-0.83,0.67-1.5,1.5-1.5l0,0c0.83,0,1.5,0.67,1.5,1.5
		l0,0c0,0.83-0.67,1.5-1.5,1.5l0,0C125.17,11,124.5,10.33,124.5,9.5z M118.5,9.5c0-0.83,0.67-1.5,1.5-1.5l0,0
		c0.83,0,1.5,0.67,1.5,1.5l0,0c0,0.83-0.67,1.5-1.5,1.5l0,0C119.17,11,118.5,10.33,118.5,9.5z M112.5,9.5c0-0.83,0.67-1.5,1.5-1.5
		l0,0c0.83,0,1.5,0.67,1.5,1.5l0,0c0,0.83-0.67,1.5-1.5,1.5l0,0C113.17,11,112.5,10.33,112.5,9.5z M106.5,9.5
		c0-0.83,0.67-1.5,1.5-1.5l0,0c0.83,0,1.5,0.67,1.5,1.5l0,0c0,0.83-0.67,1.5-1.5,1.5l0,0C107.17,11,106.5,10.33,106.5,9.5z
		 M100.5,9.5c0-0.83,0.67-1.5,1.5-1.5l0,0c0.83,0,1.5,0.67,1.5,1.5l0,0c0,0.83-0.67,1.5-1.5,1.5l0,0
		C101.17,11,100.5,10.33,100.5,9.5z M94.5,9.5C94.5,8.67,95.17,8,96,8l0,0c0.83,0,1.5,0.67,1.5,1.5l0,0c0,0.83-0.67,1.5-1.5,1.5l0,0
		C95.17,11,94.5,10.33,94.5,9.5z M88.5,9.5C88.5,8.67,89.17,8,90,8l0,0c0.83,0,1.5,0.67,1.5,1.5l0,0c0,0.83-0.67,1.5-1.5,1.5l0,0
		C89.17,11,88.5,10.33,88.5,9.5z M82.5,9.5C82.5,8.67,83.17,8,84,8l0,0c0.83,0,1.5,0.67,1.5,1.5l0,0c0,0.83-0.67,1.5-1.5,1.5l0,0
		C83.17,11,82.5,10.33,82.5,9.5z M76.5,9.5C76.5,8.67,77.17,8,78,8l0,0c0.83,0,1.5,0.67,1.5,1.5l0,0c0,0.83-0.67,1.5-1.5,1.5l0,0
		C77.17,11,76.5,10.33,76.5,9.5z M70.5,9.5C70.5,8.67,71.17,8,72,8l0,0c0.83,0,1.5,0.67,1.5,1.5l0,0c0,0.83-0.67,1.5-1.5,1.5l0,0
		C71.17,11,70.5,10.33,70.5,9.5z M64.5,9.5C64.5,8.67,65.17,8,66,8l0,0c0.83,0,1.5,0.67,1.5,1.5l0,0c0,0.83-0.67,1.5-1.5,1.5l0,0
		C65.17,11,64.5,10.33,64.5,9.5z M58.5,9.5C58.5,8.67,59.17,8,60,8l0,0c0.83,0,1.5,0.67,1.5,1.5l0,0c0,0.83-0.67,1.5-1.5,1.5l0,0
		C59.17,11,58.5,10.33,58.5,9.5z M52.5,9.5C52.5,8.67,53.17,8,54,8l0,0c0.83,0,1.5,0.67,1.5,1.5l0,0c0,0.83-0.67,1.5-1.5,1.5l0,0
		C53.17,11,52.5,10.33,52.5,9.5z M46.5,9.5C46.5,8.67,47.17,8,48,8l0,0c0.83,0,1.5,0.67,1.5,1.5l0,0c0,0.83-0.67,1.5-1.5,1.5l0,0
		C47.17,11,46.5,10.33,46.5,9.5z M40.5,9.5C40.5,8.67,41.17,8,42,8l0,0c0.83,0,1.5,0.67,1.5,1.5l0,0c0,0.83-0.67,1.5-1.5,1.5l0,0
		C41.17,11,40.5,10.33,40.5,9.5z M34.5,9.5C34.5,8.67,35.17,8,36,8l0,0c0.83,0,1.5,0.67,1.5,1.5l0,0c0,0.83-0.67,1.5-1.5,1.5l0,0
		C35.17,11,34.5,10.33,34.5,9.5z M28.5,9.5C28.5,8.67,29.17,8,30,8l0,0c0.83,0,1.5,0.67,1.5,1.5l0,0c0,0.83-0.67,1.5-1.5,1.5l0,0
		C29.17,11,28.5,10.33,28.5,9.5z M22.5,9.5C22.5,8.67,23.17,8,24,8l0,0c0.83,0,1.5,0.67,1.5,1.5l0,0c0,0.83-0.67,1.5-1.5,1.5l0,0
		C23.17,11,22.5,10.33,22.5,9.5z M16.5,9.5C16.5,8.67,17.17,8,18,8l0,0c0.83,0,1.5,0.67,1.5,1.5l0,0c0,0.83-0.67,1.5-1.5,1.5l0,0
		C17.17,11,16.5,10.33,16.5,9.5z M10.5,9.5C10.5,8.67,11.17,8,12,8l0,0c0.83,0,1.5,0.67,1.5,1.5l0,0c0,0.83-0.67,1.5-1.5,1.5l0,0
		C11.17,11,10.5,10.33,10.5,9.5z M4.5,9.5C4.5,8.67,5.17,8,6,8l0,0c0.83,0,1.5,0.67,1.5,1.5l0,0C7.5,10.33,6.83,11,6,11l0,0
		C5.17,11,4.5,10.33,4.5,9.5z M-1.5,9.5C-1.5,8.67-0.83,8,0,8l0,0c0.83,0,1.5,0.67,1.5,1.5l0,0C1.5,10.33,0.83,11,0,11l0,0
		C-0.83,11-1.5,10.33-1.5,9.5z"/>
</g>
</svg>
